<?xml version="1.0" encoding="UTF-8"?>
<!DOCTYPE svg PUBLIC "-//W3C//DTD SVG 1.1//EN" "http://www.w3.org/Graphics/SVG/1.1/DTD/svg11.dtd">
<!-- Creator: CorelDRAW X7 -->
<svg xmlns="http://www.w3.org/2000/svg" xml:space="preserve" width="867px" height="468px" version="1.1" style="shape-rendering:geometricPrecision; text-rendering:geometricPrecision; image-rendering:optimizeQuality; fill-rule:evenodd; clip-rule:evenodd"
viewBox="0 0 872 471"
 xmlns:xlink="http://www.w3.org/1999/xlink">
 <defs>
  <style type="text/css">
   <![CDATA[
    .str3 {stroke:#373435;stroke-width:2.37607}
    .str7 {stroke:#337583;stroke-width:2.37607}
    .str2 {stroke:#3EA6A7;stroke-width:2.37607}
    .str4 {stroke:#FA9A4D;stroke-width:2.37607}
    .str0 {stroke:#373435;stroke-width:0.905283}
    .str6 {stroke:#337583;stroke-width:0.905283}
    .str9 {stroke:#3EA6A7;stroke-width:0.905283}
    .str5 {stroke:#C1DA74;stroke-width:0.905283}
    .str8 {stroke:#F5FAA0;stroke-width:0.905283}
    .str1 {stroke:#FA9A4D;stroke-width:0.905283}
    .fil2 {fill:#373435}
    .fil6 {fill:#337583}
    .fil4 {fill:#3EA6A7}
    .fil5 {fill:#C1DA74}
    .fil7 {fill:#F5FAA0}
    .fil3 {fill:#FA9A4D}
    .fil8 {fill:#373435;fill-rule:nonzero}
    .fil0 {fill:#373435;fill-rule:nonzero}
    .fil1 {fill:#337583;fill-rule:nonzero}
   ]]>
  </style>
 </defs>
 <g id="Camada_x0020_1">
  <metadata id="CorelCorpID_0Corel-Layer"/>
  <g id="_896989262832">
   <g>
    <path class="fil0" d="M184 420c-3,-2 -7,-3 -10,-3 -4,0 -7,1 -10,2 -2,2 -4,4 -6,7 -1,3 -2,6 -2,10 0,4 1,7 3,9 3,2 6,4 10,4 2,0 3,-1 5,-1 2,-1 4,-1 6,-2l-2 7c-3,1 -7,2 -11,2 -4,0 -7,-1 -10,-2 -3,-2 -5,-4 -7,-7 -1,-3 -2,-6 -2,-10 0,-5 1,-9 3,-13 2,-4 5,-7 9,-9 4,-3 9,-4 14,-4 4,0 8,1 12,3l-2 7z"/>
    <path id="1" class="fil0" d="M212 454l-7 0c0,0 0,-1 0,-2 0,-2 0,-3 0,-4l0 0c-1,2 -2,4 -3,4 -1,1 -2,2 -3,2 -1,1 -3,1 -4,1 -3,0 -5,-1 -7,-3 -1,-2 -2,-5 -2,-9 0,-3 1,-7 2,-10 2,-4 5,-6 8,-8 2,-1 6,-2 10,-2 3,0 7,0 11,1l-4 20c0,2 0,3 -1,6 0,2 0,3 0,4zm-3 -25c-1,-1 -2,-1 -4,-1 -2,0 -4,1 -6,2 -2,1 -3,3 -4,5 -1,3 -2,5 -2,8 0,2 1,4 1,5 1,1 2,1 4,1 2,0 4,-1 6,-3 1,-2 3,-5 3,-9l2 -8z"/>
    <path id="2" class="fil0" d="M247 454l-7 0c0,-1 0,-3 0,-5l0 0c-1,2 -3,3 -5,4 -1,2 -3,2 -5,2 -3,0 -5,-1 -7,-3 -1,-2 -2,-5 -2,-9 0,-3 1,-7 2,-10 2,-3 4,-6 7,-8 3,-1 7,-2 10,-2 2,0 4,0 5,0l3 -14 8 0 -8 35c0,2 0,3 -1,5 0,2 0,4 0,5zm-3 -25c-1,-1 -3,-1 -4,-1 -2,0 -4,1 -6,2 -2,1 -3,3 -4,5 -1,3 -2,5 -2,8 0,2 1,4 1,5 1,1 2,1 4,1 2,0 4,-1 6,-3 1,-2 3,-5 3,-9l2 -8z"/>
    <path id="3" class="fil0" d="M284 431c0,4 -2,7 -5,8 -4,2 -9,3 -16,3l0 0 0 1c0,2 1,4 2,5 1,1 3,2 5,2 2,0 3,-1 5,-1 2,-1 3,-2 5,-2l-1 6c-3,1 -7,2 -10,2 -4,0 -8,-1 -10,-3 -2,-3 -3,-6 -3,-10 0,-3 1,-6 2,-10 2,-3 4,-5 7,-7 2,-1 5,-2 9,-2 3,0 5,0 7,2 2,2 3,4 3,6zm-7 0c0,-1 0,-2 -1,-2 -1,-1 -2,-1 -3,-1 -2,0 -4,1 -6,3 -2,1 -3,3 -3,6 9,0 13,-2 13,-6z"/>
    <path id="4" class="fil0" d="M303 413c0,1 -1,2 -2,3 -1,1 -2,1 -3,1 -1,0 -2,0 -3,-1 -1,-1 -1,-2 -1,-3 0,-1 0,-2 1,-3 1,0 2,-1 3,-1 1,0 2,0 3,1 1,1 2,2 2,3zm-9 42c-2,0 -4,-1 -5,-2 -1,-1 -1,-3 -1,-5 0,-1 0,-2 0,-3l4 -22 8 0 -4 20c-1,2 -1,3 -1,4 0,1 1,2 3,2 1,0 2,0 2,0l-1 5c-2,1 -3,1 -5,1z"/>
    <path id="5" class="fil0" d="M331 454l-8 0c0,0 1,-1 1,-2 0,-2 0,-3 0,-4l0 0c-1,2 -2,4 -3,4 -1,1 -2,2 -3,2 -1,1 -3,1 -4,1 -3,0 -5,-1 -7,-3 -1,-2 -2,-5 -2,-9 0,-3 1,-7 2,-10 2,-4 4,-6 7,-8 3,-1 7,-2 11,-2 3,0 7,0 11,1l-4 20c0,2 -1,3 -1,6 0,2 0,3 0,4zm-3 -25c-1,-1 -3,-1 -4,-1 -2,0 -4,1 -6,2 -2,1 -3,3 -4,5 -1,3 -2,5 -2,8 0,2 0,4 1,5 1,1 2,1 4,1 2,0 4,-1 5,-3 2,-2 3,-5 4,-9l2 -8z"/>
    <path id="6" class="fil0" d="M383 454l-8 0c0,-1 1,-3 1,-5l0 0c-2,2 -3,3 -5,4 -1,2 -3,2 -5,2 -3,0 -5,-1 -7,-3 -1,-2 -2,-5 -2,-9 0,-3 1,-7 2,-10 2,-3 4,-6 7,-8 3,-1 6,-2 10,-2 2,0 4,0 5,0l3 -14 7 0 -7 35c0,2 -1,3 -1,5 0,2 0,4 0,5zm-3 -25c-1,-1 -3,-1 -4,-1 -2,0 -4,1 -6,2 -2,1 -3,3 -4,5 -1,3 -2,5 -2,8 0,2 0,4 1,5 1,1 2,1 4,1 2,0 4,-1 5,-3 2,-2 3,-5 4,-9l2 -8z"/>
    <path id="7" class="fil0" d="M418 454l-8 0c0,0 1,-1 1,-2 0,-2 0,-3 0,-4l0 0c-1,2 -2,4 -3,4 -1,1 -2,2 -3,2 -1,1 -3,1 -4,1 -3,0 -5,-1 -7,-3 -1,-2 -2,-5 -2,-9 0,-3 1,-7 2,-10 2,-4 4,-6 7,-8 3,-1 7,-2 11,-2 3,0 7,0 11,1l-4 20c0,2 -1,3 -1,6 0,2 0,3 0,4zm-3 -25c-1,-1 -3,-1 -4,-1 -2,0 -4,1 -6,2 -2,1 -3,3 -4,5 -1,3 -2,5 -2,8 0,2 0,4 1,5 1,1 2,1 4,1 2,0 4,-1 5,-3 2,-2 3,-5 4,-9l2 -8z"/>
    <path id="8" class="fil0" d="M479 422c0,4 -1,6 -4,9 -2,2 -5,3 -9,4l0 0c2,1 4,3 5,6l3 13 -8 0 -3 -12c0,-1 -1,-3 -2,-4 -1,-1 -2,-1 -4,-1l-2 0 -4 17 -8 0 10 -43 13 0c4,0 7,1 10,3 2,2 3,5 3,8zm-8 1c0,-2 0,-3 -2,-4 -1,-1 -2,-2 -5,-2l-5 0 -3 14 5 0c3,0 6,-1 7,-2 2,-2 3,-4 3,-6z"/>
    <path id="9" class="fil0" d="M508 431c0,4 -2,7 -5,8 -4,2 -9,3 -16,3l0 0 0 1c0,2 0,4 2,5 1,1 3,2 5,2 1,0 3,-1 5,-1 2,-1 3,-2 5,-2l-2 6c-3,1 -6,2 -10,2 -4,0 -7,-1 -9,-3 -2,-3 -3,-6 -3,-10 0,-3 0,-6 2,-10 1,-3 4,-5 6,-7 3,-1 6,-2 9,-2 4,0 6,0 8,2 2,2 3,4 3,6zm-7 0c0,-1 -1,-2 -1,-2 -1,-1 -2,-1 -3,-1 -2,0 -4,1 -6,3 -2,1 -3,3 -4,6 9,0 14,-2 14,-6z"/>
    <path id="10" class="fil0" d="M535 431c-1,-1 -1,-1 -3,-2 -1,0 -2,-1 -3,-1 -2,0 -4,1 -6,2 -1,1 -2,3 -3,5 -1,2 -2,4 -2,7 0,2 1,4 2,5 1,2 2,2 4,2 2,0 3,0 4,0 2,-1 3,-2 4,-2l-1 6c-3,1 -6,2 -9,2 -3,0 -6,-1 -8,-3 -2,-3 -3,-6 -3,-10 0,-3 1,-6 2,-10 2,-3 4,-5 7,-7 2,-1 5,-2 9,-2 1,0 3,0 4,0 2,1 3,1 4,2l-2 6z"/>
    <path id="11" class="fil0" d="M554 413c0,1 0,2 -1,3 -1,1 -2,1 -3,1 -2,0 -3,0 -3,-1 -1,-1 -2,-2 -2,-3 0,-1 1,-2 2,-3 0,0 2,-1 3,-1 1,0 2,0 3,1 1,1 1,2 1,3zm-8 42c-2,0 -4,-1 -5,-2 -1,-1 -2,-3 -2,-5 0,-1 0,-2 0,-3l5 -22 7 0 -4 20c0,2 -1,3 -1,4 0,1 1,2 3,2 1,0 2,0 3,0l-1 5c-2,1 -4,1 -5,1z"/>
    <path id="12" class="fil0" d="M581 431c-1,-1 -2,-1 -3,-2 -1,0 -2,-1 -4,-1 -2,0 -4,1 -5,2 -2,1 -3,3 -4,5 -1,2 -1,4 -1,7 0,2 0,4 1,5 1,2 3,2 5,2 1,0 3,0 4,0 1,-1 3,-2 4,-2l-2 6c-2,1 -5,2 -8,2 -4,0 -7,-1 -9,-3 -2,-3 -3,-6 -3,-10 0,-3 1,-6 3,-10 1,-3 3,-5 6,-7 3,-1 6,-2 9,-2 2,0 3,0 5,0 1,1 2,1 3,2l-1 6z"/>
    <path id="13" class="fil0" d="M591 455c-2,0 -4,-1 -5,-2 -1,-1 -2,-3 -2,-5 0,-1 1,-3 2,-7 0,-3 3,-14 7,-32l7 0 -7 34c-1,2 -1,3 -1,4 0,1 1,2 3,2 1,0 2,0 2,0l-1 5c-1,1 -3,1 -5,1z"/>
    <path id="14" class="fil0" d="M628 454l-8 0c0,0 0,-1 1,-2 0,-2 0,-3 0,-4l0 0c-1,2 -3,4 -3,4 -1,1 -2,2 -3,2 -1,1 -3,1 -4,1 -3,0 -5,-1 -7,-3 -1,-2 -2,-5 -2,-9 0,-3 1,-7 2,-10 2,-4 4,-6 7,-8 3,-1 7,-2 11,-2 3,0 7,0 11,1l-4 20c0,2 -1,3 -1,6 0,2 0,3 0,4zm-3 -25c-1,-1 -3,-1 -4,-1 -2,0 -4,1 -6,2 -2,1 -3,3 -4,5 -1,3 -2,5 -2,8 0,2 0,4 1,5 1,1 2,1 4,1 2,0 4,-1 5,-3 2,-2 3,-5 4,-9l2 -8z"/>
    <path id="15" class="fil0" d="M643 469c-3,0 -6,-1 -9,-2l1 -7c3,2 6,3 9,3 3,0 5,-1 7,-2 2,-2 3,-5 4,-9l1 -3 0 0c-2,2 -3,4 -5,5 -1,1 -3,1 -5,1 -3,0 -5,-1 -7,-3 -1,-2 -2,-5 -2,-9 0,-3 1,-7 2,-10 2,-3 4,-6 7,-8 3,-1 6,-2 10,-2 3,0 7,0 12,1l-5 27c-1,5 -3,8 -4,11 -2,2 -4,4 -6,5 -3,1 -6,2 -10,2zm17 -40c-1,-1 -3,-1 -5,-1 -2,0 -4,1 -5,2 -2,1 -3,3 -4,6 -1,2 -2,4 -2,7 0,2 0,4 1,5 1,1 2,1 4,1 1,0 2,0 4,-1 1,-1 2,-3 3,-5 1,-2 2,-4 2,-6l2 -8z"/>
    <path id="16" class="fil0" d="M700 431c0,4 -2,7 -5,8 -4,2 -9,3 -16,3l0 0 0 1c0,2 1,4 2,5 1,1 3,2 5,2 2,0 3,-1 5,-1 2,-1 3,-2 5,-2l-1 6c-4,1 -7,2 -11,2 -4,0 -7,-1 -9,-3 -2,-3 -3,-6 -3,-10 0,-3 1,-6 2,-10 2,-3 4,-5 6,-7 3,-1 6,-2 9,-2 4,0 6,0 8,2 2,2 3,4 3,6zm-7 0c0,-1 0,-2 -1,-2 -1,-1 -2,-1 -3,-1 -2,0 -4,1 -6,3 -2,1 -3,3 -3,6 8,0 13,-2 13,-6z"/>
    <path id="17" class="fil0" d="M753 431c0,1 -1,3 -1,6l-4 17 -7 0 4 -18c0,-2 0,-3 0,-3 0,-3 -1,-5 -3,-5 -2,0 -4,2 -6,4 -2,2 -4,5 -4,7l-3 15 -8 0 4 -18c0,-2 1,-3 1,-3 0,-3 -1,-5 -4,-5 -1,0 -2,1 -4,2 -1,1 -2,2 -4,4 -1,2 -1,4 -2,5l-3 15 -7 0 4 -21c1,-4 2,-7 2,-10l7 0c0,2 0,4 -1,7l0 0c2,-2 4,-4 6,-5 2,-2 4,-2 6,-2 4,0 7,2 7,7 2,-2 4,-4 6,-5 2,-2 4,-2 6,-2 3,0 4,0 6,2 1,1 2,3 2,6z"/>
    <path class="fil1" d="M186 422c-3,-2 -7,-3 -10,-3 -4,0 -7,1 -10,3 -2,1 -4,4 -6,6 -1,3 -2,6 -2,10 0,4 1,7 3,10 3,2 6,3 10,3 2,0 3,0 5,-1 2,0 4,-1 6,-2l-2 7c-3,2 -7,2 -11,2 -4,0 -7,0 -10,-2 -3,-1 -5,-4 -7,-6 -1,-3 -2,-7 -2,-10 0,-5 1,-10 3,-14 2,-4 6,-7 9,-9 4,-2 9,-3 14,-3 4,0 8,1 12,2l-2 7z"/>
    <path id="1" class="fil1" d="M214 457l-7 0c0,-1 0,-2 0,-3 0,-1 0,-2 0,-3l0 0c-1,2 -2,3 -3,4 -1,1 -2,1 -3,2 -1,0 -3,0 -4,0 -3,0 -5,-1 -7,-3 -1,-2 -2,-5 -2,-8 0,-4 1,-7 2,-11 2,-3 5,-6 8,-7 2,-2 6,-3 10,-3 3,0 7,1 11,2l-4 20c0,1 0,3 -1,5 0,2 0,4 0,5zm-3 -26c-1,0 -2,0 -4,0 -2,0 -4,0 -6,1 -2,2 -3,3 -4,6 -1,2 -2,5 -2,7 0,2 1,4 1,5 1,1 2,2 4,2 2,0 4,-1 6,-4 1,-2 3,-5 3,-9l2 -8z"/>
    <path id="2" class="fil1" d="M249 457l-7 0c0,-1 0,-3 0,-6l0 0c-1,2 -3,4 -5,5 -1,1 -3,1 -5,1 -3,0 -5,-1 -7,-3 -1,-2 -2,-4 -2,-8 0,-4 1,-7 2,-11 2,-3 4,-5 7,-7 3,-2 7,-3 10,-3 2,0 4,0 5,1l3 -15 8 0 -8 36c0,1 0,3 -1,5 0,2 0,3 0,5zm-3 -26c-1,0 -3,0 -4,0 -2,0 -4,0 -6,1 -2,2 -3,3 -4,6 -1,2 -2,5 -2,7 0,2 1,4 1,5 1,1 2,2 4,2 2,0 4,-1 6,-4 1,-2 3,-5 3,-9l2 -8z"/>
    <path id="3" class="fil1" d="M286 433c0,4 -2,7 -5,9 -4,1 -9,2 -16,2l0 1 0 0c0,2 1,4 2,5 1,1 3,2 5,2 2,0 3,0 5,-1 2,0 3,-1 5,-2l-1 6c-3,2 -7,2 -10,2 -4,0 -8,-1 -10,-3 -2,-2 -3,-5 -3,-9 0,-4 1,-7 2,-10 2,-3 4,-6 7,-7 2,-2 5,-3 9,-3 3,0 5,1 7,2 2,2 3,4 3,6zm-7 1c0,-1 0,-2 -1,-3 -1,0 -2,-1 -3,-1 -2,0 -4,1 -6,3 -2,2 -3,4 -3,6 9,0 13,-1 13,-5z"/>
    <path id="4" class="fil1" d="M305 415c0,2 -1,3 -2,3 -1,1 -2,2 -3,2 -1,0 -2,-1 -3,-1 -1,-1 -1,-2 -1,-3 0,-2 0,-3 1,-3 1,-1 2,-1 3,-1 1,0 2,0 3,1 1,0 2,1 2,2zm-9 42c-2,0 -4,0 -5,-1 -1,-2 -1,-3 -1,-5 0,-1 0,-2 0,-3l4 -22 8 0 -4 19c-1,2 -1,4 -1,4 0,2 1,2 3,2 1,0 2,0 2,0l-1 6c-2,0 -3,0 -5,0z"/>
    <path id="5" class="fil1" d="M333 457l-8 0c0,-1 1,-2 1,-3 0,-1 0,-2 0,-3l0 0c-1,2 -2,3 -3,4 -1,1 -2,1 -3,2 -1,0 -3,0 -4,0 -3,0 -5,-1 -7,-3 -1,-2 -2,-5 -2,-8 0,-4 1,-7 2,-11 2,-3 4,-6 7,-7 3,-2 7,-3 11,-3 3,0 7,1 11,2l-4 20c0,1 -1,3 -1,5 0,2 0,4 0,5zm-3 -26c-1,0 -3,0 -4,0 -2,0 -4,0 -6,1 -2,2 -3,3 -4,6 -1,2 -2,5 -2,7 0,2 0,4 1,5 1,1 2,2 4,2 2,0 4,-1 5,-4 2,-2 4,-5 4,-9l2 -8z"/>
    <path id="6" class="fil1" d="M385 457l-8 0c0,-1 1,-3 1,-6l0 0c-2,2 -3,4 -5,5 -1,1 -3,1 -5,1 -3,0 -5,-1 -7,-3 -1,-2 -2,-4 -2,-8 0,-4 1,-7 2,-11 2,-3 4,-5 7,-7 3,-2 6,-3 10,-3 2,0 4,0 5,1l3 -15 7 0 -7 36c0,1 -1,3 -1,5 0,2 0,3 0,5zm-3 -26c-1,0 -3,0 -4,0 -2,0 -4,0 -6,1 -2,2 -3,3 -4,6 -1,2 -2,5 -2,7 0,2 0,4 1,5 1,1 2,2 4,2 2,0 4,-1 5,-4 2,-2 3,-5 4,-9l2 -8z"/>
    <path id="7" class="fil1" d="M420 457l-8 0c0,-1 1,-2 1,-3 0,-1 0,-2 0,-3l0 0c-1,2 -2,3 -3,4 -1,1 -2,1 -3,2 -1,0 -3,0 -4,0 -3,0 -5,-1 -7,-3 -1,-2 -2,-5 -2,-8 0,-4 1,-7 2,-11 2,-3 5,-6 7,-7 3,-2 7,-3 11,-3 3,0 7,1 11,2l-4 20c0,1 -1,3 -1,5 0,2 0,4 0,5zm-3 -26c-1,0 -3,0 -4,0 -2,0 -4,0 -6,1 -2,2 -3,3 -4,6 -1,2 -2,5 -2,7 0,2 0,4 1,5 1,1 2,2 4,2 2,0 4,-1 5,-4 2,-2 4,-5 4,-9l2 -8z"/>
    <path id="8" class="fil1" d="M481 424c0,4 -1,7 -4,9 -2,2 -5,4 -9,4l0 0c2,1 4,3 5,7l3 13 -8 0 -3 -12c0,-2 -1,-3 -2,-4 -1,-1 -2,-2 -4,-2l-2 0 -4 18 -7 0 9 -43 13 0c4,0 7,0 10,2 2,2 3,5 3,8zm-8 1c0,-1 0,-3 -2,-4 -1,-1 -2,-2 -5,-2l-5 0 -3 14 5 0c3,0 6,0 7,-2 2,-1 3,-3 3,-6z"/>
    <path id="9" class="fil1" d="M510 433c0,4 -2,7 -5,9 -4,1 -9,2 -16,2l0 1 0 0c0,2 1,4 2,5 1,1 3,2 5,2 1,0 3,0 5,-1 2,0 3,-1 5,-2l-2 6c-3,2 -6,2 -10,2 -4,0 -7,-1 -9,-3 -2,-2 -3,-5 -3,-9 0,-4 0,-7 2,-10 1,-3 4,-6 6,-7 3,-2 6,-3 9,-3 4,0 6,1 8,2 2,2 3,4 3,6zm-7 1c0,-1 -1,-2 -1,-3 -1,0 -2,-1 -3,-1 -2,0 -4,1 -6,3 -2,2 -3,4 -4,6 9,0 14,-1 14,-5z"/>
    <path id="10" class="fil1" d="M537 433c0,0 -1,-1 -3,-1 -1,-1 -2,-1 -3,-1 -2,0 -4,0 -6,2 -1,1 -2,2 -3,4 -1,3 -2,5 -2,7 0,3 1,4 2,6 1,1 2,2 5,2 1,0 2,-1 3,-1 2,-1 3,-1 4,-2l-1 6c-3,2 -6,2 -9,2 -3,0 -6,-1 -8,-3 -2,-2 -3,-5 -3,-9 0,-4 1,-7 2,-10 2,-3 4,-6 7,-7 2,-2 5,-3 9,-3 1,0 3,0 4,1 2,0 3,0 4,1l-2 6z"/>
    <path id="11" class="fil1" d="M556 415c0,2 0,3 -1,3 -1,1 -2,2 -3,2 -2,0 -3,-1 -3,-1 -1,-1 -2,-2 -2,-3 0,-2 1,-3 2,-3 0,-1 2,-1 3,-1 1,0 2,0 3,1 1,0 1,1 1,2zm-8 42c-2,0 -4,0 -5,-1 -1,-2 -2,-3 -2,-5 0,-1 0,-2 0,-3l5 -22 7 0 -4 19c0,2 -1,4 -1,4 0,2 1,2 3,2 1,0 2,0 3,0l-1 6c-2,0 -4,0 -5,0z"/>
    <path id="12" class="fil1" d="M583 433c-1,0 -2,-1 -3,-1 -1,-1 -2,-1 -4,-1 -2,0 -3,0 -5,2 -2,1 -3,2 -4,4 -1,3 -1,5 -1,7 0,3 0,4 1,6 1,1 3,2 5,2 1,0 3,-1 4,-1 1,-1 3,-1 4,-2l-2 6c-2,2 -5,2 -8,2 -4,0 -7,-1 -9,-3 -2,-2 -3,-5 -3,-9 0,-4 1,-7 3,-10 1,-3 3,-6 6,-7 3,-2 6,-3 9,-3 2,0 3,0 5,1 1,0 2,0 3,1l-1 6z"/>
    <path id="13" class="fil1" d="M593 457c-2,0 -4,0 -5,-1 -1,-2 -2,-3 -2,-5 0,-1 1,-4 2,-7 0,-4 3,-15 7,-33l7 0 -7 34c-1,2 -1,4 -1,4 0,2 1,2 3,2 1,0 2,0 2,0l-1 6c-1,0 -3,0 -5,0z"/>
    <path id="14" class="fil1" d="M630 457l-8 0c0,-1 1,-2 1,-3 0,-1 0,-2 0,-3l0 0c-1,2 -2,3 -3,4 -1,1 -2,1 -3,2 -1,0 -3,0 -4,0 -3,0 -5,-1 -7,-3 -1,-2 -2,-5 -2,-8 0,-4 1,-7 2,-11 2,-3 4,-6 7,-7 3,-2 7,-3 11,-3 3,0 7,1 11,2l-4 20c0,1 -1,3 -1,5 0,2 0,4 0,5zm-3 -26c-1,0 -3,0 -4,0 -2,0 -4,0 -6,1 -2,2 -3,3 -4,6 -1,2 -2,5 -2,7 0,2 0,4 1,5 1,1 2,2 4,2 2,0 4,-1 5,-4 2,-2 3,-5 4,-9l2 -8z"/>
    <path id="15" class="fil1" d="M645 471c-3,0 -6,-1 -9,-2l1 -6c3,2 6,3 9,3 3,0 5,-1 7,-3 2,-2 3,-4 4,-8l1 -4 0 0c-2,2 -3,4 -5,5 -1,1 -3,1 -5,1 -3,0 -5,-1 -7,-3 -1,-2 -2,-4 -2,-8 0,-4 1,-7 2,-11 2,-3 4,-5 7,-7 3,-2 6,-3 10,-3 3,0 7,1 12,2l-5 27c-1,4 -3,8 -4,10 -2,2 -4,4 -6,5 -3,2 -6,2 -10,2zm17 -40c-1,0 -3,0 -4,0 -3,0 -5,0 -6,2 -2,1 -3,3 -4,5 -1,2 -2,5 -2,7 0,2 0,4 1,5 1,1 2,2 4,2 1,0 2,-1 4,-2 1,-1 2,-2 3,-4 1,-2 2,-4 2,-7l2 -8z"/>
    <path id="16" class="fil1" d="M702 433c0,4 -2,7 -5,9 -4,1 -9,2 -16,2l0 1 0 0c0,2 1,4 2,5 1,1 3,2 5,2 2,0 3,0 5,-1 2,0 3,-1 5,-2l-1 6c-3,2 -7,2 -10,2 -4,0 -8,-1 -10,-3 -2,-2 -3,-5 -3,-9 0,-4 1,-7 2,-10 2,-3 4,-6 6,-7 3,-2 6,-3 9,-3 4,0 6,1 8,2 2,2 3,4 3,6zm-7 1c0,-1 0,-2 -1,-3 -1,0 -2,-1 -3,-1 -2,0 -4,1 -6,3 -2,2 -3,4 -3,6 8,0 13,-1 13,-5z"/>
    <path id="17" class="fil1" d="M755 433c0,1 -1,3 -1,6l-4 18 -7 0 4 -18c0,-2 0,-4 0,-4 0,-3 -1,-4 -3,-4 -2,0 -4,1 -6,3 -2,3 -4,5 -4,8l-3 15 -8 0 4 -18c1,-2 1,-4 1,-4 0,-3 -1,-4 -4,-4 -1,0 -2,0 -4,1 -1,2 -2,3 -4,5 -1,1 -1,3 -2,5l-3 15 -7 0 4 -22c1,-3 2,-6 2,-9l7 0c0,2 0,4 -1,7l0 0c2,-3 4,-5 6,-6 2,-1 4,-2 6,-2 4,0 7,3 7,8 2,-3 4,-5 6,-6 2,-1 4,-2 6,-2 3,0 4,1 6,2 1,2 2,4 2,6z"/>
   </g>
   <g>
    <g>
     <circle class="fil2 str0" cx="93" cy="202" r="66"/>
     <path class="fil2 str0" d="M88 110l0 0 11 0 0 0 11 28c-8,-2 -24,-3 -34,0l12 -28z"/>
     <path class="fil2 str0" d="M24 141l0 0 8 -8 0 0 28 12c-7,4 -19,15 -24,24l-12 -28z"/>
     <path class="fil2 str0" d="M154 133l0 0 8 8 0 0 -12 28c-4,-7 -15,-19 -24,-24l28 -12z"/>
     <path class="fil2 str0" d="M186 196l0 0 0 12 0 0 -28 11c2,-8 3,-24 -1,-34l29 11z"/>
     <path class="fil2 str0" d="M1 208l0 0 -1 -11 0 0 29 -12c-3,8 -3,25 0,34l-28 -11z"/>
     <path class="fil2 str0" d="M32 272l0 0 -8 -8 0 0 12 -28c4,7 15,19 24,24l-28 12z"/>
     <path class="fil2 str0" d="M98 295l0 0 -11 0 0 0 -11 -28c8,2 24,3 34,0l-12 28z"/>
     <path class="fil2 str0" d="M162 264l0 0 -7 8 0 0 -28 -12c7,-4 19,-15 24,-24l11 28z"/>
    </g>
    <g>
     <circle class="fil3 str1" cx="96" cy="203" r="66"/>
     <path class="fil3 str1" d="M91 110l0 0 11 0 0 0 11 29c-8,-3 -24,-3 -34,0l12 -29z"/>
     <path class="fil3 str1" d="M27 141l0 0 8 -8 0 0 28 12c-7,4 -19,15 -24,25l-12 -29z"/>
     <path class="fil3 str1" d="M157 133l0 0 8 8 0 0 -11 28c-5,-7 -15,-19 -25,-24l28 -12z"/>
     <path class="fil3 str1" d="M189 197l0 0 0 11 0 0 -28 12c2,-8 3,-25 0,-34l28 11z"/>
     <path class="fil3 str1" d="M4 209l0 0 0 -12 0 0 28 -11c-3,8 -3,24 0,34l-28 -11z"/>
     <path class="fil3 str1" d="M35 272l0 0 -8 -8 0 0 12 -28c4,8 15,19 24,24l-28 12z"/>
     <path class="fil3 str1" d="M102 295l0 0 -12 0 0 0 -11 -28c8,3 24,3 34,0l-11 28z"/>
     <path class="fil3 str1" d="M166 265l0 0 -8 8 0 0 -28 -12c7,-4 19,-15 24,-24l12 28z"/>
    </g>
    <circle class="fil4 str2" cx="96" cy="203" r="59"/>
    <circle class="fil2 str3" cx="95" cy="203" r="12"/>
    <circle class="fil3 str4" cx="97" cy="204" r="12"/>
    <path class="fil2 str0" d="M69 192l12 0 -18 24 -11 -24 12 -1c10,-39 49,-30 60,-16 3,3 -2,5 -3,4 -14,-16 -48,-16 -52,13z"/>
    <path class="fil5 str5" d="M68 190l11 0 -17 24 -11 -24 12 -1c9,-39 48,-30 60,-16 2,3 -2,5 -3,4 -15,-16 -48,-16 -52,13z"/>
   </g>
   <g>
    <g>
     <circle class="fil2 str0" transform="matrix(2.25497 -0.900758 0.90076 2.25498 490.418 140.855)" r="29"/>
     <path class="fil2 str0" d="M449 53l0 0 11 -4 0 0 22 23c-9,1 -25,6 -33,13l0 -32z"/>
     <path class="fil2 str0" d="M399 108l0 0 5 -11 0 0 32 1c-6,7 -13,22 -14,33l-23 -23z"/>
     <path class="fil2 str0" d="M523 50l0 0 11 4 0 0 -1 32c-7,-5 -22,-13 -33,-14l23 -22z"/>
     <path class="fil2 str0" d="M578 99l0 0 5 11 0 0 -23 22c-1,-8 -7,-24 -14,-33l32 0z"/>
     <path class="fil2 str0" d="M403 183l0 0 -5 -11 0 0 23 -23c1,9 7,25 14,34l-32 0z"/>
     <path class="fil2 str0" d="M458 232l0 0 -11 -4 0 0 1 -32c6,5 22,13 33,14l-23 22z"/>
     <path class="fil2 str0" d="M532 229l0 0 -11 5 0 0 -22 -24c8,0 25,-6 33,-13l0 32z"/>
     <path class="fil2 str0" d="M582 174l0 0 -4 11 0 0 -32 0c5,-7 13,-23 14,-33l22 22z"/>
    </g>
    <g>
     <circle class="fil3 str6" transform="matrix(2.25497 -0.900758 0.90076 2.25498 493.725 140.068)" r="29"/>
     <path class="fil3 str6" d="M452 52l0 0 11 -4 0 0 22 23c-8,1 -24,7 -33,13l0 -32z"/>
     <path class="fil3 str6" d="M403 107l0 0 4 -11 0 0 32 1c-5,7 -13,22 -14,33l-22 -23z"/>
     <path class="fil3 str6" d="M526 49l0 0 11 4 0 0 0 32c-7,-5 -23,-13 -33,-14l22 -22z"/>
     <path class="fil3 str6" d="M582 98l0 0 4 11 0 0 -23 23c-1,-9 -6,-25 -13,-34l32 0z"/>
     <path class="fil3 str6" d="M406 182l0 0 -5 -11 0 0 23 -22c1,8 7,24 14,33l-32 0z"/>
     <path class="fil3 str6" d="M461 232l0 0 -11 -5 0 0 1 -32c7,6 22,13 33,14l-23 23z"/>
     <path class="fil3 str6" d="M535 228l0 0 -11 5 0 0 -22 -23c9,-1 25,-7 33,-14l0 32z"/>
     <path class="fil3 str6" d="M586 174l0 0 -5 11 0 0 -32 -1c6,-7 13,-22 14,-33l23 23z"/>
    </g>
    <circle class="fil6 str7" transform="matrix(3.33232 -1.33111 1.33111 3.33232 493.848 140.327)" r="17"/>
    <circle class="fil2 str3" transform="matrix(2.27996 -0.910738 0.91074 2.27996 492.915 141.35)" r="5"/>
    <circle class="fil3 str4" transform="matrix(2.27996 -0.910738 0.91074 2.27996 494.924 140.591)" r="5"/>
    <g>
     <path class="fil2 str0" d="M523 116l-12 3 23 20 6 -27 -12 2c-18,-39 -57,-21 -65,-4 -2,4 3,5 3,4 12,-20 46,-27 57,2z"/>
     <path class="fil3 str1" d="M521 115l-12 3 23 20 6 -27 -13 2c-18,-39 -56,-21 -65,-4 -1,4 3,5 4,4 12,-20 46,-27 57,2z"/>
    </g>
   </g>
   <g>
    <g>
     <circle class="fil2 str0" transform="matrix(-2.25514 -0.898095 -0.89808 2.25518 350.6 238.572)" r="29"/>
     <path class="fil2 str0" d="M392 151l0 0 -11 -5 0 0 -22 24c9,0 25,6 33,13l0 -32z"/>
     <path class="fil2 str0" d="M442 206l0 0 -5 -11 0 0 -32 1c6,6 13,22 14,33l23 -23z"/>
     <path class="fil2 str0" d="M318 147l0 0 -11 5 0 0 1 32c7,-6 22,-13 33,-14l-23 -23z"/>
     <path class="fil2 str0" d="M263 197l0 0 -5 11 0 0 23 22c1,-9 7,-25 14,-33l-32 0z"/>
     <path class="fil2 str0" d="M438 280l0 0 5 -11 0 0 -23 -22c-1,9 -7,25 -14,33l32 0z"/>
     <path class="fil2 str0" d="M383 330l0 0 11 -5 0 0 -1 -31c-6,5 -22,12 -33,13l23 23z"/>
     <path class="fil2 str0" d="M309 327l0 0 11 4 0 0 22 -23c-8,-1 -24,-6 -33,-13l0 32z"/>
     <path class="fil2 str0" d="M259 272l0 0 4 11 0 0 32 -1c-5,-6 -13,-22 -14,-33l-22 23z"/>
    </g>
    <g>
     <circle class="fil5 str5" transform="matrix(-2.25514 -0.898095 -0.89808 2.25518 347.293 237.788)" r="29"/>
     <path class="fil5 str5" d="M388 150l0 0 -11 -4 0 0 -22 23c9,1 25,6 34,13l-1 -32z"/>
     <path class="fil5 str5" d="M438 205l0 0 -4 -11 0 0 -32 1c5,7 13,22 14,33l22 -23z"/>
     <path class="fil5 str5" d="M315 147l0 0 -11 4 0 0 0 32c7,-5 23,-13 33,-14l-22 -22z"/>
     <path class="fil5 str5" d="M259 196l0 0 -4 11 0 0 23 22c1,-8 6,-24 13,-33l-32 0z"/>
     <path class="fil5 str5" d="M435 280l0 0 5 -11 0 0 -23 -23c-1,9 -7,25 -14,34l32 0z"/>
     <path class="fil5 str5" d="M380 329l0 0 11 -4 0 0 -1 -32c-7,5 -22,13 -33,14l23 22z"/>
     <path class="fil5 str5" d="M306 326l0 0 11 5 0 0 22 -24c-9,0 -25,-6 -33,-13l0 32z"/>
     <path class="fil5 str5" d="M256 271l0 0 4 11 0 0 32 0c-6,-7 -13,-23 -14,-33l-22 22z"/>
    </g>
    <circle class="fil5 str2" transform="matrix(-3.17972 -1.2663 -1.26628 3.17977 347.171 238.047)" r="17"/>
    <g>
     <path class="fil2 str0" d="M325 222l12 5 -27 16 -1 -28 12 4c24,-35 59,-10 65,8 1,3 -4,4 -5,2 -8,-21 -40,-34 -56,-7z"/>
     <path class="fil3 str1" d="M324 220l12 4 -26 17 -2 -28 12 4c24,-35 59,-11 65,8 1,3 -4,3 -4,2 -9,-21 -41,-34 -57,-7z"/>
    </g>
   </g>
   <g>
    <g>
     <circle class="fil2 str0" transform="matrix(1.94163 1.3147 -1.31468 1.94167 621.345 248.975)" r="29"/>
     <path class="fil2 str0" d="M669 168l0 0 10 7 0 0 -7 30c-5,-7 -19,-16 -29,-19l26 -18z"/>
     <path class="fil2 str0" d="M598 158l0 0 11 -2 0 0 17 26c-8,-1 -25,2 -34,7l6 -31z"/>
     <path class="fil2 str0" d="M712 226l0 0 2 11 0 0 -26 17c1,-9 -1,-25 -6,-34l30 6z"/>
     <path class="fil2 str0" d="M702 297l0 0 -6 9 0 0 -30 -6c6,-5 16,-19 19,-29l17 26z"/>
     <path class="fil2 str0" d="M540 201l0 0 7 -9 0 0 30 6c-7,6 -16,19 -19,29l-18 -26z"/>
     <path class="fil2 str0" d="M531 273l0 0 -3 -11 0 0 26 -17c-1,8 2,24 7,34l-30 -6z"/>
     <path class="fil2 str0" d="M573 330l0 0 -9 -7 0 0 6 -30c6,7 19,17 29,20l-26 17z"/>
     <path class="fil2 str0" d="M644 341l0 0 -11 2 0 0 -17 -26c9,1 25,-2 34,-7l-6 31z"/>
    </g>
    <g>
     <circle class="fil7 str8" transform="matrix(1.94163 1.3147 -1.31468 1.94167 623.766 251.193)" r="29"/>
     <path class="fil7 str8" d="M672 171l0 0 9 6 0 0 -7 30c-5,-6 -18,-16 -28,-19l26 -17z"/>
     <path class="fil7 str8" d="M601 161l0 0 11 -3 0 0 16 26c-8,0 -24,2 -34,7l7 -30z"/>
     <path class="fil7 str8" d="M714 228l0 0 3 11 0 0 -26 17c0,-9 -2,-25 -7,-34l30 6z"/>
     <path class="fil7 str8" d="M705 299l0 0 -7 10 0 0 -30 -7c7,-5 16,-19 19,-29l18 26z"/>
     <path class="fil7 str8" d="M543 204l0 0 6 -10 0 0 30 6c-6,6 -16,19 -19,29l-17 -25z"/>
     <path class="fil7 str8" d="M533 275l0 0 -2 -11 0 0 26 -17c-1,8 1,25 6,34l-30 -6z"/>
     <path class="fil7 str8" d="M576 332l0 0 -10 -6 0 0 7 -30c5,6 18,16 28,19l-25 17z"/>
     <path class="fil7 str8" d="M647 343l0 0 -12 2 0 0 -16 -26c8,1 24,-2 34,-7l-6 31z"/>
    </g>
    <circle class="fil7 str2" transform="matrix(2.86927 1.94282 -1.94279 2.86933 623.625 251.431)" r="17"/>
    <circle class="fil2 str3" transform="matrix(1.96314 1.32927 -1.32925 1.96318 622.302 251.239)" r="5"/>
    <circle class="fil4 str2" transform="matrix(1.96314 1.32927 -1.32925 1.96318 623.997 252.434)" r="5"/>
    <g>
     <path class="fil2 str0" d="M592 254l10 -7 -1 30 -23 -14 9 -7c-14,-39 24,-53 42,-48 3,1 1,5 -1,5 -21,-5 -49,14 -36,41z"/>
     <path class="fil3 str1" d="M590 253l9 -6 -1 30 -23 -14 10 -8c-15,-38 24,-53 41,-47 3,1 1,5 0,5 -22,-5 -50,13 -36,40z"/>
    </g>
   </g>
   <path class="fil8" d="M402 39c0,0 0,1 -1,2 0,0 0,1 0,1 -1,0 -1,1 -1,1 -1,0 -1,0 -2,1 0,0 -1,0 -2,0 0,0 -1,0 -1,0l-5 0c0,0 -1,0 -1,0 0,0 0,-1 0,-1l0 -15c0,-1 0,-1 0,-1 0,0 1,-1 1,-1l4 0c1,0 2,1 3,1 1,0 1,0 2,1 0,0 1,0 1,1 0,1 1,1 1,2 0,0 -1,1 -1,1 0,1 0,1 0,1 0,1 -1,1 -1,1 0,0 -1,0 -1,1 1,0 1,0 1,0 1,0 1,1 2,1 0,0 0,1 0,1 1,1 1,1 1,2zm-5 -8c0,0 0,0 0,-1 0,0 0,0 -1,0 0,0 0,-1 -1,-1 0,0 0,0 -1,0l-2 0 0 5 2 0c1,0 1,0 2,0 0,-1 0,-1 0,-1 1,0 1,0 1,-1 0,0 0,0 0,-1zm1 8c0,0 0,-1 0,-1 0,0 -1,-1 -1,-1 0,0 -1,0 -1,0 0,-1 -1,-1 -2,-1l-2 0 0 5 3 0c0,0 1,0 1,0 1,0 1,0 1,0 0,0 1,-1 1,-1 0,0 0,-1 0,-1z"/>
   <path id="1" class="fil8" d="M415 43c0,0 0,0 0,0 0,1 0,1 0,1 0,0 0,0 0,0 0,0 0,0 -1,0l-8 0c-1,0 -1,0 -1,0 0,0 -1,-1 -1,-1l0 -15c0,-1 1,-1 1,-1 0,0 0,-1 1,-1l8 0c0,0 1,0 1,1 0,0 0,0 0,0 0,0 0,0 0,0 0,0 0,1 0,1 0,0 0,0 0,1 0,0 0,0 0,0 0,0 0,0 0,0 0,0 -1,0 -1,0l-6 0 0 5 5 0c0,0 1,0 1,0 0,0 0,0 0,0 0,0 0,0 0,0 0,1 0,1 0,1 0,0 0,0 0,1 0,0 0,0 0,0 0,0 0,0 0,0 0,0 -1,0 -1,0l-5 0 0 5 6 0c1,0 1,0 1,0 0,0 0,1 0,1 0,0 0,0 0,0 0,0 0,0 0,1z"/>
   <path id="2" class="fil8" d="M433 43c0,0 0,0 0,0 0,1 -1,1 -1,1 0,0 0,0 0,0 0,0 0,0 -1,0l-1 0c0,0 -1,0 -1,0 0,0 0,0 -1,0 0,0 0,-1 0,-1 0,0 -1,-1 -1,-1l-4 -8c0,-1 -1,-1 -1,-2 0,0 0,-1 -1,-2l0 0c0,1 0,2 0,2 0,1 0,2 0,2l0 10c0,0 0,0 0,0 0,0 0,0 0,0 0,0 0,0 0,0 -1,0 -1,0 -1,0 -1,0 -1,0 -1,0 0,0 0,0 -1,0 0,0 0,0 0,0 0,0 0,0 0,0l0 -16c0,-1 0,-1 1,-1 0,0 0,-1 0,-1l2 0c1,0 1,0 1,1 1,0 1,0 1,0 0,0 0,0 0,0 1,1 1,1 1,1l3 7c1,0 1,1 1,1 0,0 0,1 1,1 0,0 0,1 0,1 0,1 0,1 1,1l0 0c0,0 0,-1 0,-2 0,0 0,-1 0,-2l0 -8c0,0 0,0 0,0 0,0 0,0 0,0 0,-1 0,-1 0,-1 1,0 1,0 1,0 0,0 1,0 1,0 0,0 0,0 0,1 1,0 1,0 1,0 0,0 0,0 0,0l0 16z"/>
   <path id="3" class="fil8" d="M447 43c0,0 0,0 0,0 0,1 0,1 0,1 0,0 0,0 0,0 0,0 0,0 0,0l-9 0c-1,0 -1,0 -1,0 0,0 0,-1 0,-1l0 -15c0,-1 0,-1 0,-1 0,0 0,-1 1,-1l9 0c0,0 0,0 0,1 0,0 0,0 0,0 0,0 0,0 0,0 0,0 0,1 0,1 0,0 0,0 0,1 0,0 0,0 0,0 0,0 0,0 0,0 0,0 0,0 0,0l-7 0 0 5 6 0c0,0 0,0 0,0 0,0 0,0 0,0 0,0 0,0 0,0 0,1 0,1 0,1 0,0 0,0 0,1 0,0 0,0 0,0 0,0 0,0 0,0 0,0 0,0 0,0l-6 0 0 5 7 0c0,0 0,0 0,0 0,0 0,1 0,1 0,0 0,0 0,0 0,0 0,0 0,1z"/>
   <path id="4" class="fil8" d="M460 28c0,0 0,0 0,1 0,0 0,0 0,0 0,0 0,0 0,0 0,0 0,0 0,0l-6 0 0 5 5 0c0,0 0,0 1,0 0,0 0,0 0,0 0,1 0,1 0,1 0,0 0,0 0,1 0,0 0,0 0,0 0,0 0,1 0,1 0,0 0,0 0,0 -1,0 -1,0 -1,0l-5 0 0 7c0,0 0,0 0,0 0,0 0,0 0,0 -1,0 -1,0 -1,0 0,0 -1,0 -1,0 0,0 -1,0 -1,0 0,0 0,0 0,0 0,0 -1,0 -1,0 0,0 0,0 0,0l0 -16c0,-1 0,-1 1,-1 0,0 0,-1 0,-1l9 0c0,0 0,0 0,1 0,0 0,0 0,0 0,0 0,0 0,0 0,0 0,1 0,1z"/>
   <path id="5" class="fil8" d="M467 44c0,0 0,0 0,0 0,0 -1,0 -1,0 0,0 0,0 0,0 0,0 -1,0 -1,0 0,0 -1,0 -1,0 0,0 0,0 0,0 -1,0 -1,0 -1,0 0,0 0,0 0,0l0 -17c0,0 0,0 0,0 0,0 0,0 1,0 0,-1 0,-1 0,-1 0,0 1,0 1,0 0,0 1,0 1,0 0,0 0,0 0,1 0,0 1,0 1,0 0,0 0,0 0,0l0 17z"/>
   <path id="6" class="fil8" d="M483 41c0,1 0,1 0,1 0,0 0,0 0,0 0,1 0,1 0,1 0,0 0,0 -1,0 0,0 0,0 0,0 0,1 -1,1 -1,1 -1,0 -1,0 -2,0 0,0 -1,0 -1,0 -2,0 -3,0 -4,0 -1,0 -1,-1 -2,-2 -1,-1 -1,-1 -2,-3 0,-1 0,-2 0,-3 0,-2 0,-3 0,-4 1,-2 1,-3 2,-3 1,-1 2,-2 3,-2 1,-1 2,-1 3,-1 0,0 1,0 1,0 1,0 1,0 2,1 0,0 0,0 1,0 0,0 0,0 0,1 0,0 1,0 1,0 0,0 0,0 0,0 0,0 0,0 0,1 0,0 0,0 0,0 0,1 0,1 0,1 0,0 0,0 0,0 0,1 0,1 -1,1 0,0 0,0 0,0 0,0 0,0 0,0 0,-1 -1,-1 -1,-1 0,0 -1,0 -1,-1 -1,0 -1,0 -2,0 -1,0 -1,0 -2,1 0,0 -1,0 -1,1 -1,0 -1,1 -1,2 0,1 0,1 0,2 0,1 0,2 0,3 0,1 0,1 1,2 0,0 1,1 1,1 1,0 2,0 2,0 1,0 1,0 2,0 0,0 1,0 1,0 0,-1 1,-1 1,-1 0,0 0,0 0,0 0,0 1,0 1,0 0,0 0,0 0,0 0,0 0,0 0,1 0,0 0,0 0,0z"/>
   <path id="7" class="fil8" d="M489 44c0,0 0,0 0,0 0,0 0,0 0,0 0,0 -1,0 -1,0 0,0 0,0 -1,0 0,0 0,0 -1,0 0,0 0,0 0,0 0,0 0,0 0,0 -1,0 -1,0 -1,0l0 -17c0,0 0,0 1,0 0,0 0,0 0,0 0,-1 0,-1 0,-1 1,0 1,0 1,0 1,0 1,0 1,0 0,0 1,0 1,1 0,0 0,0 0,0 0,0 0,0 0,0l0 17z"/>
   <path id="8" class="fil8" d="M507 43c0,0 1,0 1,1 0,0 0,0 -1,0 0,0 0,0 0,0 0,0 -1,0 -1,0 -1,0 -1,0 -1,0 0,0 -1,0 -1,0 0,0 0,0 0,0 0,0 0,0 0,0l-1 -4 -7 0 -1 4c0,0 0,0 0,0 0,0 0,0 -1,0 0,0 0,0 0,0 0,0 -1,0 -1,0 -1,0 -1,0 -1,0 0,0 0,0 -1,0 0,0 0,0 0,0 0,-1 0,-1 1,-1l5 -16c0,0 0,0 0,0 0,0 0,0 1,-1 0,0 0,0 0,0 0,0 1,0 1,0 1,0 1,0 2,0 0,0 0,0 0,0 1,1 1,1 1,1 0,0 0,0 0,0l5 16zm-8 -13l0 0 -2 7 5 0 -3 -7z"/>
   <path id="9" class="fil8" d="M530 44c0,0 0,0 0,0 0,0 0,0 0,0 0,0 0,0 0,0 -1,0 -1,0 -1,0 -1,0 -1,0 -1,0 0,0 0,0 -1,0 0,0 0,0 0,0 0,0 0,0 0,0l0 -15 0 0 -5 15c0,0 0,0 0,0 0,0 0,0 -1,0 0,0 0,0 0,0 0,0 -1,0 -1,0 0,0 -1,0 -1,0 0,0 0,0 0,0 0,0 -1,0 -1,0 0,0 0,0 0,0l-5 -15 0 0 0 15c0,0 0,0 0,0 0,0 0,0 0,0 0,0 0,0 -1,0 0,0 0,0 0,0 -1,0 -1,0 -1,0 0,0 -1,0 -1,0 0,0 0,0 0,0 0,0 0,0 0,0l0 -16c0,-1 0,-1 0,-1 0,0 1,-1 1,-1l3 0c0,0 0,0 1,1 0,0 0,0 0,0 1,0 1,0 1,1 0,0 0,0 0,1l4 10 0 0 4 -10c0,-1 0,-1 1,-1 0,-1 0,-1 0,-1 0,0 0,0 1,0 0,-1 0,-1 1,-1l2 0c0,0 0,0 1,1 0,0 0,0 0,0 0,0 0,0 0,0 0,0 0,1 0,1l0 16z"/>
   <path id="10" class="fil8" d="M545 43c0,0 0,0 0,0 0,1 0,1 0,1 0,0 0,0 -1,0 0,0 0,0 0,0l-9 0c0,0 0,0 0,0 -1,0 -1,-1 -1,-1l0 -15c0,-1 0,-1 1,-1 0,0 0,-1 0,-1l9 0c0,0 0,0 0,1 1,0 1,0 1,0 0,0 0,0 0,0 0,0 0,1 0,1 0,0 0,0 0,1 0,0 0,0 0,0 0,0 0,0 -1,0 0,0 0,0 0,0l-6 0 0 5 5 0c0,0 0,0 0,0 1,0 1,0 1,0 0,0 0,0 0,0 0,1 0,1 0,1 0,0 0,0 0,1 0,0 0,0 0,0 0,0 0,0 -1,0 0,0 0,0 0,0l-5 0 0 5 6 0c0,0 0,0 0,0 1,0 1,1 1,1 0,0 0,0 0,0 0,0 0,0 0,1z"/>
   <path id="11" class="fil8" d="M563 43c0,0 0,0 -1,0 0,1 0,1 0,1 0,0 0,0 0,0 0,0 -1,0 -1,0l-1 0c-1,0 -1,0 -1,0 0,0 -1,0 -1,0 0,0 0,-1 0,-1 -1,0 -1,-1 -1,-1l-4 -8c-1,-1 -1,-1 -1,-2 0,0 -1,-1 -1,-2l0 0c0,1 0,2 0,2 0,1 0,2 0,2l0 10c0,0 0,0 0,0 0,0 0,0 0,0 0,0 0,0 -1,0 0,0 0,0 0,0 -1,0 -1,0 -1,0 0,0 -1,0 -1,0 0,0 0,0 0,0 0,0 0,0 0,0l0 -16c0,-1 0,-1 0,-1 1,0 1,-1 1,-1l2 0c1,0 1,0 1,1 0,0 1,0 1,0 0,0 0,0 0,0 0,1 1,1 1,1l3 7c0,0 1,1 1,1 0,0 0,1 0,1 1,0 1,1 1,1 0,1 0,1 0,1l0 0c0,0 0,-1 0,-2 0,0 0,-1 0,-2l0 -8c0,0 0,0 0,0 0,0 1,0 1,0 0,-1 0,-1 0,-1 0,0 1,0 1,0 0,0 1,0 1,0 0,0 0,0 0,1 0,0 0,0 1,0 0,0 0,0 0,0l0 16z"/>
   <path id="12" class="fil8" d="M578 28c0,0 0,0 0,1 0,0 0,0 0,0 0,0 0,0 0,0 0,0 0,0 0,0l-5 0 0 15c0,0 0,0 0,0 0,0 0,0 0,0 0,0 0,0 -1,0 0,0 0,0 -1,0 0,0 0,0 0,0 -1,0 -1,0 -1,0 0,0 0,0 0,0 0,0 0,0 0,0l0 -15 -5 0c0,0 0,0 0,0 0,0 0,0 0,0 0,0 0,0 0,0 0,-1 0,-1 0,-1 0,0 0,-1 0,-1 0,0 0,0 0,0 0,0 0,0 0,0 0,-1 0,-1 0,-1l13 0c0,0 0,0 0,1 0,0 0,0 0,0 0,0 0,0 0,0 0,0 0,1 0,1z"/>
   <path id="13" class="fil8" d="M595 35c0,2 0,3 0,4 0,1 -1,2 -2,3 0,1 -1,1 -2,2 -1,0 -3,0 -4,0 -1,0 -3,0 -4,0 -1,0 -2,-1 -2,-2 -1,0 -1,-1 -2,-3 0,-1 0,-2 0,-4 0,-1 0,-2 0,-3 1,-2 1,-3 2,-3 1,-1 2,-2 3,-2 1,-1 2,-1 3,-1 2,0 3,0 4,1 1,0 2,1 2,1 1,1 2,2 2,3 0,1 0,3 0,4zm-3 0c0,-1 0,-1 -1,-2 0,-1 0,-2 0,-2 -1,-1 -1,-1 -2,-1 0,-1 -1,-1 -2,-1 -1,0 -1,0 -2,1 -1,0 -1,0 -2,1 0,0 0,1 0,2 0,1 -1,1 -1,2 0,1 1,2 1,3 0,1 0,1 0,2 1,0 1,1 2,1 0,0 1,1 2,1 1,0 2,-1 2,-1 1,0 1,-1 2,-1 0,-1 0,-2 0,-2 1,-1 1,-2 1,-3z"/>
   <g>
    <g>
     <circle class="fil2 str0" transform="matrix(2.26605 -0.717391 0.717395 2.26604 775.88 174.233)" r="29"/>
     <path class="fil2 str0" d="M742 86l0 0 11 -4 0 0 20 24c-9,0 -25,5 -34,11l3 -31z"/>
     <path class="fil2 str0" d="M689 136l0 0 6 -11 0 0 31 3c-6,7 -15,21 -17,32l-20 -24z"/>
     <path class="fil2 str0" d="M814 87l0 0 11 6 0 0 -3 31c-7,-6 -21,-14 -32,-16l24 -21z"/>
     <path class="fil2 str0" d="M865 140l0 0 3 11 0 0 -24 20c0,-9 -4,-25 -10,-33l31 2z"/>
     <path class="fil2 str0" d="M687 209l0 0 -4 -11 0 0 24 -20c1,8 5,24 11,33l-31 -2z"/>
     <path class="fil2 str0" d="M738 261l0 0 -11 -5 0 0 3 -31c6,6 21,14 31,16l-23 20z"/>
     <path class="fil2 str0" d="M810 263l0 0 -11 4 0 0 -20 -24c9,0 25,-5 33,-11l-2 31z"/>
     <path class="fil2 str0" d="M863 214l0 0 -5 10 0 0 -31 -3c6,-6 14,-21 16,-31l20 24z"/>
    </g>
    <g>
     <circle class="fil4 str9" transform="matrix(2.26605 -0.717391 0.717395 2.26604 779.165 173.702)" r="29"/>
     <path class="fil6 str9" d="M745 85l0 0 11 -3 0 0 20 24c-9,0 -25,4 -33,10l2 -31z"/>
     <path class="fil6 str9" d="M693 135l0 0 5 -10 0 0 31 3c-6,6 -14,21 -16,31l-20 -24z"/>
     <path class="fil6 str9" d="M818 87l0 0 10 5 0 0 -3 31c-6,-6 -21,-14 -31,-16l24 -20z"/>
     <path class="fil6 str9" d="M868 139l0 0 4 11 0 0 -24 20c-1,-8 -5,-24 -11,-33l31 2z"/>
     <path class="fil6 str9" d="M690 208l0 0 -3 -11 0 0 24 -20c0,9 4,25 11,34l-32 -3z"/>
     <path class="fil6 str9" d="M741 261l0 0 -10 -6 0 0 2 -31c7,6 21,14 32,16l-24 21z"/>
     <path class="fil6 str9" d="M813 263l0 0 -11 3 0 0 -20 -24c9,0 25,-4 34,-10l-3 31z"/>
     <path class="fil6 str9" d="M866 213l0 0 -5 10 0 0 -31 -3c6,-6 14,-20 16,-31l20 24z"/>
    </g>
    <circle class="fil6 str7" transform="matrix(3.34868 -1.06013 1.06014 3.34868 779.266 173.964)" r="17"/>
    <circle class="fil2 str3" transform="matrix(2.29115 -0.725339 0.725344 2.29115 778.282 174.895)" r="5"/>
    <circle class="fil4 str2" transform="matrix(2.29115 -0.725339 0.725344 2.29115 780.297 174.299)" r="5"/>
    <g>
     <path class="fil2 str0" d="M803 152l-12 3 25 18 3 -27 -12 3c-21,-36 -57,-14 -63,3 -2,3 3,4 4,3 9,-20 42,-31 55,-3z"/>
     <path class="fil3 str1" d="M804 149l-12 4 25 18 3 -27 -12 3c-21,-36 -57,-15 -63,3 -2,3 3,4 4,3 9,-21 42,-31 55,-4z"/>
    </g>
   </g>
   <path class="fil8" d="M309 345c0,0 0,0 0,1 0,0 0,0 -1,0 0,0 0,0 0,0 0,0 0,0 0,0l-4 0 0 15c0,0 0,0 0,0 -1,0 -1,0 -1,0 0,0 0,0 0,0 -1,0 -1,0 -1,0 -1,0 -1,0 -1,0 0,0 0,0 -1,0 0,0 0,0 0,0 0,0 0,0 0,0l0 -15 -4 0c0,0 -1,0 -1,0 0,0 0,0 0,0 0,0 0,0 0,0 0,-1 0,-1 0,-1 0,0 0,-1 0,-1 0,0 0,0 0,0 0,0 0,0 0,-1 0,0 1,0 1,0l12 0c0,0 0,0 0,0 0,1 0,1 0,1 1,0 1,0 1,0 0,0 0,1 0,1z"/>
   <path id="1" class="fil8" d="M324 361c0,0 0,0 0,0 0,0 0,0 0,0 -1,0 -1,0 -1,0 0,0 -1,0 -1,0 -1,0 -1,0 -1,0 0,0 0,0 -1,0 0,0 0,0 0,0 0,0 0,0 0,0l-2 -4c0,-1 0,-1 0,-2 0,0 -1,0 -1,0 0,-1 0,-1 -1,-1 0,0 0,0 -1,0l-1 0 0 7c0,0 0,0 0,0 0,0 0,0 0,0 0,0 0,0 -1,0 0,0 0,0 -1,0 0,0 0,0 0,0 -1,0 -1,0 -1,0 0,0 0,0 0,0 0,0 0,0 0,0l0 -16c0,-1 0,-1 0,-1 0,-1 0,-1 1,-1l4 0c1,0 1,0 1,0 1,0 1,0 1,0 1,1 2,1 2,1 1,0 1,1 2,1 0,0 0,1 1,1 0,1 0,2 0,2 0,1 0,1 0,2 0,0 -1,1 -1,1 0,1 -1,1 -1,1 0,0 -1,1 -2,1 1,0 1,0 1,0 0,0 1,1 1,1 0,0 0,1 0,1 1,0 1,1 1,1l1 3c1,1 1,1 1,1 0,0 0,1 0,1zm-5 -12c0,-1 0,-1 0,-2 0,0 -1,-1 -2,-1 0,0 0,0 0,0 0,0 -1,0 -1,0l-2 0 0 5 2 0c1,0 1,0 1,0 1,0 1,0 1,-1 1,0 1,0 1,0 0,-1 0,-1 0,-1z"/>
   <path id="2" class="fil8" d="M330 361c0,0 0,0 0,0 0,0 0,0 0,0 0,0 -1,0 -1,0 0,0 0,0 -1,0 0,0 0,0 -1,0 0,0 0,0 0,0 0,0 0,0 0,0 -1,0 -1,0 -1,0l0 -17c0,0 0,0 1,0 0,0 0,0 0,-1 0,0 0,0 0,0 1,0 1,0 1,0 1,0 1,0 1,0 0,0 1,0 1,0 0,1 0,1 0,1 0,0 0,0 0,0l0 17z"/>
   <path id="3" class="fil8" d="M348 360c1,0 1,0 1,1 0,0 0,0 0,0 -1,0 -1,0 -1,0 0,0 -1,0 -1,0 -1,0 -1,0 -1,0 0,0 -1,0 -1,0 0,0 0,0 0,0 0,0 0,0 0,0l-1 -4 -7 0 -1 4c0,0 0,0 0,0 0,0 0,0 -1,0 0,0 0,0 0,0 0,0 -1,0 -1,0 0,0 -1,0 -1,0 0,0 0,0 -1,0 0,0 0,0 0,-1 0,0 0,0 1,0l5 -16c0,0 0,0 0,0 0,0 0,-1 1,-1 0,0 0,0 0,0 1,0 1,0 1,0 1,0 1,0 2,0 0,0 0,0 0,0 1,0 1,1 1,1 0,0 0,0 0,0l5 16zm-8 -13l0 0 -2 7 5 0 -3 -7z"/>
   <path id="4" class="fil8" d="M365 346c0,0 0,1 0,1 0,0 0,0 0,0 0,0 0,0 -1,1 0,0 0,0 0,0 0,0 0,0 0,-1 -1,0 -1,0 -1,0 -1,0 -1,-1 -2,-1 -1,0 -1,0 -2,0 -1,0 -2,0 -2,0 -1,1 -2,1 -2,2 -1,0 -1,1 -1,2 -1,0 -1,1 -1,2 0,1 0,2 1,3 0,1 0,1 1,2 0,0 1,1 2,1 0,0 1,0 2,0 0,0 1,0 1,0 0,0 1,0 1,0l0 -4 -3 0c0,0 0,0 -1,-1 0,0 0,0 0,-1 0,0 0,0 0,0 0,0 0,-1 0,-1 0,0 1,0 1,0 0,0 0,0 0,0l6 0c0,0 0,0 0,0 0,0 0,0 0,0 1,0 1,1 1,1 0,0 0,0 0,0l0 7c0,0 0,1 0,1 -1,0 -1,0 -1,0 0,1 -1,1 -1,1 -1,0 -1,0 -1,0 -1,0 -1,0 -2,0 0,0 -1,0 -1,0 -2,0 -3,0 -4,0 -1,-1 -2,-1 -3,-2 -1,-1 -1,-2 -2,-3 0,-1 0,-2 0,-4 0,-1 0,-2 0,-3 1,-2 1,-3 2,-3 1,-1 2,-2 3,-2 1,-1 2,-1 4,-1 1,0 1,0 2,0 1,0 1,0 2,1 0,0 0,0 1,0 0,0 0,0 0,1 1,0 1,0 1,0 0,0 0,1 0,1z"/>
   <path id="5" class="fil8" d="M379 360c0,0 0,0 0,0 0,1 0,1 0,1 0,0 0,0 0,0 0,0 -1,0 -1,0l-9 0c0,0 0,0 0,0 0,0 -1,-1 -1,-1l0 -15c0,-1 1,-1 1,-1 0,-1 0,-1 0,-1l9 0c0,0 0,0 1,0 0,1 0,1 0,1 0,0 0,0 0,0 0,0 0,1 0,1 0,0 0,0 0,0 0,1 0,1 0,1 0,0 0,0 0,0 -1,0 -1,0 -1,0l-6 0 0 5 5 0c0,0 0,0 1,0 0,0 0,0 0,0 0,0 0,0 0,0 0,0 0,1 0,1 0,0 0,0 0,1 0,0 0,0 0,0 0,0 0,0 0,0 -1,0 -1,0 -1,0l-5 0 0 5 6 0c0,0 1,0 1,0 0,0 0,0 0,1 0,0 0,0 0,0 0,0 0,0 0,1z"/>
   <path id="6" class="fil8" d="M403 361c0,0 0,0 0,0 0,0 -1,0 -1,0 0,0 0,0 0,0 0,0 -1,0 -1,0 0,0 -1,0 -1,0 0,0 0,0 0,0 -1,0 -1,0 -1,0 0,0 0,0 0,0l0 -15 0 0 -5 15c0,0 0,0 0,0 0,0 0,0 0,0 -1,0 -1,0 -1,0 0,0 0,0 -1,0 0,0 0,0 -1,0 0,0 0,0 0,0 0,0 0,0 0,0 0,0 -1,0 -1,0l-4 -15 -1 0 0 15c0,0 0,0 0,0 0,0 0,0 0,0 0,0 0,0 0,0 -1,0 -1,0 -1,0 -1,0 -1,0 -1,0 0,0 0,0 -1,0 0,0 0,0 0,0 0,0 0,0 0,0l0 -16c0,-1 0,-1 0,-1 1,0 1,-1 1,-1l3 0c0,0 1,0 1,0 0,1 0,1 1,1 0,0 0,0 0,0 0,1 0,1 1,1l3 11 0 0 4 -11c1,0 1,0 1,-1 0,0 0,0 0,0 0,0 1,0 1,-1 0,0 0,0 1,0l2 0c1,0 1,0 1,0 0,1 0,1 0,1 0,0 1,0 1,0 0,0 0,1 0,1l0 16z"/>
   <path class="fil8" d="M741 74c0,1 1,1 1,1 0,0 0,1 -1,1 0,0 0,0 0,0 0,0 -1,0 -1,0 -1,0 -1,0 -1,0 0,0 -1,0 -1,0 0,0 0,0 0,0 0,0 0,-1 0,-1l-1 -3 -7 0 -1 3c0,0 0,0 0,1 0,0 0,0 -1,0 0,0 0,0 0,0 0,0 -1,0 -1,0 -1,0 -1,0 -1,0 0,0 -1,0 -1,0 0,0 0,-1 0,-1 0,0 0,0 1,-1l5 -15c0,0 0,-1 0,-1 0,0 0,0 0,0 1,0 1,0 1,0 0,0 1,0 1,0 1,0 1,0 2,0 0,0 0,0 0,0 0,0 1,0 1,0 0,0 0,1 0,1l5 15zm-8 -13l0 0 -2 8 5 0 -3 -8z"/>
   <path id="1" class="fil8" d="M753 60c0,0 0,0 0,0 0,0 0,1 0,1 0,0 0,0 0,0 0,0 0,0 0,0l-5 0 0 14c0,0 0,0 0,1 0,0 0,0 0,0 0,0 0,0 0,0 -1,0 -1,0 -1,0 -1,0 -1,0 -1,0 0,0 -1,0 -1,0 0,0 0,0 0,0 0,-1 0,-1 0,-1l0 -14 -5 0c0,0 0,0 0,0 0,0 0,0 0,0 0,0 0,-1 0,-1 0,0 0,0 0,0 0,-1 0,-1 0,-1 0,0 0,-1 0,-1 0,0 0,0 0,0 0,0 0,0 0,0l13 0c0,0 0,0 0,0 0,0 0,0 0,0 0,0 0,1 0,1 0,0 0,0 0,1z"/>
   <path id="2" class="fil8" d="M766 74c0,1 0,1 0,1 0,0 0,0 0,0 0,1 0,1 0,1 0,0 0,0 -1,0l-8 0c-1,0 -1,0 -1,-1 0,0 0,0 0,0l0 -16c0,0 0,0 0,-1 0,0 0,0 1,0l8 0c0,0 1,0 1,0 0,0 0,0 0,0 0,0 0,1 0,1 0,0 0,0 0,0 0,1 0,1 0,1 0,0 0,0 0,1 0,0 0,0 0,0 0,0 -1,0 -1,0l-6 0 0 4 5 0c1,0 1,0 1,0 0,0 0,0 0,1 0,0 0,0 0,0 0,0 0,0 0,1 0,0 0,0 0,0 0,0 0,1 0,1 0,0 0,0 0,0 0,0 0,0 -1,0l-5 0 0 5 6 0c1,0 1,0 1,0 0,0 0,0 0,0 0,0 0,1 0,1 0,0 0,0 0,0z"/>
   <path id="3" class="fil8" d="M782 75c0,0 0,0 0,1 0,0 0,0 0,0 0,0 0,0 -1,0 0,0 0,0 -1,0 0,0 0,0 -1,0 0,0 0,0 0,0 0,0 0,0 0,0 0,-1 -1,-1 -1,-1l-1 -4c0,0 -1,-1 -1,-1 0,0 0,-1 0,-1 -1,0 -1,0 -1,0 0,0 -1,0 -1,0l-1 0 0 6c0,0 0,0 0,1 0,0 0,0 -1,0 0,0 0,0 0,0 0,0 -1,0 -1,0 0,0 -1,0 -1,0 0,0 0,0 0,0 -1,0 -1,0 -1,0 0,-1 0,-1 0,-1l0 -16c0,0 0,0 0,-1 1,0 1,0 1,0l5 0c0,0 1,0 1,0 0,0 1,0 1,0 1,0 1,0 2,1 0,0 1,0 1,1 1,0 1,1 1,1 0,1 0,1 0,2 0,1 0,1 0,2 0,0 0,0 -1,1 0,0 0,1 -1,1 0,0 -1,0 -1,1 0,0 0,0 1,0 0,0 0,0 0,1 1,0 1,0 1,1 0,0 0,0 0,1l2 3c0,1 0,1 0,1 0,0 0,0 0,0zm-4 -12c0,0 0,-1 -1,-1 0,-1 0,-1 -1,-1 0,0 0,0 -1,0 0,0 0,0 -1,0l-1 0 0 5 2 0c0,0 1,0 1,0 0,0 1,-1 1,-1 0,0 0,0 0,-1 1,0 1,0 1,-1z"/>
   <path id="4" class="fil8" d="M798 75c0,0 0,0 0,1 0,0 0,0 0,0 0,0 -1,0 -1,0 0,0 0,0 -1,0 0,0 -1,0 -1,0 0,0 0,0 0,0 0,0 -1,0 -1,0 0,-1 0,-1 0,-1l-1 -4c-1,0 -1,-1 -1,-1 0,0 0,-1 -1,-1 0,0 0,0 0,0 -1,0 -1,0 -1,0l-1 0 0 6c0,0 0,0 -1,1 0,0 0,0 0,0 0,0 0,0 0,0 -1,0 -1,0 -1,0 -1,0 -1,0 -1,0 0,0 -1,0 -1,0 0,0 0,0 0,0 0,-1 0,-1 0,-1l0 -16c0,0 0,0 0,-1 0,0 1,0 1,0l5 0c0,0 0,0 1,0 0,0 0,0 1,0 0,0 1,0 1,1 1,0 2,0 2,1 0,0 1,1 1,1 0,1 0,1 0,2 0,1 0,1 0,2 0,0 0,0 -1,1 0,0 0,1 -1,1 0,0 -1,0 -1,1 0,0 0,0 0,0 1,0 1,0 1,1 0,0 1,0 1,1 0,0 0,0 0,1l2 3c0,1 0,1 0,1 0,0 0,0 0,0zm-5 -12c0,0 0,-1 0,-1 0,-1 -1,-1 -1,-1 0,0 -1,0 -1,0 0,0 0,0 -1,0l-1 0 0 5 1 0c1,0 1,0 2,0 0,0 0,-1 1,-1 0,0 0,0 0,-1 0,0 0,0 0,-1z"/>
   <path id="5" class="fil8" d="M816 67c0,1 0,2 0,4 -1,1 -1,2 -2,3 -1,0 -1,1 -3,1 -1,1 -2,1 -3,1 -2,0 -3,0 -4,0 -1,-1 -2,-1 -2,-2 -1,-1 -2,-2 -2,-3 0,-1 0,-2 0,-4 0,-1 0,-3 0,-4 1,-1 1,-2 2,-3 0,-1 1,-1 2,-2 2,0 3,0 4,0 1,0 3,0 4,0 1,1 2,1 2,2 1,1 1,2 2,3 0,1 0,2 0,4zm-3 0c0,-1 -1,-2 -1,-3 0,0 0,-1 0,-2 -1,0 -1,-1 -2,-1 0,0 -1,0 -2,0 -1,0 -2,0 -2,0 -1,1 -1,1 -2,2 0,0 0,1 0,1 -1,1 -1,2 -1,3 0,1 0,2 1,2 0,1 0,2 0,2 1,1 1,1 2,2 0,0 1,0 2,0 1,0 2,0 2,0 1,-1 1,-1 2,-2 0,0 0,-1 0,-2 0,0 1,-1 1,-2z"/>
   <path id="6" class="fil8" d="M830 70c0,1 0,2 -1,3 0,1 0,1 -1,2 -1,0 -1,0 -2,1 -1,0 -2,0 -3,0 0,0 -1,0 -1,0 -1,0 -1,0 -2,0 0,-1 -1,-1 -1,-1 0,0 0,0 0,0 0,0 -1,-1 -1,-1 0,0 0,0 0,-1 0,0 0,0 0,-1 0,0 0,0 0,0 0,0 1,0 1,0 0,0 0,0 0,0 0,0 0,0 0,0 1,0 1,0 1,0 1,1 1,1 2,1 0,0 1,0 1,0 1,0 1,0 2,0 0,0 0,0 0,0 1,-1 1,-1 1,-1 0,0 0,-1 0,-1 0,0 0,-1 0,-1 0,0 -1,-1 -1,-1 0,0 -1,0 -1,-1 -1,0 -1,0 -2,0 0,0 -1,-1 -1,-1 0,0 -1,0 -1,-1 -1,0 -1,-1 -1,-1 0,-1 0,-1 0,-2 0,-1 0,-2 0,-2 0,-1 1,-2 1,-2 1,0 2,-1 2,-1 1,0 2,0 3,0 0,0 0,0 1,0 0,0 1,0 1,0 0,0 1,0 1,0 0,1 0,1 1,1 0,0 0,0 0,0 0,0 0,0 0,0 0,0 0,1 0,1 0,0 0,0 0,0 0,1 0,1 0,1 0,0 0,0 0,0 0,1 0,1 0,1 0,0 -1,0 -1,0 0,0 0,0 0,0 0,-1 -1,-1 -1,-1 0,0 -1,0 -1,0 0,0 -1,0 -1,0 -1,0 -1,0 -1,0 -1,0 -1,0 -1,0 0,0 0,0 -1,1 0,0 0,0 0,0 0,1 0,1 1,1 0,1 0,1 0,1 1,0 1,1 2,1 0,0 1,0 1,0 1,1 1,1 1,1 1,1 1,1 2,1 0,1 0,1 1,2 0,0 0,1 0,1z"/>
   <path class="fil8" d="M204 15c0,1 0,1 0,1 0,0 0,0 0,0 0,0 0,1 0,1 0,0 0,0 0,0 0,0 0,0 -1,0 0,0 0,1 -1,1 0,0 -1,0 -1,0 -1,0 -1,0 -2,0 -1,0 -2,0 -3,0 -1,-1 -2,-1 -3,-2 0,-1 -1,-2 -1,-3 -1,-1 -1,-2 -1,-4 0,-1 0,-2 1,-4 0,-1 1,-2 1,-3 1,0 2,-1 3,-1 1,-1 2,-1 3,-1 1,0 1,0 2,0 0,0 1,0 1,0 0,1 1,1 1,1 0,0 1,0 1,0 0,1 0,1 0,1 0,0 0,0 0,0 0,0 0,0 0,0 0,1 0,1 0,1 0,0 0,1 0,1 0,0 0,0 0,0 0,0 0,0 0,1 0,0 0,0 0,0 0,0 -1,0 -1,-1 0,0 0,0 -1,0 0,0 0,-1 -1,-1 0,0 -1,0 -1,0 -1,0 -2,0 -2,0 -1,1 -1,1 -2,2 0,0 0,1 -1,2 0,0 0,1 0,2 0,1 0,2 0,3 1,1 1,1 1,2 1,0 1,1 2,1 0,0 1,0 2,0 0,0 1,0 1,0 1,0 1,0 1,0 1,-1 1,-1 1,-1 1,0 1,0 1,0 0,0 0,0 0,0 0,0 0,0 0,0 0,0 0,0 0,1 0,0 0,0 0,0z"/>
   <path id="1" class="fil8" d="M223 9c0,1 -1,3 -1,4 0,1 -1,2 -2,3 0,1 -1,1 -2,2 -1,0 -3,0 -4,0 -1,0 -3,0 -4,0 -1,-1 -1,-1 -2,-2 -1,-1 -1,-2 -2,-3 0,-1 0,-2 0,-4 0,-1 0,-2 0,-4 1,-1 1,-2 2,-3 1,0 2,-1 3,-1 1,-1 2,-1 3,-1 2,0 3,0 4,1 1,0 2,0 2,1 1,1 2,2 2,3 0,1 1,2 1,4zm-4 0c0,-1 0,-2 0,-2 -1,-1 -1,-2 -1,-2 -1,-1 -1,-1 -2,-2 0,0 -1,0 -2,0 -1,0 -1,0 -2,0 -1,1 -1,1 -1,2 -1,0 -1,1 -1,2 0,0 0,1 0,2 0,1 0,2 0,3 0,0 0,1 1,2 0,0 0,1 1,1 1,0 1,0 2,0 1,0 2,0 2,0 1,0 1,-1 2,-1 0,-1 0,-2 1,-2 0,-1 0,-2 0,-3z"/>
   <path id="2" class="fil8" d="M235 17c0,0 0,0 0,0 0,0 0,1 0,1 0,0 0,0 0,0 0,0 0,0 0,0l-8 0c-1,0 -1,0 -1,0 0,0 0,-1 0,-1l0 -16c0,0 0,0 0,0 0,-1 0,-1 0,-1 0,0 0,0 1,0 0,0 0,0 0,0 1,0 1,0 1,0 0,0 1,0 1,0 0,0 0,0 0,1 0,0 0,0 0,0l0 14 6 0c0,0 0,0 0,0 0,0 0,0 0,0 0,0 0,1 0,1 0,0 0,0 0,1z"/>
   <path id="3" class="fil8" d="M248 17c0,0 0,0 0,0 0,0 0,1 0,1 0,0 0,0 0,0 0,0 -1,0 -1,0l-9 0c0,0 0,0 0,0 0,0 -1,-1 -1,-1l0 -16c0,0 1,0 1,0 0,-1 0,-1 0,-1l9 0c0,0 0,0 1,0 0,0 0,1 0,1 0,0 0,0 0,0 0,0 0,0 0,1 0,0 0,0 0,0 0,1 0,1 0,1 0,0 0,0 0,0 -1,0 -1,0 -1,0l-6 0 0 4 5 0c0,0 0,0 1,1 0,0 0,0 0,0 0,0 0,0 0,0 0,0 0,1 0,1 0,0 0,0 0,0 0,1 0,1 0,1 0,0 0,0 0,0 -1,0 -1,0 -1,0l-5 0 0 5 6 0c0,0 1,0 1,0 0,0 0,0 0,0 0,1 0,1 0,1 0,0 0,0 0,1z"/>
   <path id="4" class="fil8" d="M263 2c0,0 0,0 0,0 0,1 0,1 0,1 0,0 0,0 0,0 -1,0 -1,0 -1,0l-4 0 0 15c0,0 0,0 0,0 0,0 0,0 -1,0 0,0 0,0 0,0 0,0 -1,0 -1,0 0,0 -1,0 -1,0 0,0 0,0 0,0 0,0 -1,0 -1,0 0,0 0,0 0,0l0 -15 -4 0c0,0 0,0 0,0 0,0 -1,0 -1,0 0,0 0,0 0,-1 0,0 0,0 0,0 0,0 0,-1 0,-1 0,0 0,0 0,0 0,0 1,-1 1,-1 0,0 0,0 0,0l12 0c0,0 0,0 1,0 0,0 0,1 0,1 0,0 0,0 0,0 0,0 0,1 0,1z"/>
   <path id="5" class="fil8" d="M277 17c0,0 0,0 0,0 0,1 0,1 0,1 0,0 0,0 0,0 0,0 -1,0 -1,0 -1,0 -1,0 -1,0 -1,0 -1,0 -1,0 0,0 0,0 0,0 0,0 0,0 0,0l-2 -4 -6 0 -1 3c0,1 0,1 0,1 -1,0 -1,0 -1,0 0,0 0,0 0,0 -1,0 -1,0 -1,0 -1,0 -1,0 -1,0 0,0 -1,0 -1,0 0,0 0,0 0,-1 0,0 0,0 0,0l6 -16c0,0 0,0 0,0 0,-1 0,-1 0,-1 1,0 1,0 1,0 0,0 1,0 1,0 1,0 1,0 1,0 1,0 1,0 1,0 0,0 0,0 1,1 0,0 0,0 0,0l5 16zm-8 -13l0 0 -2 7 5 0 -3 -7z"/>
   <path class="fil8" d="M39 308c0,0 0,0 0,0 0,1 0,1 0,1 0,0 0,0 0,0 0,0 0,0 0,0 0,0 -1,0 -1,0 0,0 -1,-1 -1,-1 0,0 -1,0 -2,0 0,0 -1,0 -2,0 -1,0 -1,0 -2,0 -1,0 -1,1 -2,1 0,1 -1,1 -1,2 0,1 0,2 0,3 0,1 0,2 0,2 0,1 1,2 1,2 1,1 1,1 2,1 1,1 1,1 2,1 1,0 1,0 1,0 1,0 1,0 2,-1l0 -4 -4 0c0,0 0,0 0,0 0,0 0,-1 0,-1 0,0 0,-1 0,-1 0,0 0,0 0,0 0,0 0,0 0,0 0,0 0,-1 0,-1l6 0c0,0 0,1 1,1 0,0 0,0 0,0 0,0 0,0 0,0 0,0 0,0 0,1l0 7c0,0 0,0 0,0 0,1 0,1 -1,1 0,0 0,0 -1,0 0,0 -1,1 -1,1 -1,0 -1,0 -2,0 0,0 0,0 -1,0 -1,0 -3,0 -4,-1 -1,0 -2,-1 -3,-1 0,-1 -1,-2 -1,-3 -1,-1 -1,-3 -1,-4 0,-2 0,-3 1,-4 0,-1 1,-2 2,-3 0,-1 1,-1 2,-2 2,0 3,0 4,0 1,0 2,0 2,0 1,0 1,0 2,0 0,0 1,0 1,1 0,0 1,0 1,0 0,0 0,0 0,1 0,0 0,0 0,1z"/>
   <path id="1" class="fil8" d="M53 321c0,0 0,1 0,1 0,0 0,0 0,0 0,0 0,0 0,1 0,0 0,0 0,0l-9 0c0,0 -1,-1 -1,-1 0,0 0,0 0,-1l0 -15c0,0 0,-1 0,-1 0,0 1,0 1,0l9 0c0,0 0,0 0,0 0,0 0,0 0,0 0,0 0,0 0,1 0,0 0,0 0,0 0,1 0,1 0,1 0,0 0,0 0,0 0,1 0,1 0,1 0,0 0,0 0,0l-7 0 0 4 6 0c0,0 0,0 0,0 0,0 0,0 0,0 0,0 0,1 0,1 0,0 0,0 0,0 0,1 0,1 0,1 0,0 0,0 0,0 0,1 0,1 0,1 0,0 0,0 0,0l-6 0 0 5 7 0c0,0 0,0 0,0 0,0 0,0 0,0 0,0 0,0 0,0 0,1 0,1 0,1z"/>
   <path id="2" class="fil8" d="M70 322c0,0 0,0 0,0 -1,0 -1,0 -1,1 0,0 0,0 0,0 -1,0 -1,0 -1,0 -1,0 -1,0 -1,0 -1,0 -1,0 -1,0 0,-1 0,-1 0,-1 0,0 0,0 0,0l-2 -4c0,0 0,-1 0,-1 -1,0 -1,-1 -1,-1 0,0 -1,0 -1,0 0,-1 0,-1 -1,-1l-1 0 0 7c0,0 0,0 0,0 0,0 0,0 0,1 -1,0 -1,0 -1,0 0,0 0,0 -1,0 0,0 0,0 -1,0 0,0 0,0 0,0 0,-1 0,-1 0,-1 -1,0 -1,0 -1,0l0 -16c0,0 1,-1 1,-1 0,0 0,0 0,0l5 0c1,0 1,0 1,0 1,0 1,0 1,0 1,0 1,0 2,0 1,1 1,1 1,1 1,1 1,1 1,2 1,0 1,1 1,2 0,0 0,1 -1,1 0,1 0,1 0,2 -1,0 -1,0 -1,1 -1,0 -1,0 -2,0 0,0 1,1 1,1 0,0 0,0 1,0 0,1 0,1 0,1 0,1 1,1 1,1l1 4c0,0 0,1 0,1 1,0 1,0 1,0zm-5 -12c0,0 0,-1 0,-1 -1,-1 -1,-1 -2,-1 0,0 0,0 0,0 -1,0 -1,0 -1,0l-2 0 0 5 2 0c0,0 1,0 1,-1 1,0 1,0 1,0 0,0 1,-1 1,-1 0,0 0,-1 0,-1z"/>
   <path id="3" class="fil8" d="M87 321c0,1 0,1 0,1 0,0 0,0 0,0 0,1 0,1 -1,1 0,0 0,0 -1,0 0,0 -1,0 -1,0 0,0 0,0 0,0 -1,0 -1,-1 -1,-1 0,0 0,0 0,0l-1 -3 -7 0 -1 3c0,0 0,0 0,0 0,0 0,0 0,1 0,0 -1,0 -1,0 0,0 0,0 -1,0 0,0 -1,0 -1,0 0,0 0,0 0,-1 0,0 0,0 0,0 0,0 0,0 0,-1l5 -15c0,-1 0,-1 0,-1 1,0 1,0 1,0 0,0 0,0 0,0 1,0 1,0 2,0 0,0 1,0 1,0 0,0 0,0 1,0 0,0 0,0 0,0 0,0 0,0 0,1l6 15zm-8 -13l0 0 -3 8 5 0 -2 -8z"/>
   <path id="4" class="fil8" d="M104 313c0,2 0,3 -1,5 0,1 -1,2 -2,2 0,1 -1,2 -2,2 -2,0 -3,1 -5,1l-4 0c0,0 0,-1 -1,-1 0,0 0,0 0,-1l0 -15c0,0 0,-1 0,-1 1,0 1,0 1,0l5 0c1,0 3,0 4,0 1,1 2,1 3,2 0,1 1,2 1,3 1,1 1,2 1,3zm-4 1c0,-1 0,-2 0,-3 0,0 -1,-1 -1,-2 -1,0 -1,-1 -2,-1 0,0 -1,0 -2,0l-2 0 0 12 2 0c1,0 1,0 2,-1 1,0 1,0 2,-1 0,0 1,-1 1,-2 0,0 0,-1 0,-2z"/>
   <path id="5" class="fil8" d="M123 314c0,1 0,2 -1,3 0,2 -1,3 -1,3 -1,1 -2,2 -3,2 -1,1 -2,1 -4,1 -1,0 -2,0 -3,-1 -1,0 -2,-1 -3,-1 -1,-1 -1,-2 -2,-3 0,-1 0,-3 0,-4 0,-2 0,-3 1,-4 0,-1 0,-2 1,-3 1,-1 2,-1 3,-2 1,0 2,0 4,0 1,0 2,0 3,0 1,0 2,1 3,2 0,0 1,1 1,3 1,1 1,2 1,4zm-4 0c0,-1 0,-2 0,-3 0,-1 -1,-1 -1,-2 0,0 -1,-1 -1,-1 -1,0 -2,0 -3,0 0,0 -1,0 -2,0 0,0 -1,1 -1,1 -1,1 -1,2 -1,2 0,1 0,2 0,3 0,1 0,1 0,2 0,1 0,2 1,2 0,1 1,1 1,1 1,1 1,1 2,1 1,0 2,0 3,-1 0,0 1,0 1,-1 0,0 1,-1 1,-2 0,-1 0,-1 0,-2z"/>
   <path id="6" class="fil8" d="M139 322c0,0 0,0 0,0 0,0 0,0 0,1 -1,0 -1,0 -1,0 0,0 -1,0 -1,0 0,0 -1,0 -1,0 0,0 0,0 -1,0 0,-1 0,-1 0,-1 0,0 0,0 0,0l-2 -4c0,0 0,-1 0,-1 0,0 -1,-1 -1,-1 0,0 0,0 -1,0 0,-1 0,-1 -1,-1l-1 0 0 7c0,0 0,0 0,0 0,0 0,0 0,1 0,0 0,0 -1,0 0,0 0,0 0,0 -1,0 -1,0 -1,0 -1,0 -1,0 -1,0 0,-1 0,-1 0,-1 0,0 0,0 0,0l0 -16c0,0 0,-1 0,-1 0,0 1,0 1,0l4 0c1,0 1,0 2,0 0,0 0,0 0,0 1,0 2,0 2,0 1,1 1,1 2,1 0,1 0,1 1,2 0,0 0,1 0,2 0,0 0,1 0,1 0,1 -1,1 -1,2 0,0 -1,0 -1,1 0,0 -1,0 -1,0 0,0 0,1 0,1 1,0 1,0 1,0 0,1 0,1 1,1 0,1 0,1 0,1l2 4c0,0 0,1 0,1 0,0 0,0 0,0zm-5 -12c0,0 0,-1 0,-1 0,-1 -1,-1 -1,-1 -1,0 -1,0 -1,0 0,0 -1,0 -1,0l-2 0 0 5 2 0c1,0 1,0 2,-1 0,0 0,0 0,0 1,0 1,-1 1,-1 0,0 0,-1 0,-1z"/>
   <path id="7" class="fil8" d="M152 321c0,0 0,1 0,1 0,0 0,0 0,0 0,0 0,0 0,1 0,0 0,0 -1,0l-8 0c-1,0 -1,-1 -1,-1 0,0 0,0 0,-1l0 -15c0,0 0,-1 0,-1 0,0 0,0 1,0l8 0c1,0 1,0 1,0 0,0 0,0 0,0 0,0 0,0 0,1 0,0 0,0 0,0 0,1 0,1 0,1 0,0 0,0 0,0 0,1 0,1 0,1 0,0 0,0 -1,0l-6 0 0 4 5 0c1,0 1,0 1,0 0,0 0,0 0,0 0,0 0,1 0,1 0,0 0,0 0,0 0,1 0,1 0,1 0,0 0,0 0,0 0,1 0,1 0,1 0,0 0,0 -1,0l-5 0 0 5 6 0c1,0 1,0 1,0 0,0 0,0 0,0 0,0 0,0 0,0 0,1 0,1 0,1z"/>
   <path id="8" class="fil8" d="M165 317c0,1 0,2 0,3 0,0 -1,1 -2,1 0,1 -1,1 -2,2 0,0 -1,0 -2,0 -1,0 -1,0 -2,0 0,0 -1,0 -1,-1 -1,0 -1,0 -1,0 -1,0 -1,0 -1,-1 0,0 0,0 0,0 0,0 0,-1 0,-1 0,0 0,0 0,-1 0,0 0,0 0,0 0,0 0,0 0,0 0,0 0,0 0,0 1,0 1,0 1,0 0,0 0,0 1,0 0,0 1,1 1,1 1,0 1,0 2,0 0,0 1,0 1,0 0,0 1,0 1,-1 0,0 0,0 1,0 0,-1 0,-1 0,-1 0,-1 0,-1 -1,-1 0,-1 0,-1 0,-1 -1,0 -1,0 -2,-1 0,0 -1,0 -1,0 -1,-1 -1,-1 -1,-1 -1,0 -1,-1 -2,-1 0,0 0,-1 -1,-1 0,-1 0,-2 0,-2 0,-1 0,-2 1,-3 0,0 0,-1 1,-1 0,-1 1,-1 2,-1 1,0 1,0 2,0 1,0 1,0 1,0 1,0 1,0 2,0 0,0 0,0 0,0 1,0 1,1 1,1 0,0 0,0 0,0 0,0 0,0 0,0 0,0 0,0 0,1 0,0 0,0 0,0 0,0 0,1 0,1 0,0 0,0 0,0 0,0 0,0 0,0 0,1 0,1 0,1 0,0 0,0 -1,-1 0,0 0,0 0,0 -1,0 -1,0 -1,0 -1,-1 -1,-1 -2,-1 0,0 -1,0 -1,1 0,0 0,0 -1,0 0,0 0,0 0,1 0,0 0,0 0,0 0,1 0,1 0,1 0,1 1,1 1,1 0,0 1,0 1,1 1,0 1,0 2,0 0,1 1,1 1,1 0,0 1,1 1,1 1,0 1,1 1,1 0,1 0,2 0,2z"/>
   <path class="fil8" d="M562 376c0,0 0,1 0,1 0,0 0,0 0,0 0,0 0,0 -1,0 0,0 0,0 -1,0 0,0 0,0 -1,0 0,0 0,0 0,0 0,0 0,0 0,0 -1,0 -1,-1 -1,-1l-1 -4c0,0 -1,0 -1,-1 0,0 0,0 0,-1 -1,0 -1,0 -1,0 0,0 -1,0 -1,0l-1 0 0 6c0,0 0,1 0,1 0,0 -1,0 -1,0 0,0 0,0 0,0 0,0 -1,0 -1,0 0,0 -1,0 -1,0 0,0 0,0 -1,0 0,0 0,0 0,0 0,0 0,-1 0,-1l0 -16c0,0 0,0 0,-1 1,0 1,0 1,0l5 0c0,0 1,0 1,0 0,0 0,0 1,0 0,0 1,1 2,1 0,0 1,0 1,1 1,0 1,1 1,1 0,1 0,1 0,2 0,1 0,1 0,2 0,0 0,1 -1,1 0,0 0,1 -1,1 0,0 -1,0 -1,1 0,0 0,0 1,0 0,0 0,0 0,1 1,0 1,0 1,1 0,0 0,0 0,1l2 3c0,1 0,1 0,1 0,0 0,0 0,0zm-4 -12c0,0 -1,-1 -1,-1 0,-1 0,-1 -1,-1 0,0 0,0 -1,0 0,0 0,0 -1,0l-1 0 0 5 2 0c0,0 1,0 1,0 0,0 1,-1 1,-1 0,0 0,0 0,-1 1,0 1,0 1,-1z"/>
   <path id="1" class="fil8" d="M575 375c0,1 0,1 0,1 0,0 0,0 0,1 0,0 0,0 0,0 0,0 0,0 0,0l-9 0c0,0 -1,0 -1,0 0,-1 0,-1 0,-1l0 -16c0,0 0,0 0,-1 0,0 1,0 1,0l9 0c0,0 0,0 0,0 0,0 0,0 0,0 0,1 0,1 0,1 0,0 0,0 0,1 0,0 0,0 0,0 0,0 0,1 0,1 0,0 0,0 0,0 0,0 0,0 0,0l-7 0 0 4 6 0c0,0 0,0 0,0 0,0 0,0 0,1 0,0 0,0 0,0 0,0 0,0 0,1 0,0 0,0 0,0 0,0 0,1 0,1 0,0 0,0 0,0 0,0 0,0 0,0l-6 0 0 5 7 0c0,0 0,0 0,0 0,0 0,0 0,0 0,0 0,1 0,1 0,0 0,0 0,0z"/>
   <path id="2" class="fil8" d="M590 374c0,0 0,1 0,1 0,0 0,0 0,0 0,0 0,0 0,0 0,1 0,1 0,1 0,0 0,0 -1,0 0,0 0,0 -1,1 0,0 -1,0 -1,0 -1,0 -1,0 -2,0 -1,0 -2,0 -3,0 -1,-1 -2,-1 -3,-2 0,-1 -1,-2 -1,-3 -1,-1 -1,-2 -1,-4 0,-1 1,-3 1,-4 0,-1 1,-2 2,-3 0,-1 1,-1 2,-2 1,0 2,0 4,0 0,0 0,0 1,0 0,0 1,0 1,0 1,0 1,1 1,1 1,0 1,0 1,0 0,0 0,0 0,1 0,0 0,0 0,0 0,0 0,0 0,0 0,0 0,1 0,1 0,0 0,0 0,1 0,0 0,0 0,0 0,0 0,0 0,0 0,0 0,0 0,0 0,0 0,0 -1,0 0,0 0,0 -1,0 0,-1 0,-1 -1,-1 0,0 -1,0 -1,0 -1,0 -2,0 -2,0 -1,1 -1,1 -2,2 0,0 0,1 -1,1 0,1 0,2 0,3 0,1 0,2 1,3 0,0 0,1 0,2 1,0 1,0 2,1 0,0 1,0 2,0 0,0 1,0 1,0 1,0 1,0 2,-1 0,0 0,0 0,0 1,0 1,0 1,0 0,0 0,0 0,0 0,0 0,0 0,0 0,0 0,0 0,0 0,1 0,1 0,1z"/>
   <path id="3" class="fil8" d="M597 376c0,0 0,1 -1,1 0,0 0,0 0,0 0,0 0,0 0,0 -1,0 -1,0 -1,0 -1,0 -1,0 -1,0 0,0 -1,0 -1,0 0,0 0,0 0,0 0,0 0,-1 0,-1l0 -16c0,0 0,-1 0,-1 0,0 0,0 0,0 1,0 1,0 1,0 0,0 0,0 1,0 0,0 0,0 1,0 0,0 0,0 0,0 0,0 0,0 0,0 1,0 1,1 1,1l0 16z"/>
   <path id="4" class="fil8" d="M613 374c0,0 0,1 0,1 0,0 0,0 0,0 0,0 0,0 -1,0 0,1 0,1 0,1 0,0 0,0 0,0 -1,0 -1,0 -1,1 -1,0 -1,0 -2,0 0,0 -1,0 -2,0 -1,0 -2,0 -3,0 -1,-1 -2,-1 -2,-2 -1,-1 -1,-2 -2,-3 0,-1 0,-2 0,-4 0,-1 0,-3 0,-4 1,-1 1,-2 2,-3 1,-1 1,-1 2,-2 1,0 3,0 4,0 0,0 1,0 1,0 1,0 1,0 1,0 1,0 1,1 2,1 0,0 0,0 0,0 0,0 0,0 0,1 0,0 1,0 1,0 0,0 0,0 0,0 0,0 0,1 0,1 0,0 0,0 0,1 0,0 0,0 0,0 -1,0 -1,0 -1,0 0,0 0,0 0,0 0,0 0,0 0,0 -1,0 -1,0 -1,0 -1,-1 -1,-1 -1,-1 -1,0 -1,0 -2,0 -1,0 -1,0 -2,0 0,1 -1,1 -1,2 -1,0 -1,1 -1,1 0,1 -1,2 -1,3 0,1 1,2 1,3 0,0 0,1 1,2 0,0 1,0 1,1 1,0 1,0 2,0 1,0 1,0 2,0 0,0 1,0 1,-1 0,0 1,0 1,0 0,0 0,0 0,0 0,0 0,0 0,0 0,0 1,0 1,0 0,0 0,0 0,0 0,1 0,1 0,1z"/>
   <path id="5" class="fil8" d="M625 375c0,1 0,1 0,1 0,0 0,0 0,0 0,1 0,1 0,1 0,0 0,0 -1,0l-8 0c0,0 0,0 0,0 -1,-1 -1,-1 -1,-1l0 -16c0,0 0,-1 0,-1 0,0 1,0 1,0 0,0 0,0 0,0 0,0 1,0 1,0 0,0 1,0 1,0 0,0 0,0 0,0 1,0 1,0 1,0 0,0 0,1 0,1l0 14 5 0c1,0 1,0 1,0 0,0 0,0 0,0 0,0 0,0 0,1 0,0 0,0 0,0z"/>
   <path id="6" class="fil8" d="M642 375c0,1 0,1 0,1 0,0 0,1 0,1 0,0 -1,0 -1,0 0,0 0,0 -1,0 0,0 -1,0 -1,0 0,0 0,0 -1,0 0,0 0,0 0,0 0,0 0,-1 0,-1l-1 -3 -7 0 -1 3c0,0 0,1 0,1 0,0 0,0 0,0 -1,0 -1,0 -1,0 0,0 0,0 -1,0 0,0 -1,0 -1,0 0,0 0,0 0,0 0,0 0,-1 0,-1 0,0 0,0 0,-1l5 -15c0,0 0,-1 0,-1 0,0 1,0 1,0 0,0 0,0 0,0 1,0 1,0 2,0 0,0 0,0 1,0 0,0 0,0 1,0 0,0 0,0 0,0 0,0 0,1 0,1l6 15zm-9 -12l0 0 -2 7 5 0 -3 -7z"/>
   <path id="7" class="fil8" d="M658 362c0,0 0,0 0,1 0,0 0,0 0,0 0,0 0,0 0,0 0,0 0,0 -1,0 0,0 0,0 0,0 0,0 -1,0 -1,0 -1,-1 -1,-1 -2,-1 0,0 -1,0 -2,0 -1,0 -1,0 -2,0 -1,1 -1,1 -2,1 0,1 -1,2 -1,2 0,1 0,2 0,3 0,1 0,2 0,3 0,0 1,1 1,2 1,0 1,0 2,1 0,0 1,0 2,0 0,0 1,0 1,0 1,0 1,0 1,0l0 -5 -3 0c0,0 0,0 0,0 0,0 -1,0 -1,-1 0,0 0,0 0,-1 1,0 1,0 1,0 0,0 0,0 0,0 0,0 0,0 0,0l6 0c0,0 0,0 0,0 0,0 1,0 1,0 0,0 0,0 0,0 0,1 0,1 0,1l0 7c0,0 0,0 0,1 0,0 -1,0 -1,0 0,0 0,0 -1,1 0,0 -1,0 -1,0 -1,0 -1,0 -2,0 0,0 -1,0 -1,0 -2,0 -3,0 -4,0 -1,-1 -2,-1 -3,-2 -1,-1 -1,-2 -2,-3 0,-1 0,-2 0,-4 0,-1 0,-3 0,-4 1,-1 2,-2 2,-3 1,0 2,-1 3,-2 1,0 3,0 4,0 1,0 1,0 2,0 1,0 1,0 2,0 0,1 1,1 1,1 0,0 0,0 1,0 0,0 0,1 0,1 0,0 0,0 0,1z"/>
   <path id="8" class="fil8" d="M672 375c0,1 0,1 0,1 0,0 0,0 0,1 0,0 0,0 0,0 0,0 0,0 0,0l-9 0c-1,0 -1,0 -1,0 0,-1 0,-1 0,-1l0 -16c0,0 0,0 0,-1 0,0 0,0 1,0l8 0c1,0 1,0 1,0 0,0 0,0 0,0 0,1 0,1 0,1 0,0 0,0 0,1 0,0 0,0 0,0 0,0 0,1 0,1 0,0 0,0 0,0 0,0 0,0 -1,0l-6 0 0 4 5 0c1,0 1,0 1,0 0,0 0,0 0,1 0,0 0,0 0,0 0,0 0,0 0,1 0,0 0,0 0,0 0,0 0,1 0,1 0,0 0,0 0,0 0,0 0,0 -1,0l-5 0 0 5 7 0c0,0 0,0 0,0 0,0 0,0 0,0 0,0 0,1 0,1 0,0 0,0 0,0z"/>
   <path id="9" class="fil8" d="M696 376c0,0 0,1 0,1 0,0 0,0 0,0 -1,0 -1,0 -1,0 0,0 -1,0 -1,0 0,0 0,0 -1,0 0,0 0,0 0,0 0,0 0,0 0,0 -1,0 -1,-1 -1,-1l0 -14 0 0 -5 14c0,0 0,1 0,1 0,0 0,0 0,0 0,0 -1,0 -1,0 0,0 0,0 -1,0 0,0 0,0 0,0 -1,0 -1,0 -1,0 0,0 0,0 0,0 0,0 0,-1 0,-1l-5 -14 0 0 0 14c0,0 0,1 0,1 0,0 -1,0 -1,0 0,0 0,0 0,0 0,0 -1,0 -1,0 0,0 -1,0 -1,0 0,0 0,0 0,0 -1,0 -1,0 -1,0 0,0 0,-1 0,-1l0 -15c0,-1 0,-1 1,-1 0,-1 0,-1 1,-1l2 0c0,0 1,0 1,0 0,0 1,0 1,1 0,0 0,0 0,0 1,0 1,1 1,1l4 11 0 0 4 -11c0,0 0,-1 0,-1 0,0 0,0 0,0 1,-1 1,-1 1,-1 0,0 1,0 1,0l2 0c1,0 1,0 1,0 0,0 0,0 1,1 0,0 0,0 0,0 0,0 0,0 0,1l0 15z"/>
   <g>
    <g>
     <circle class="fil2 str0" transform="matrix(2.30146 0.176591 -0.176591 2.30147 232.727 114.06)" r="29"/>
     <path class="fil2 str0" d="M234 22l0 0 12 1 0 0 9 29c-8,-3 -24,-5 -34,-3l13 -27z"/>
     <path class="fil2 str0" d="M169 48l0 0 8 -7 0 0 27 14c-7,3 -20,13 -26,22l-9 -29z"/>
     <path class="fil2 str0" d="M299 50l0 0 7 8 0 0 -14 27c-3,-7 -13,-20 -22,-26l29 -9z"/>
     <path class="fil2 str0" d="M325 115l0 0 0 12 0 0 -29 9c3,-8 4,-24 2,-34l27 13z"/>
     <path class="fil2 str0" d="M140 113l0 0 1 -11 0 0 29 -10c-3,8 -5,24 -2,34l-28 -13z"/>
     <path class="fil2 str0" d="M167 179l0 0 -8 -9 0 0 14 -27c4,8 14,20 23,26l-29 10z"/>
     <path class="fil2 str0" d="M231 207l0 0 -11 -1 0 0 -9 -29c7,3 23,5 34,3l-14 27z"/>
     <path class="fil2 str0" d="M297 181l0 0 -9 8 0 0 -26 -14c7,-4 20,-14 25,-23l10 29z"/>
    </g>
    <g>
     <circle class="fil6 str8" transform="matrix(2.30146 0.176591 -0.176591 2.30147 235.878 114.775)" r="29"/>
     <path class="fil6 str8" d="M237 23l0 0 12 0 0 0 9 29c-8,-3 -24,-4 -34,-2l13 -27z"/>
     <path class="fil6 str8" d="M172 49l0 0 8 -8 0 0 27 14c-7,4 -20,14 -26,22l-9 -28z"/>
     <path class="fil6 str8" d="M302 51l0 0 7 8 0 0 -14 27c-3,-8 -13,-20 -22,-26l29 -9z"/>
     <path class="fil6 str8" d="M328 116l0 0 0 11 0 0 -29 10c3,-8 5,-24 2,-34l27 13z"/>
     <path class="fil6 str8" d="M143 114l0 0 1 -12 0 0 29 -9c-3,8 -5,24 -2,34l-28 -13z"/>
     <path class="fil6 str8" d="M170 179l0 0 -7 -8 0 0 13 -27c4,7 14,20 23,25l-29 10z"/>
     <path class="fil6 str8" d="M234 207l0 0 -11 0 0 0 -9 -29c8,3 24,5 34,2l-14 27z"/>
     <path class="fil6 str8" d="M300 182l0 0 -8 7 0 0 -27 -14c7,-3 20,-13 26,-22l9 29z"/>
    </g>
    <circle class="fil7 str7" transform="matrix(3.40101 0.26096 -0.260959 3.40104 235.874 115.047)" r="17"/>
    <circle class="fil2 str3" transform="matrix(2.32696 0.178548 -0.178547 2.32697 234.65 115.528)" r="5"/>
    <circle class="fil6 str7" transform="matrix(2.32696 0.178548 -0.178547 2.32697 236.682 115.723)" r="5"/>
    <g>
     <path class="fil2 str0" d="M264 111l-12 -1 16 25 13 -23 -12 -2c-6,-40 -46,-34 -58,-20 -3,2 1,5 2,4 16,-15 49,-13 51,17z"/>
     <path class="fil3 str1" d="M266 109l-12 -1 16 25 13 -23 -12 -2c-6,-39 -46,-33 -59,-20 -2,3 2,5 3,4 16,-15 49,-12 51,17z"/>
    </g>
   </g>
  </g>
 </g>
</svg>
