<?xml version="1.0" encoding="UTF-8"?>
<!DOCTYPE svg PUBLIC "-//W3C//DTD SVG 1.1//EN" "http://www.w3.org/Graphics/SVG/1.1/DTD/svg11.dtd">
<!-- Creator: CorelDRAW X7 -->
<svg xmlns="http://www.w3.org/2000/svg" xml:space="preserve" width="250px" version="1.1" style="shape-rendering:geometricPrecision; text-rendering:geometricPrecision; image-rendering:optimizeQuality; fill-rule:evenodd; clip-rule:evenodd"
viewBox="0 0 261 64"
 xmlns:xlink="http://www.w3.org/1999/xlink">
 <defs>
  <style type="text/css">
   <![CDATA[
    .fil0 {fill:#337583;fill-rule:nonzero}
    .fil1 {fill:#F5FAA0;fill-rule:nonzero}
    .fil2 {fill:#F5FAA0;fill-rule:nonzero}
   ]]>
  </style>
 </defs>
 <g id="Camada_x0020_1">
  <metadata id="CorelCorpID_0Corel-Layer"/>
  <g id="_896982690976">
   <path class="fil0" d="M4 58l-1 1c0,0 -1,-1 -1,-1 0,0 0,1 0,1 -1,0 -1,0 -1,0 0,0 0,0 1,0 0,0 0,1 0,1 1,0 1,0 1,1 0,0 1,0 1,0 0,0 0,1 0,1 0,0 0,1 -1,1 0,0 0,1 -1,1 0,0 -1,0 -1,-1 0,0 -1,0 -1,-1l1 0c0,0 1,1 1,1 0,0 0,-1 0,-1 1,0 1,0 1,0 0,0 0,0 0,0 -1,-1 -1,-1 -1,-1 -1,-1 -1,-1 -1,-1 -1,-1 -1,-1 -1,-1 0,-1 0,-1 1,-1 0,0 1,-1 1,-1 0,0 1,0 1,1 0,0 0,0 1,0z"/>
   <polygon id="1" class="fil0" points="5,58 6,58 6,63 5,63 "/>
   <path id="2" class="fil0" d="M10 58l-1 1c0,0 0,-1 0,-1 -1,0 -1,1 -1,1 0,0 0,0 0,0 0,0 0,0 0,0 0,0 0,1 1,1 0,0 1,0 1,1 0,0 0,0 0,0 0,0 0,1 0,1 0,0 0,1 0,1 0,0 -1,1 -1,1 -1,0 -1,0 -2,-1 0,0 0,0 0,-1l1 0c0,0 0,1 1,1 0,0 0,-1 0,-1 0,0 0,0 0,0 0,0 0,0 0,0 0,-1 0,-1 -1,-1 0,-1 -1,-1 -1,-1 0,-1 0,-1 0,-1 0,-1 0,-1 0,-1 1,0 1,-1 2,-1 0,0 0,0 0,1 1,0 1,0 1,0z"/>
   <polygon id="3" class="fil0" points="11,58 14,58 14,59 13,59 13,63 12,63 12,59 11,59 "/>
   <polygon id="4" class="fil0" points="15,58 18,58 18,59 16,59 16,60 18,60 18,61 16,61 16,62 18,62 18,63 15,63 "/>
   <polygon id="5" class="fil0" points="20,58 21,58 22,62 24,58 25,58 26,63 25,63 24,60 23,63 22,63 20,60 20,63 19,63 "/>
   <path id="6" class="fil0" d="M28 58l2 0 2 5 -1 0 -1 -1 -2 0 -1 1 -1 0 2 -5zm1 1l-1 2 2 0 -1 -2z"/>
   <polygon id="7" class="fil0" points="35,58 36,58 36,63 35,63 "/>
   <polygon id="8" class="fil0" points="37,58 38,58 41,61 41,58 42,58 42,63 41,63 38,60 38,63 37,63 "/>
   <polygon id="9" class="fil0" points="43,58 46,58 46,59 45,59 45,63 44,63 44,59 43,59 "/>
   <polygon id="10" class="fil0" points="47,58 50,58 50,59 48,59 48,60 50,60 50,61 48,61 48,62 50,62 50,63 47,63 "/>
   <path id="11" class="fil0" d="M57 59l-1 0c-1,0 -1,0 -2,0 -1,0 -1,0 -1,0 -1,0 -1,1 -1,1 0,1 0,2 1,2 0,0 1,1 1,1 1,0 1,-1 1,-1 0,0 1,0 1,0l-2 0 0 -2 3 0 0 1c0,0 0,1 0,1 -1,1 -1,1 -1,1 -1,0 -1,1 -2,1 -1,0 -1,-1 -2,-1 0,0 0,0 -1,-1 0,0 0,-1 0,-2 0,0 0,-1 1,-2 0,0 1,-1 2,-1 1,0 1,0 1,1 1,0 1,0 2,1z"/>
   <path id="12" class="fil0" d="M58 58l1 0c1,0 1,0 2,0 0,0 0,0 0,0 1,1 1,1 1,1 0,1 0,1 -1,1 0,1 0,1 0,1l1 2 -1 0 -2 -2 0 0 0 2 -1 0 0 -5zm1 2l1 0c0,0 0,0 0,0 0,0 1,-1 1,-1 0,0 0,0 -1,0 0,0 0,0 0,0 0,0 0,0 0,0l-1 0 0 1z"/>
   <path id="13" class="fil0" d="M65 58l1 0 2 5 -1 0 -1 -1 -2 0 0 1 -2 0 3 -5zm0 1l-1 2 2 0 -1 -2z"/>
   <path id="14" class="fil0" d="M69 58l1 0c1,0 2,0 2,0 1,0 1,0 1,1 0,0 1,1 1,2 0,0 0,0 -1,1 0,0 0,1 0,1 -1,0 -1,0 -1,0 0,0 -1,0 -2,0l-1 0 0 -5zm1 1l0 3 1 0c0,0 0,0 1,0 0,0 0,0 0,0 0,-1 0,-1 0,-1 0,-1 0,-2 0,-2 0,0 -1,0 -2,0l0 0z"/>
   <path id="15" class="fil0" d="M77 57c1,0 2,1 3,1 0,1 1,2 1,3 0,0 -1,1 -1,2 -1,0 -2,1 -3,1 0,0 -1,-1 -2,-1 0,-1 -1,-2 -1,-2 0,-1 1,-2 1,-2 0,-1 0,-1 1,-1 0,0 1,-1 1,-1zm0 2c0,0 -1,0 -1,0 0,0 0,1 0,2 0,0 0,1 0,1 1,0 1,1 1,1 1,0 1,-1 2,-1 0,0 0,-1 0,-1 0,-1 0,-2 0,-2 -1,0 -1,0 -2,0z"/>
   <path id="16" class="fil0" d="M84 58l1 0c1,0 2,0 2,0 1,0 1,0 1,1 0,0 1,1 1,2 0,0 0,0 -1,1 0,0 0,1 0,1 -1,0 -1,0 -1,0 0,0 -1,0 -2,0l-1 0 0 -5zm1 1l0 3 1 0c0,0 0,0 1,0 0,0 0,0 0,0 0,-1 0,-1 0,-1 0,-1 0,-2 0,-2 0,0 -1,0 -2,0l0 0z"/>
   <polygon id="17" class="fil0" points="90,58 93,58 93,59 91,59 91,60 93,60 93,61 91,61 91,62 93,62 93,63 90,63 "/>
   <path id="18" class="fil0" d="M102 59l-1 0c-1,0 -1,0 -2,0 0,0 -1,0 -1,0 -1,0 -1,1 -1,1 0,1 0,2 1,2 0,0 1,1 1,1 1,0 1,-1 1,-1 0,0 1,0 1,0l-2 0 0 -2 3 0 0 1c0,0 0,1 0,1 -1,1 -1,1 -1,1 -1,0 -1,1 -2,1 0,0 -1,-1 -1,-1 -1,0 -1,0 -2,-1 0,0 0,-1 0,-2 0,0 0,-1 1,-2 0,0 1,-1 2,-1 1,0 1,0 2,1 0,0 0,0 1,1z"/>
   <polygon id="19" class="fil0" points="103,58 106,58 106,59 104,59 104,60 106,60 106,61 104,61 104,62 106,62 106,63 103,63 "/>
   <path id="20" class="fil0" d="M111 58l-1 1c-1,0 -1,-1 -1,-1 0,0 0,1 -1,1 0,0 0,0 0,0 0,0 0,0 0,0 1,0 1,1 1,1 1,0 1,0 1,1 0,0 0,0 1,0 0,0 0,1 0,1 0,0 -1,1 -1,1 0,0 -1,1 -1,1 -1,0 -1,0 -1,-1 -1,0 -1,0 -1,-1l1 0c0,0 1,1 1,1 0,0 0,-1 0,-1 0,0 1,0 1,0 0,0 0,0 -1,0 0,-1 0,-1 0,-1 -1,-1 -1,-1 -1,-1 -1,-1 -1,-1 -1,-1 0,-1 0,-1 1,-1 0,0 0,-1 1,-1 0,0 0,0 1,1 0,0 0,0 1,0z"/>
   <polygon id="21" class="fil0" points="111,58 114,58 114,59 113,59 113,63 112,63 112,59 111,59 "/>
   <path id="22" class="fil0" d="M117 58l1 0 2 5 -1 0 0 -1 -3 0 0 1 -1 0 2 -5zm1 1l-1 2 1 0 0 -2zm-2 -2l0 -1c0,0 1,0 1,0 0,0 0,0 1,0 0,0 0,0 0,0 0,0 1,0 1,0l0 1c0,0 0,0 -1,0 0,0 0,0 0,0 -1,0 -1,0 -1,0 0,0 0,0 0,0 0,0 0,0 -1,0z"/>
   <path id="23" class="fil0" d="M124 57c1,0 2,1 2,1 1,1 1,2 1,3 0,0 0,1 -1,2 0,0 -1,1 -2,1 -1,0 -2,-1 -2,-1 -1,-1 -1,-2 -1,-2 0,-1 0,-2 0,-2 1,-1 1,-1 2,-1 0,0 1,-1 1,-1zm0 2c0,0 -1,0 -1,0 -1,0 -1,1 -1,2 0,0 0,1 1,1 0,0 1,1 1,1 1,0 1,-1 1,-1 1,0 1,-1 1,-1 0,-1 0,-2 -1,-2 0,0 0,0 -1,0z"/>
   <polygon id="24" class="fil0" points="131,58 134,58 134,59 132,59 132,60 134,60 134,61 132,61 132,62 134,62 134,63 131,63 "/>
   <path id="25" class="fil0" d="M143 59l-1 0c-1,0 -1,0 -2,0 -1,0 -1,0 -1,0 -1,0 -1,1 -1,1 0,1 0,2 1,2 0,0 0,1 1,1 0,0 1,-1 1,-1 0,0 1,0 1,0l-2 0 0 -2 3 0 0 1c0,0 0,1 0,1 -1,1 -1,1 -1,1 -1,0 -1,1 -2,1 -1,0 -1,-1 -2,-1 0,0 0,0 -1,-1 0,0 0,-1 0,-2 0,0 0,-1 1,-2 0,0 1,-1 2,-1 1,0 1,0 1,1 1,0 1,0 2,1z"/>
   <polygon id="26" class="fil0" points="144,58 147,58 147,59 145,59 145,60 147,60 147,61 145,61 145,62 147,62 147,63 144,63 "/>
   <path id="27" class="fil0" d="M148 58l2 0c0,0 1,0 1,0 0,0 0,0 1,0 0,1 0,1 0,1 0,1 0,1 0,1 -1,1 -1,1 -1,1l1 2 -1 0 -1 -2 -1 0 0 2 -1 0 0 -5zm1 2l1 0c0,0 0,0 1,0 0,0 0,-1 0,-1 0,0 0,0 0,0 0,0 0,0 -1,0 0,0 0,0 0,0l-1 0 0 1z"/>
   <polygon id="28" class="fil0" points="153,58 156,58 156,59 154,59 154,60 156,60 156,61 154,61 154,62 156,62 156,63 153,63 "/>
   <polygon id="29" class="fil0" points="157,58 158,58 161,61 161,58 162,58 162,63 161,63 158,60 158,63 157,63 "/>
   <path id="30" class="fil0" d="M169 59l-1 0c0,0 -1,-1 -2,-1 0,0 -1,1 -1,1 -1,0 -1,1 -1,1 0,1 0,1 1,2 0,0 0,0 0,0 1,0 1,1 1,1 1,0 1,-1 1,-1 0,0 1,0 1,0l1 0c-1,1 -1,1 -1,1 -1,1 -1,1 -2,1 -1,0 -1,-1 -2,-1 -1,-1 -1,-2 -1,-3 0,0 0,-1 1,-1 0,-1 0,-1 1,-1 0,0 1,-1 1,-1 1,0 1,1 2,1 0,0 1,0 1,1z"/>
   <polygon id="31" class="fil0" points="170,58 171,58 171,63 170,63 "/>
   <path id="32" class="fil0" d="M174 58l1 0 2 5 -1 0 0 -1 -3 0 0 1 -1 0 2 -5zm1 1l-1 2 1 0 0 -2z"/>
   <polygon id="33" class="fil0" points="179,58 180,58 181,62 183,58 184,58 185,63 184,63 183,60 182,63 181,63 180,60 179,63 178,63 "/>
   <polygon id="34" class="fil0" points="186,58 189,58 189,59 187,59 187,60 189,60 189,61 187,61 187,62 189,62 189,63 186,63 "/>
   <polygon id="35" class="fil0" points="190,58 191,58 194,61 194,58 195,58 195,63 194,63 191,60 191,63 190,63 "/>
   <polygon id="36" class="fil0" points="195,58 199,58 199,59 198,59 198,63 197,63 197,59 195,59 "/>
   <path id="37" class="fil0" d="M202 57c1,0 2,1 2,1 1,1 1,2 1,3 0,0 0,1 -1,2 0,0 -1,1 -2,1 -1,0 -1,-1 -2,-1 -1,-1 -1,-2 -1,-2 0,-1 0,-2 1,-2 0,-1 0,-1 1,-1 0,0 1,-1 1,-1zm0 2c0,0 -1,0 -1,0 0,0 -1,1 -1,2 0,0 1,1 1,1 0,0 1,1 1,1 1,0 1,-1 2,-1 0,0 0,-1 0,-1 0,-1 0,-2 0,-2 -1,0 -1,0 -2,0z"/>
   <path id="38" class="fil0" d="M209 58l1 0c1,0 2,0 2,0 0,0 1,0 1,1 0,0 0,1 0,2 0,0 0,0 0,1 0,0 0,1 0,1 -1,0 -1,0 -1,0 -1,0 -1,0 -2,0l-1 0 0 -5zm1 1l0 3 0 0c1,0 1,0 1,0 1,0 1,0 1,0 0,-1 0,-1 0,-1 0,-1 0,-2 0,-2 -1,0 -1,0 -2,0l0 0z"/>
   <polygon id="39" class="fil0" points="214,58 218,58 218,59 216,59 216,60 218,60 218,61 216,61 216,62 218,62 218,63 214,63 "/>
   <path id="40" class="fil0" d="M221 58l1 0c1,0 1,0 2,0 0,0 0,0 0,0 1,1 1,1 1,1 0,1 0,1 -1,1 0,1 0,1 0,1l1 2 -1 0 -2 -2 0 0 0 2 -1 0 0 -5zm1 2l1 0c0,0 0,0 0,0 1,0 1,-1 1,-1 0,0 0,0 -1,0 0,0 0,0 0,0 0,0 0,0 0,0l-1 0 0 1z"/>
   <polygon id="41" class="fil0" points="226,58 229,58 229,59 227,59 227,60 229,60 229,61 227,61 227,62 229,62 229,63 226,63 "/>
   <path id="42" class="fil0" d="M233 58l-1 1c0,0 0,-1 0,-1 -1,0 -1,1 -1,1 0,0 0,0 0,0 0,0 0,0 0,0 0,0 0,1 1,1 0,0 1,0 1,1 0,0 0,0 0,0 0,0 0,1 0,1 0,0 0,1 0,1 0,0 -1,1 -1,1 -1,0 -1,0 -2,-1 0,0 0,0 0,-1l1 0c0,0 0,1 1,1 0,0 0,-1 0,-1 0,0 0,0 0,0 0,0 0,0 0,0 0,-1 0,-1 -1,-1 0,-1 -1,-1 -1,-1 0,-1 0,-1 0,-1 0,-1 0,-1 0,-1 1,0 1,-1 2,-1 0,0 0,0 0,1 1,0 1,0 1,0z"/>
   <path id="43" class="fil0" d="M234 58l1 0 0 5 -1 0 0 -5zm1 -2l1 0 -1 1 -1 0 1 -1z"/>
   <path id="44" class="fil0" d="M237 58l1 0c1,0 2,0 2,0 0,0 1,0 1,1 0,0 0,1 0,2 0,0 0,0 0,1 0,0 0,1 0,1 -1,0 -1,0 -1,0 -1,0 -1,0 -2,0l-1 0 0 -5zm1 1l0 3 0 0c1,0 1,0 1,0 1,0 1,0 1,0 0,-1 0,-1 0,-1 0,-1 0,-2 0,-2 -1,0 -1,0 -2,0l0 0z"/>
   <path id="45" class="fil0" d="M242 58l2 0 0 3c0,1 0,1 0,1 0,0 0,0 0,0 0,0 0,1 0,1 1,0 1,-1 1,-1 0,0 0,0 0,0 0,0 0,0 0,-1l0 -3 1 0 0 3c0,1 0,1 0,1 0,1 0,1 0,1 0,0 0,0 -1,0 0,1 0,1 -1,1 0,0 0,0 -1,-1 0,0 0,0 0,0 0,-1 -1,-1 -1,-2l0 -3z"/>
   <path id="46" class="fil0" d="M251 57c0,0 1,1 2,1 0,1 1,2 1,3 0,0 -1,1 -1,2 -1,0 -2,1 -2,1 -1,0 -2,-1 -3,-1 0,-1 -1,-2 -1,-2 0,-1 1,-2 1,-2 0,-1 1,-1 1,-1 0,0 1,-1 2,-1zm0 2c-1,0 -1,0 -2,0 0,0 0,1 0,2 0,0 0,1 0,1 1,0 1,1 2,1 0,0 1,-1 1,-1 0,0 0,-1 0,-1 0,-1 0,-2 0,-2 0,0 -1,0 -1,0z"/>
   <path id="47" class="fil0" d="M258 58l-1 1c0,0 -1,-1 -1,-1 0,0 0,1 0,1 0,0 0,0 0,0 0,0 0,0 0,0 0,0 0,1 0,1 1,0 1,0 1,1 0,0 1,0 1,0 0,0 0,1 0,1 0,0 0,1 -1,1 0,0 0,1 -1,1 0,0 -1,0 -1,-1 0,0 -1,0 -1,-1l1 0c0,0 1,1 1,1 0,0 0,-1 1,-1 0,0 0,0 0,0 0,0 0,0 0,0 0,-1 -1,-1 -1,-1 -1,-1 -1,-1 -1,-1 0,-1 -1,-1 -1,-1 0,-1 1,-1 1,-1 0,0 1,-1 1,-1 0,0 1,0 1,1 0,0 0,0 1,0z"/>
   <g>
    <g>
     <path class="fil0" d="M60 39c-1,2 -2,3 -4,5 -3,2 -6,3 -9,3 -2,0 -3,0 -5,0 -2,-1 -3,-1 -5,-2 -1,0 -1,1 -2,2 0,1 -1,2 -1,3 0,0 1,1 1,1 0,0 1,0 1,0 0,0 0,0 1,0 0,0 0,0 0,0 0,0 0,0 0,0 0,0 0,0 0,0 0,1 0,2 0,2 -1,1 -2,1 -2,1 -1,0 -2,0 -2,-1 -1,0 -1,-1 -1,-2 0,-1 0,-2 1,-3 0,0 1,-2 2,-5 -1,-1 -3,-3 -4,-5 -1,-2 -1,-5 -1,-7 0,-5 1,-9 4,-13 3,-3 7,-5 11,-5 2,0 4,0 6,1 1,1 2,1 3,1 0,1 1,1 1,1 0,0 1,0 1,0l1 0c0,0 0,0 0,0 1,0 0,0 0,0 0,0 0,1 -1,1 0,1 -1,1 -1,2 -2,2 -5,6 -8,10 -2,4 -5,8 -7,12 1,1 2,1 4,2 1,0 3,0 5,0 2,0 4,0 6,-1 1,-1 2,-2 4,-4 0,0 0,0 0,-1 0,0 0,0 1,0 0,0 0,0 0,1 0,0 0,0 0,1zm-10 -20c0,-1 -1,-2 -2,-3 -2,-1 -3,-1 -5,-1 -3,0 -5,2 -7,5 -2,2 -3,5 -3,9 0,2 1,4 2,6 1,2 2,3 3,4 1,-2 3,-4 3,-5 2,-2 3,-4 4,-5 1,-2 2,-4 3,-6 1,-2 2,-3 2,-4z"/>
     <path class="fil0" d="M0 3l9 0c5,0 8,0 10,0 2,1 5,2 6,4 2,2 3,5 3,7 0,3 -1,5 -2,7 -1,2 -3,3 -5,4 -2,1 -5,1 -9,1l16 21 -5 0 -16 -21 -3 0 0 21 -4 0 0 -44zm4 4l0 15 8 0c3,0 5,0 7,-1 1,0 2,-1 3,-2 1,-2 1,-3 1,-5 0,-1 0,-2 -1,-4 -1,-1 -2,-2 -3,-2 -2,-1 -4,-1 -7,-1l-8 0z"/>
     <path class="fil0" d="M95 1l0 45 -4 0 0 -6c-2,3 -4,4 -6,5 -2,1 -5,2 -7,2 -5,0 -9,-2 -12,-5 -3,-4 -5,-8 -5,-12 0,-5 2,-9 5,-12 3,-4 7,-5 12,-5 2,0 5,0 7,1 2,1 4,3 6,5l0 -18 4 0zm-17 16c-2,0 -4,0 -6,1 -2,2 -4,3 -5,5 -1,2 -2,4 -2,7 0,2 1,4 2,6 1,2 3,4 5,5 2,1 4,2 6,2 2,0 5,-1 7,-2 2,-1 3,-2 4,-4 1,-2 2,-5 2,-7 0,-4 -1,-7 -4,-10 -2,-2 -5,-3 -9,-3z"/>
     <path id="1" class="fil0" d="M106 0c1,0 2,0 2,1 1,1 1,2 1,2 0,1 0,2 -1,3 0,1 -1,1 -2,1 -1,0 -2,0 -2,-1 -1,-1 -1,-2 -1,-3 0,0 0,-1 1,-2 0,-1 1,-1 2,-1zm-2 13l4 0 0 33 -4 0 0 -33z"/>
     <polygon id="2" class="fil0" points="114,2 119,2 134,36 148,2 153,2 134,46 133,46 "/>
     <path id="3" class="fil0" d="M206 13l4 0 0 16c0,3 0,6 1,7 0,2 1,4 3,5 2,1 4,2 6,2 3,0 5,-1 6,-2 2,-1 3,-3 4,-4 0,-2 0,-4 0,-8l0 -16 5 0 0 16c0,5 -1,8 -2,11 -1,2 -3,4 -5,5 -2,1 -5,2 -8,2 -3,0 -6,-1 -8,-2 -2,-1 -3,-3 -4,-6 -2,-2 -2,-5 -2,-10l0 -16z"/>
     <path id="4" class="fil0" d="M260 17l-2 3c-3,-2 -5,-4 -7,-4 -1,0 -3,1 -3,2 -1,1 -2,2 -2,3 0,1 0,2 1,3 1,1 3,2 5,3 3,2 6,4 7,5 1,2 1,3 1,5 0,3 -1,5 -3,7 -1,2 -4,3 -7,3 -1,0 -3,-1 -5,-1 -2,-1 -3,-2 -4,-4l2 -3c3,3 5,4 7,4 2,0 3,-1 5,-2 1,-1 1,-2 1,-4 0,-1 0,-2 -1,-3 -1,-1 -2,-2 -5,-3 -3,-2 -5,-3 -6,-5 -1,-1 -2,-3 -2,-5 0,-2 1,-4 3,-6 1,-2 4,-2 6,-2 3,0 6,1 9,4z"/>
     <path id="5" class="fil0" d="M166 9c0,1 0,1 0,2 -1,0 -2,0 -2,0 -1,0 -2,0 -2,0 -1,-1 -1,-2 -1,-2 0,-1 0,-2 1,-2 0,-1 1,-1 2,-1 0,0 1,0 2,1 0,0 0,1 0,2zm1 36c0,0 0,1 0,1 0,0 0,0 0,0 -1,0 -1,0 -1,0 -1,0 -2,0 -3,0 0,0 -1,0 -1,0 -1,0 -1,0 -2,0 0,0 -1,0 -1,0 0,0 0,-1 1,-1 0,0 1,-1 1,-1 0,0 0,-1 0,-1l0 -20c0,-1 0,-2 0,-2 -1,0 -1,0 -2,0 0,-1 0,-1 0,-1 0,0 0,0 0,0 1,0 1,-1 1,-1 1,0 2,0 2,-1 1,0 2,-1 2,-1 1,-1 1,-1 1,-1 0,0 0,0 0,0 1,0 1,0 1,0 0,1 0,2 -1,3 0,1 0,2 0,3l0 21c0,0 0,1 1,1 0,0 1,1 1,1z"/>
     <path id="6" class="fil0" d="M199 20c0,1 -1,2 -1,4 0,1 -1,2 -1,4 -1,1 -2,2 -2,4 -1,1 -2,3 -3,5 0,0 -1,2 -2,4 -1,1 -2,3 -2,4 -1,1 -1,1 -1,2 0,0 0,0 0,0 -1,0 -1,0 -1,0 0,-1 0,-1 -1,-2 0,-1 -1,-2 -1,-3 -1,-1 -2,-2 -2,-3 -1,-1 -1,-2 -2,-4 -1,-2 -2,-4 -2,-6 -1,-2 -1,-3 -1,-5 -1,-2 -1,-3 -1,-4 0,0 0,-1 -1,-1 0,0 -1,-1 -1,-1 0,0 0,0 0,0 0,-1 0,-1 0,-1 0,0 1,0 2,0 1,0 1,1 2,1 0,0 1,-1 2,-1 1,0 1,0 2,0 0,0 0,0 0,1 0,0 0,0 0,0 -1,0 -1,1 -1,1 -1,0 -1,1 -1,1 0,2 0,4 1,6 0,2 1,4 2,6 1,2 1,4 2,6 1,1 1,2 3,4 0,-2 1,-3 2,-5 1,-3 2,-5 3,-6 1,-2 1,-4 2,-6 1,-2 1,-4 1,-5 0,-1 0,-2 -1,-2 0,-1 -1,-1 -2,-1 0,0 0,0 0,0 -1,0 -1,0 -1,1 0,0 0,0 0,0 0,0 0,0 0,0 0,1 0,1 0,1 0,0 0,0 -1,0 0,0 0,0 0,0 0,0 -1,0 -1,-1 0,0 0,-1 0,-1 0,-1 0,-2 1,-3 0,0 1,-1 2,-1 2,0 3,1 4,2 1,2 2,3 2,5z"/>
    </g>
    <path class="fil1" d="M61 39c-1,2 -2,4 -4,6 -3,2 -6,3 -9,3 -2,0 -4,0 -5,0 -2,-1 -4,-2 -5,-3 -1,1 -1,2 -2,3 0,1 -1,2 -1,2 0,1 0,1 1,2 0,0 0,0 1,0 0,0 0,0 0,0 0,0 1,0 1,0 0,0 0,0 0,0 0,0 0,0 0,0 0,1 0,1 -1,2 0,0 -1,1 -2,1 0,0 -1,-1 -1,-1 -1,-1 -1,-1 -1,-2 0,-1 0,-2 0,-3 1,0 1,-2 3,-5 -2,-1 -3,-3 -4,-5 -1,-2 -1,-5 -2,-7 0,-5 2,-9 5,-13 3,-3 6,-5 11,-5 2,0 4,0 6,1 1,0 2,1 3,1 0,0 0,0 1,0 0,0 0,0 1,0l1 0c0,0 0,0 0,1 0,0 0,0 0,0 0,0 -1,1 -1,1 -1,0 -1,1 -2,1 -2,3 -4,6 -7,10 -3,4 -5,8 -8,12 2,1 3,2 4,2 2,1 4,1 6,1 2,0 4,0 6,-1 1,-1 2,-2 3,-4 0,0 1,-1 1,-1 0,0 0,0 0,0 1,0 1,0 1,1 0,0 0,0 0,0zm-10 -19c0,-2 -1,-3 -3,-3 -1,-1 -2,-1 -4,-1 -3,0 -6,1 -8,4 -2,3 -2,6 -2,10 0,2 0,4 1,6 1,2 2,3 4,4 1,-2 2,-4 3,-5 1,-2 3,-4 4,-5 1,-2 2,-4 3,-6 1,-2 2,-3 2,-4z"/>
    <path class="fil1" d="M1 3l9 0c4,0 8,1 10,1 2,1 4,2 6,4 2,2 2,4 2,7 0,3 0,5 -1,7 -1,1 -3,3 -5,4 -2,1 -5,1 -9,1l16 21 -5 0 -16 -21 -3 0 0 21 -4 0 0 -45zm4 5l0 15 8 0c3,0 5,0 6,-1 2,-1 3,-1 4,-3 0,-1 1,-2 1,-4 0,-1 -1,-3 -1,-4 -1,-1 -2,-2 -4,-2 -1,-1 -3,-1 -6,-1l-8 0z"/>
    <path class="fil1" d="M96 2l0 45 -4 0 0 -6c-2,2 -4,4 -6,5 -3,1 -5,2 -8,2 -4,0 -8,-2 -11,-5 -4,-4 -5,-8 -5,-13 0,-4 1,-8 5,-12 3,-3 7,-5 12,-5 2,0 5,1 7,2 2,1 4,3 6,5l0 -18 4 0zm-17 15c-2,0 -5,1 -7,2 -2,1 -3,3 -4,5 -1,2 -2,4 -2,7 0,2 1,4 2,6 1,2 2,4 4,5 2,1 5,2 7,2 2,0 4,-1 6,-2 2,-1 4,-3 5,-5 1,-2 2,-4 2,-6 0,-4 -1,-7 -4,-10 -2,-2 -5,-4 -9,-4z"/>
    <path id="1" class="fil1" d="M107 1c1,0 1,0 2,1 1,0 1,1 1,2 0,1 0,2 -1,3 -1,0 -1,1 -2,1 -1,0 -2,-1 -3,-1 0,-1 -1,-2 -1,-3 0,-1 1,-2 1,-2 1,-1 2,-1 3,-1zm-2 13l4 0 0 33 -4 0 0 -33z"/>
    <polygon id="2" class="fil1" points="115,3 120,3 134,37 149,3 154,3 135,47 134,47 "/>
    <path id="3" class="fil1" d="M207 14l4 0 0 15c0,4 0,7 0,8 1,2 2,4 4,5 2,1 4,2 6,2 2,0 4,-1 6,-2 2,-1 3,-3 3,-5 1,-1 1,-4 1,-8l0 -15 4 0 0 16c0,5 0,8 -1,10 -1,3 -3,4 -5,6 -2,1 -5,2 -8,2 -3,0 -6,-1 -8,-2 -2,-2 -4,-3 -5,-6 -1,-2 -1,-6 -1,-10l0 -16z"/>
    <path id="4" class="fil1" d="M261 18l-3 2c-2,-2 -4,-3 -6,-3 -2,0 -3,1 -4,2 -1,0 -1,2 -1,3 0,1 0,2 1,3 1,1 2,2 5,3 3,2 5,3 6,5 1,1 2,3 2,5 0,3 -1,5 -3,7 -2,2 -4,3 -7,3 -2,0 -4,-1 -5,-2 -2,0 -3,-2 -4,-3l2 -3c2,2 5,4 7,4 2,0 3,-1 4,-2 1,-1 2,-2 2,-4 0,-1 0,-2 -1,-3 -1,-1 -3,-2 -5,-4 -3,-1 -5,-3 -6,-4 -1,-1 -2,-3 -2,-5 0,-3 1,-5 3,-6 1,-2 3,-3 6,-3 3,0 6,2 9,5z"/>
    <path id="5" class="fil1" d="M167 10c0,0 0,1 -1,1 0,1 -1,1 -2,1 0,0 -1,0 -1,-1 -1,0 -1,-1 -1,-2 0,0 0,-1 1,-1 0,-1 1,-1 2,-1 0,0 1,0 1,1 1,0 1,1 1,2zm1 36c0,0 0,0 0,0 0,1 0,1 0,1 -1,0 -1,0 -1,0 -2,0 -2,0 -3,0 -1,0 -1,0 -2,0 0,0 -1,0 -1,0 -1,0 -1,0 -1,-1 0,0 0,0 0,0 1,-1 1,-1 1,-1 1,0 1,-1 1,-1l0 -20c0,-1 0,-2 -1,-2 0,-1 -1,-1 -1,-1 0,0 0,0 0,0 0,0 0,0 0,-1 0,0 1,0 1,0 1,0 1,-1 2,-1 1,-1 1,-1 2,-1 0,-1 1,-1 1,-1 0,0 0,0 0,0 0,0 1,0 0,0 0,1 0,1 0,2 0,1 0,3 0,4l0 21c0,0 0,1 1,1 0,0 0,1 1,1z"/>
    <path id="6" class="fil1" d="M199 20c0,2 0,3 0,5 -1,1 -1,2 -2,4 0,1 -1,2 -2,4 0,1 -1,3 -2,4 0,1 -1,2 -2,5 -1,1 -2,3 -3,4 0,1 0,1 0,1 0,1 -1,1 -1,1 0,0 0,0 0,-1 0,0 -1,0 -1,-1 0,-1 -1,-2 -2,-3 0,-2 -1,-2 -1,-3 -1,-1 -2,-3 -2,-5 -1,-1 -2,-3 -2,-6 -1,-1 -1,-3 -2,-5 0,-1 0,-2 0,-3 0,0 -1,-1 -1,-1 -1,-1 -1,-1 -1,-1 -1,0 -1,-1 -1,-1 0,0 1,0 1,0 0,0 1,0 1,0 1,0 2,0 3,0 0,0 1,0 2,0 1,0 1,0 1,0 1,0 1,0 1,0 0,1 0,1 0,1 -1,0 -1,0 -2,1 0,0 0,1 0,1 0,2 0,4 1,6 0,2 1,4 1,6 1,2 2,4 3,5 0,1 1,3 2,5 1,-2 2,-4 3,-6 1,-2 2,-4 2,-5 1,-3 2,-4 3,-6 0,-2 1,-4 1,-5 0,-1 -1,-2 -1,-2 -1,-1 -1,-2 -2,-2 0,0 0,0 0,0 -1,0 -1,1 -2,1 0,1 0,1 0,1 0,0 0,0 0,0 0,0 0,1 0,1 0,0 0,0 0,0 0,0 0,0 0,0 -1,0 -1,0 -1,-1 0,0 -1,-1 -1,-1 0,-1 1,-2 1,-3 1,0 2,-1 3,-1 2,0 3,1 4,2 1,1 1,3 1,4z"/>
   </g>
   <path class="fil2" d="M4 59l-1 0c0,0 -1,0 -1,0 0,0 0,0 0,0 0,0 0,0 0,0 0,0 0,0 0,0 0,1 0,1 1,1 0,1 0,1 0,1 1,0 1,0 1,1 0,0 0,0 0,0 0,1 0,1 0,1 -1,1 -1,1 -2,1 0,0 -1,0 -1,0 0,-1 0,-1 -1,-1l1 -1c1,1 1,1 1,1 0,0 1,0 1,0 0,0 0,-1 0,-1 0,0 0,0 0,0 0,0 -1,0 -1,-1 -1,0 -1,-1 -1,-1 0,0 0,-1 0,-1 0,0 0,-1 0,-1 0,0 1,0 1,0 0,0 1,0 1,0 0,0 1,0 1,1z"/>
   <polygon id="1" class="fil2" points="5,58 6,58 6,64 5,64 "/>
   <path id="2" class="fil2" d="M11 59l-1 0c-1,0 -1,0 -1,0 0,0 0,0 -1,0 0,0 0,0 0,0 0,0 0,0 0,0 0,1 1,1 1,1 1,1 1,1 1,1 0,0 0,0 0,1 1,0 1,0 1,0 0,1 -1,1 -1,1 0,1 -1,1 -1,1 -1,0 -1,0 -1,0 -1,-1 -1,-1 -1,-1l1 -1c0,1 0,1 1,1 0,0 0,0 0,0 0,0 1,-1 1,-1 0,0 -1,0 -1,0 0,0 0,0 0,-1 -1,0 -1,-1 -2,-1 0,0 0,-1 0,-1 0,0 0,-1 1,-1 0,0 0,0 1,0 0,0 0,0 1,0 0,0 0,0 1,1z"/>
   <polygon id="3" class="fil2" points="11,58 14,58 14,59 13,59 13,64 12,64 12,59 11,59 "/>
   <polygon id="4" class="fil2" points="15,58 18,58 18,59 16,59 16,60 18,60 18,61 16,61 16,63 18,63 18,64 15,64 "/>
   <polygon id="5" class="fil2" points="20,58 21,58 22,62 24,58 25,58 26,64 25,64 24,60 23,64 22,64 21,60 20,64 19,64 "/>
   <path id="6" class="fil2" d="M29 58l1 0 2 6 -1 0 -1 -1 -2 0 0 1 -2 0 3 -6zm0 1l-1 2 2 0 -1 -2z"/>
   <polygon id="7" class="fil2" points="35,58 36,58 36,64 35,64 "/>
   <polygon id="8" class="fil2" points="38,58 39,58 41,62 41,58 42,58 42,64 41,64 39,60 39,64 38,64 "/>
   <polygon id="9" class="fil2" points="43,58 46,58 46,59 45,59 45,64 44,64 44,59 43,59 "/>
   <polygon id="10" class="fil2" points="47,58 50,58 50,59 48,59 48,60 50,60 50,61 48,61 48,63 50,63 50,64 47,64 "/>
   <path id="11" class="fil2" d="M57 59l-1 1c0,-1 -1,-1 -2,-1 0,0 -1,0 -1,0 -1,1 -1,1 -1,2 0,0 0,1 1,1 0,1 1,1 1,1 1,0 1,0 1,0 1,-1 1,-1 1,-1l-2 0 0 -1 3 0 0 0c0,1 0,1 0,1 0,1 -1,1 -1,2 -1,0 -1,0 -2,0 0,0 -1,0 -1,-1 -1,0 -1,0 -1,-1 -1,0 -1,-1 -1,-1 0,-1 0,-2 1,-2 0,-1 1,-1 2,-1 1,0 1,0 2,0 0,0 0,0 1,1z"/>
   <path id="12" class="fil2" d="M58 58l2 0c0,0 1,0 1,0 0,0 0,0 1,1 0,0 0,0 0,1 0,0 0,0 0,1 -1,0 -1,0 -1,0l1 3 -1 0 -1 -3 -1 0 0 3 -1 0 0 -6zm1 2l1 0c0,0 0,0 1,0 0,0 0,0 0,0 0,-1 0,-1 0,-1 0,0 0,0 -1,0 0,0 0,0 0,0l-1 0 0 1z"/>
   <path id="13" class="fil2" d="M65 58l1 0 2 6 -1 0 0 -1 -3 0 0 1 -1 0 2 -6zm0 1l0 2 1 0 -1 -2z"/>
   <path id="14" class="fil2" d="M69 58l1 0c1,0 2,0 2,0 1,0 1,1 1,1 1,1 1,1 1,2 0,0 0,1 0,1 -1,1 -1,1 -1,1 0,0 -1,1 -1,1 0,0 -1,0 -1,0l-2 0 0 -6zm1 1l0 4 1 0c0,0 1,0 1,-1 0,0 0,0 0,0 1,0 1,-1 1,-1 0,-1 0,-1 -1,-2 0,0 -1,0 -1,0l-1 0z"/>
   <path id="15" class="fil2" d="M78 58c1,0 1,0 2,1 0,0 1,1 1,2 0,1 -1,1 -1,2 -1,1 -1,1 -2,1 -1,0 -2,0 -2,-1 -1,-1 -1,-1 -1,-2 0,-1 0,-1 0,-2 0,0 1,-1 1,-1 1,0 1,0 2,0zm0 1c-1,0 -1,0 -2,0 0,1 0,1 0,2 0,0 0,1 0,1 1,1 1,1 2,1 0,0 1,0 1,-1 0,0 1,-1 1,-1 0,-1 -1,-1 -1,-2 0,0 -1,0 -1,0z"/>
   <path id="16" class="fil2" d="M84 58l1 0c1,0 2,0 2,0 1,0 1,1 1,1 1,1 1,1 1,2 0,0 0,1 0,1 -1,1 -1,1 -1,1 0,0 -1,1 -1,1 0,0 -1,0 -2,0l-1 0 0 -6zm1 1l0 4 1 0c0,0 1,0 1,-1 0,0 0,0 0,0 1,0 1,-1 1,-1 0,-1 0,-1 -1,-2 0,0 -1,0 -1,0l-1 0z"/>
   <polygon id="17" class="fil2" points="90,58 93,58 93,59 91,59 91,60 93,60 93,61 91,61 91,63 93,63 93,64 90,64 "/>
   <path id="18" class="fil2" d="M102 59l-1 1c0,-1 -1,-1 -2,-1 0,0 -1,0 -1,0 0,1 -1,1 -1,2 0,0 1,1 1,1 0,1 1,1 1,1 1,0 1,0 1,0 1,-1 1,-1 1,-1l-2 0 0 -1 3 0 0 0c0,1 0,1 0,1 0,1 -1,1 -1,2 0,0 -1,0 -2,0 0,0 -1,0 -1,-1 -1,0 -1,0 -1,-1 -1,0 -1,-1 -1,-1 0,-1 0,-2 1,-2 1,-1 1,-1 2,-1 1,0 1,0 2,0 0,0 1,0 1,1z"/>
   <polygon id="19" class="fil2" points="103,58 107,58 107,59 105,59 105,60 107,60 107,61 105,61 105,63 107,63 107,64 103,64 "/>
   <path id="20" class="fil2" d="M111 59l-1 0c0,0 -1,0 -1,0 0,0 0,0 0,0 0,0 0,0 0,0 0,0 0,0 0,0 0,1 0,1 0,1 1,1 1,1 1,1 0,0 1,0 1,1 0,0 0,0 0,0 0,1 0,1 -1,1 0,1 0,1 -1,1 0,0 -1,0 -1,0 0,-1 -1,-1 -1,-1l1 -1c0,1 1,1 1,1 0,0 0,0 1,0 0,0 0,-1 0,-1 0,0 0,0 0,0 0,0 -1,0 -1,-1 -1,0 -1,-1 -1,-1 0,0 -1,-1 -1,-1 0,0 1,-1 1,-1 0,0 1,0 1,0 0,0 1,0 1,0 0,0 0,0 1,1z"/>
   <polygon id="21" class="fil2" points="111,58 115,58 115,59 114,59 114,64 112,64 112,59 111,59 "/>
   <path id="22" class="fil2" d="M117 58l1 0 3 6 -2 0 0 -1 -2 0 -1 1 -1 0 2 -6zm1 1l-1 2 2 0 -1 -2zm-1 -2l-1 0c0,-1 1,-1 1,-1 0,0 1,0 1,0 0,0 0,1 0,1 1,0 1,-1 1,-1l0 1c0,0 0,0 -1,0 0,0 0,0 0,0 0,0 0,0 0,0 -1,0 -1,0 -1,0 0,0 0,0 0,0z"/>
   <path id="23" class="fil2" d="M124 58c1,0 2,0 2,1 1,0 1,1 1,2 0,1 0,1 -1,2 0,1 -1,1 -2,1 -1,0 -1,0 -2,-1 0,-1 -1,-1 -1,-2 0,-1 0,-1 1,-2 0,0 0,-1 1,-1 0,0 1,0 1,0zm0 1c0,0 -1,0 -1,0 0,1 -1,1 -1,2 0,0 1,1 1,1 0,1 1,1 1,1 1,0 1,0 2,-1 0,0 0,-1 0,-1 0,-1 0,-1 0,-2 -1,0 -1,0 -2,0z"/>
   <polygon id="24" class="fil2" points="131,58 134,58 134,59 132,59 132,60 134,60 134,61 132,61 132,63 134,63 134,64 131,64 "/>
   <path id="25" class="fil2" d="M143 59l-1 1c0,-1 -1,-1 -2,-1 0,0 -1,0 -1,0 -1,1 -1,1 -1,2 0,0 0,1 1,1 0,1 1,1 1,1 1,0 1,0 1,0 1,-1 1,-1 1,-1l-2 0 0 -1 3 0 0 0c0,1 0,1 0,1 0,1 -1,1 -1,2 -1,0 -1,0 -2,0 0,0 -1,0 -1,-1 -1,0 -1,0 -2,-1 0,0 0,-1 0,-1 0,-1 0,-2 1,-2 0,-1 1,-1 2,-1 1,0 1,0 2,0 0,0 0,0 1,1z"/>
   <polygon id="26" class="fil2" points="144,58 147,58 147,59 145,59 145,60 147,60 147,61 145,61 145,63 147,63 147,64 144,64 "/>
   <path id="27" class="fil2" d="M149 58l1 0c0,0 1,0 1,0 0,0 1,0 1,1 0,0 0,0 0,1 0,0 0,0 0,1 0,0 -1,0 -1,0l1 3 -1 0 -1 -3 0 0 0 3 -1 0 0 -6zm1 2l0 0c0,0 1,0 1,0 0,0 0,0 0,0 0,-1 0,-1 0,-1 0,0 0,0 0,0 0,0 -1,0 -1,0l0 0 0 1z"/>
   <polygon id="28" class="fil2" points="153,58 157,58 157,59 154,59 154,60 157,60 157,61 154,61 154,63 157,63 157,64 153,64 "/>
   <polygon id="29" class="fil2" points="158,58 159,58 161,62 161,58 162,58 162,64 161,64 159,60 159,64 158,64 "/>
   <path id="30" class="fil2" d="M169 59l-1 1c0,-1 -1,-1 -1,-1 -1,0 -2,0 -2,0 0,1 0,1 0,2 0,0 0,1 0,1 0,0 0,0 0,1 1,0 1,0 2,0 0,0 0,0 0,0 1,0 1,-1 1,-1l1 1c0,0 -1,0 -1,1 -1,0 -1,0 -1,0 -1,0 -2,0 -3,-1 0,-1 -1,-1 -1,-2 0,-1 1,-1 1,-2 0,0 0,-1 1,-1 0,0 1,0 2,0 0,0 0,0 1,0 0,0 1,0 1,1z"/>
   <polygon id="31" class="fil2" points="170,58 171,58 171,64 170,64 "/>
   <path id="32" class="fil2" d="M174 58l1 0 3 6 -2 0 0 -1 -2 0 -1 1 -1 0 2 -6zm1 1l-1 2 2 0 -1 -2z"/>
   <polygon id="33" class="fil2" points="179,58 180,58 182,62 183,58 184,58 185,64 184,64 183,60 182,64 181,64 180,60 179,64 178,64 "/>
   <polygon id="34" class="fil2" points="186,58 189,58 189,59 187,59 187,60 189,60 189,61 187,61 187,63 189,63 189,64 186,64 "/>
   <polygon id="35" class="fil2" points="190,58 191,58 194,62 194,58 195,58 195,64 194,64 191,60 191,64 190,64 "/>
   <polygon id="36" class="fil2" points="196,58 199,58 199,59 198,59 198,64 197,64 197,59 196,59 "/>
   <path id="37" class="fil2" d="M203 58c0,0 1,0 2,1 0,0 1,1 1,2 0,1 -1,1 -1,2 -1,1 -2,1 -2,1 -1,0 -2,0 -3,-1 0,-1 -1,-1 -1,-2 0,-1 1,-1 1,-2 0,0 1,-1 1,-1 0,0 1,0 2,0zm0 1c-1,0 -1,0 -2,0 0,1 0,1 0,2 0,0 0,1 0,1 1,1 1,1 2,1 0,0 1,0 1,-1 0,0 0,-1 0,-1 0,-1 0,-1 0,-2 0,0 -1,0 -1,0z"/>
   <path id="38" class="fil2" d="M209 58l1 0c1,0 2,0 2,0 1,0 1,1 1,1 1,1 1,1 1,2 0,0 0,1 -1,1 0,1 0,1 0,1 0,0 -1,1 -1,1 0,0 -1,0 -2,0l-1 0 0 -6zm1 1l0 4 1 0c0,0 0,0 1,-1 0,0 0,0 0,0 0,0 1,-1 1,-1 0,-1 -1,-1 -1,-2 0,0 -1,0 -2,0l0 0z"/>
   <polygon id="39" class="fil2" points="215,58 218,58 218,59 216,59 216,60 218,60 218,61 216,61 216,63 218,63 218,64 215,64 "/>
   <path id="40" class="fil2" d="M221 58l2 0c0,0 1,0 1,0 0,0 0,0 1,1 0,0 0,0 0,1 0,0 0,0 0,1 -1,0 -1,0 -1,0l1 3 -1 0 -1 -3 0 0 0 3 -2 0 0 -6zm2 2l0 0c0,0 0,0 1,0 0,0 0,0 0,0 0,-1 0,-1 0,-1 0,0 0,0 -1,0 0,0 0,0 0,0l0 0 0 1z"/>
   <polygon id="41" class="fil2" points="226,58 229,58 229,59 227,59 227,60 229,60 229,61 227,61 227,63 229,63 229,64 226,64 "/>
   <path id="42" class="fil2" d="M233 59l0 0c-1,0 -1,0 -1,0 0,0 -1,0 -1,0 0,0 0,0 0,0 0,0 0,0 0,0 0,1 1,1 1,1 1,1 1,1 1,1 0,0 0,0 0,1 1,0 1,0 1,0 0,1 -1,1 -1,1 0,1 -1,1 -1,1 -1,0 -1,0 -1,0 -1,-1 -1,-1 -1,-1l1 -1c0,1 0,1 1,1 0,0 0,0 0,0 0,0 0,-1 0,-1 0,0 0,0 0,0 0,0 0,0 0,-1 -1,0 -1,-1 -2,-1 0,0 0,-1 0,-1 0,0 0,-1 1,-1 0,0 0,0 1,0 0,0 0,0 1,0 0,0 0,0 0,1z"/>
   <path id="43" class="fil2" d="M235 58l1 0 0 6 -1 0 0 -6zm0 -2l2 0 -2 1 -1 0 1 -1z"/>
   <path id="44" class="fil2" d="M237 58l1 0c1,0 2,0 2,0 1,0 1,1 1,1 1,1 1,1 1,2 0,0 0,1 -1,1 0,1 0,1 0,1 0,0 -1,1 -1,1 0,0 -1,0 -2,0l-1 0 0 -6zm1 1l0 4 1 0c0,0 0,0 1,-1 0,0 0,0 0,0 0,0 1,-1 1,-1 0,-1 -1,-1 -1,-2 0,0 -1,0 -2,0l0 0z"/>
   <path id="45" class="fil2" d="M243 58l1 0 0 4c0,0 0,0 0,0 0,0 0,1 0,1 0,0 0,0 1,0 0,0 0,0 0,0 0,0 0,-1 0,-1 1,0 1,0 1,0l0 -4 1 0 0 3c0,1 0,1 0,2 0,0 -1,0 -1,0 0,0 0,1 0,1 -1,0 -1,0 -1,0 -1,0 -1,0 -1,0 -1,-1 -1,-1 -1,-1 0,0 0,-1 0,-2l0 -3z"/>
   <path id="46" class="fil2" d="M251 58c1,0 1,0 2,1 1,0 1,1 1,2 0,1 0,1 -1,2 -1,1 -1,1 -2,1 -1,0 -2,0 -2,-1 -1,-1 -1,-1 -1,-2 0,-1 0,-1 0,-2 0,0 1,-1 1,-1 1,0 1,0 2,0zm0 1c-1,0 -1,0 -2,0 0,1 0,1 0,2 0,0 0,1 1,1 0,1 0,1 1,1 0,0 1,0 1,-1 1,0 1,-1 1,-1 0,-1 0,-1 -1,-2 0,0 -1,0 -1,0z"/>
   <path id="47" class="fil2" d="M258 59l-1 0c0,0 0,0 -1,0 0,0 0,0 0,0 0,0 0,0 0,0 0,0 0,0 0,0 0,1 0,1 1,1 0,1 0,1 0,1 1,0 1,0 1,1 0,0 0,0 0,0 0,1 0,1 0,1 -1,1 -1,1 -2,1 0,0 0,0 -1,0 0,-1 0,-1 -1,-1l1 -1c1,1 1,1 1,1 1,0 1,0 1,0 0,0 0,-1 0,-1 0,0 0,0 0,0 0,0 0,0 -1,-1 0,0 -1,-1 -1,-1 0,0 0,-1 0,-1 0,0 0,-1 0,-1 0,0 1,0 1,0 1,0 1,0 1,0 0,0 1,0 1,1z"/>
  </g>
 </g>
</svg>
