<?xml version="1.0" encoding="utf-8"?>
<!DOCTYPE svg PUBLIC "-//W3C//DTD SVG 1.1//EN" "http://www.w3.org/Graphics/SVG/1.1/DTD/svg11.dtd">
<svg version="1.1" id="Camada_1" fill="#FFFFFF" xmlns="http://www.w3.org/2000/svg" xmlns:xlink="http://www.w3.org/1999/xlink" x="0px" y="0px"
	 width="400px" height="400px" viewBox="0 0 400 400" enable-background="new 0 0 400 400" xml:space="preserve">
<polygon points="183.885,250.832 157.547,231.699 147.487,200.736 157.547,169.774 183.885,150.639 216.439,150.639 
	242.777,169.774 252.837,200.736 242.777,231.699 216.439,250.832 "/>
<g>
	<polygon points="246.235,58.939 200.162,25.465 154.09,58.939 171.688,113.101 228.638,113.101 	"/>
	<polygon points="320.782,113.101 274.709,146.575 292.308,200.736 349.257,200.736 366.854,146.575 	"/>
	<polygon points="79.542,288.371 97.141,342.533 154.09,342.533 171.688,288.371 125.615,254.898 	"/>
	<polygon points="228.638,288.371 246.235,342.533 303.185,342.533 320.782,288.371 274.709,254.898 	"/>
	<polygon points="125.615,146.575 79.542,113.101 33.471,146.575 51.068,200.736 108.018,200.736 	"/>
</g>
<g>
	<polygon points="339.73,87.083 293.657,120.557 247.585,87.083 265.183,32.921 	"/>
	<polygon points="134.809,32.379 152.406,86.541 106.334,120.015 60.262,86.541 	"/>
	<polygon points="77.15,210.736 94.748,264.898 48.676,298.371 20.201,210.736 	"/>
	<polygon points="379.799,210.736 351.324,298.371 305.251,264.898 322.85,210.736 	"/>
	<polygon points="228.637,320.373 246.234,374.535 154.09,374.535 171.688,320.373 	"/>
</g>
</svg>
