<?xml version="1.0" encoding="utf-8"?>
<!-- Generator: Adobe Illustrator 16.0.0, SVG Export Plug-In . SVG Version: 6.00 Build 0)  -->
<!DOCTYPE svg PUBLIC "-//W3C//DTD SVG 1.1//EN" "http://www.w3.org/Graphics/SVG/1.1/DTD/svg11.dtd">
<svg version="1.1" id="Camada_1" fill="#FFFFFF"  xmlns="http://www.w3.org/2000/svg" xmlns:xlink="http://www.w3.org/1999/xlink" x="0px" y="0px"
	 width="400px" height="400px" viewBox="0 0 400 400" enable-background="new 0 0 400 400" xml:space="preserve">
<path d="M302.815,264.233l18.496-56.927h24.041l1.949-6H290.77l-18.496-56.925l45.659-33.173l-5.029-3.652L293.572,121.6
	l-48.423-35.183l7.383-22.725l-5.087-3.696l-17.438,53.675H170.15l-17.469-53.766l-5.215,3.788l7.207,22.182l-48.424,35.183
	L87.382,107.35l-5.235,3.804l45.736,33.229l-18.496,56.926H52.698l1.949,6H78.52l18.496,56.926l-19.313,14.031l1.967,6.053
	l45.861-33.319l48.423,35.183l-17.517,53.912h6.19l7.521-23.147h59.855l7.521,23.147h6.192L226.2,286.181l48.423-35.183
	l45.736,33.229l1.904-5.862L302.815,264.233z M244.394,231.505l-27.389,19.898H183.15l-27.389-19.898L145.3,199.306l10.462-32.197
	l27.389-19.898h33.854l27.389,19.898l10.461,32.197L244.394,231.505z"/>
</svg>
