<?xml version="1.0" encoding="utf-8"?>
<!DOCTYPE svg PUBLIC "-//W3C//DTD SVG 1.1//EN" "http://www.w3.org/Graphics/SVG/1.1/DTD/svg11.dtd">
<svg version="1.1" id="Camada_1" fill="#FFFFFF" xmlns="http://www.w3.org/2000/svg" xmlns:xlink="http://www.w3.org/1999/xlink" x="0px" y="0px"
	 width="400px" height="400px" viewBox="0 0 400 400" enable-background="new 0 0 400 400" xml:space="preserve">
<g>
	<path d="M272.358,146.047l18.496,56.926h59.854l18.496-56.926l-48.422-35.182L272.358,146.047z M349.257,200.972h-56.949
		l-17.599-54.16l46.074-33.475l46.071,33.475L349.257,200.972z"/>
	<path d="M109.471,202.972l18.496-56.926l-48.425-35.182L31.12,146.047l18.496,56.926H109.471z M79.542,113.338l46.074,33.475
		l-17.599,54.16H51.068l-17.598-54.16L79.542,113.338z"/>
	<path d="M154.758,87.541L135.86,29.379L56.859,86.777l49.476,35.945L154.758,87.541z M134.809,32.615l17.599,54.162l-46.072,33.475
		L60.262,86.777L134.809,32.615z"/>
	<path d="M230.091,115.338l18.495-56.926L200.163,23.23l-48.424,35.182l18.496,56.926H230.091z M200.163,25.701l46.072,33.475
		l-17.598,54.162h-56.95L154.09,59.176L200.163,25.701z"/>
	<path d="M244.479,168.775l-27.389-19.898h-33.854l-27.389,19.898l-10.462,32.197l10.462,32.197l27.389,19.898h33.854l27.389-19.898
		l10.462-32.197L244.479,168.775z M242.777,231.935L216.44,251.07h-32.555l-26.337-19.135l-10.06-30.963l10.06-30.963l26.337-19.135
		h32.555l26.339,19.135l10.059,30.963L242.777,231.935z"/>
	<path d="M226.287,287.844l18.496,56.926h59.854l18.496-56.926l-48.425-35.182L226.287,287.844z M303.185,342.769h-56.949
		l-17.598-54.16l46.071-33.475l46.074,33.473L303.185,342.769z"/>
	<path d="M321.396,208.972L302.9,265.898l49.475,35.945l30.177-92.871H321.396z M351.324,298.607l-46.072-33.475l17.598-54.16
		h56.949L351.324,298.607z"/>
	<path d="M78.604,208.972H17.448l30.176,92.871L97.1,265.898L78.604,208.972z M20.202,210.972H77.15l17.599,54.162l-46.073,33.475
		L20.202,210.972z"/>
	<path d="M170.234,318.609l-18.897,58.16h97.651l-18.897-58.16H170.234z M154.09,374.771l17.598-54.162h56.949l17.598,54.162H154.09
		z"/>
	<path d="M174.038,287.844l-48.422-35.182l-48.425,35.182l18.496,56.926h59.854L174.038,287.844z M97.141,342.769l-17.599-54.16
		l46.074-33.475l46.071,33.475l-17.598,54.16H97.141z"/>
	<path d="M293.658,123.265l49.476-35.945l-79.001-57.398l-18.897,58.162L293.658,123.265z M265.183,33.158l74.547,54.162
		l-46.073,33.473L247.584,87.32L265.183,33.158z"/>
</g>
</svg>
