<?xml version="1.0" encoding="utf-8"?>
<!-- Generator: Adobe Illustrator 16.0.0, SVG Export Plug-In . SVG Version: 6.00 Build 0)  -->
<!DOCTYPE svg PUBLIC "-//W3C//DTD SVG 1.1//EN" "http://www.w3.org/Graphics/SVG/1.1/DTD/svg11.dtd">
<svg version="1.1" id="Layer_1" xmlns="http://www.w3.org/2000/svg" xmlns:xlink="http://www.w3.org/1999/xlink" x="0px" y="0px"
	 width="40px" height="40px" viewBox="0 0 40 40" enable-background="new 0 0 40 40" xml:space="preserve">
<g id="Notepad">
</g>
<path fill="#C2DB75" d="M36.641,35.262c-3.89,0-7.729,0-11.611,0c-0.1-0.732-0.203-1.459-0.299-2.187
	c-0.312-2.37-0.617-4.74-0.938-7.107c-0.027-0.213-0.008-0.334,0.182-0.465c0.459-0.319,0.691-0.778,0.693-1.346
	c0.002-0.351,0.004-0.701,0-1.052c-0.009-1.039-0.695-1.744-1.738-1.767c-0.714-0.014-1.428-0.001-2.143-0.001
	c-0.122,0-0.245,0-0.457,0c0.518-0.771,1.146-1.237,1.965-1.444c0.24-0.061,0.495-0.083,0.743-0.084
	c3.17-0.006,6.34-0.008,9.509-0.002c1.482,0.003,2.707,1.188,2.844,2.668c0.223,2.431,0.48,4.856,0.719,7.285
	C36.288,31.58,36.46,33.396,36.641,35.262z"/>
<path fill="#C2DB75" d="M30.188,15.224c1.029,0,2.006-0.005,2.98,0.001c3.032,0.019,5.453,2.424,5.523,5.451
	c0.1,4.27,0.22,8.541,0.332,12.811c0.027,1.003-0.568,1.703-1.523,1.721c-0.072-0.698-0.148-1.402-0.218-2.107
	c-0.188-1.932-0.368-3.863-0.558-5.795c-0.162-1.67-0.346-3.337-0.496-5.008c-0.162-1.826-1.766-3.39-3.602-3.404
	c-3.27-0.024-6.54-0.04-9.811,0.011c-1.479,0.023-2.563,0.84-3.294,2.106c-0.134,0.232-0.275,0.299-0.526,0.295
	c-0.772-0.012-1.547-0.005-2.313-0.005c-0.322-2.83,1.831-5.628,4.625-5.988c0.875-0.114,1.772-0.067,2.662-0.087
	c0.385-0.009,0.771-0.001,1.204-0.001c0-0.177,0-0.323,0-0.468c0-2.519-0.005-5.038,0.003-7.555
	c0.004-1.124,0.723-2.067,1.783-2.383c1.075-0.32,2.204,0.097,2.82,1.045C30.085,6.33,30.188,6.85,30.188,7.4
	c-0.004,2.494-0.002,4.987-0.002,7.48C30.188,14.977,30.188,15.075,30.188,15.224z"/>
<path fill="#F5FAA0" d="M15.211,21.917c1.585,0,3.111,0.001,4.638,0c1.015,0,2.029-0.002,3.043,0.001
	c0.734,0.002,1.194,0.457,1.207,1.191c0.004,0.314,0.006,0.627,0,0.939c-0.014,0.76-0.459,1.215-1.226,1.219
	c-1.554,0.012-3.107,0.006-4.661,0.006c-5.187,0-10.373-0.002-15.561-0.004c-0.982,0-1.385-0.41-1.384-1.397
	c0-0.238-0.001-0.478,0-0.714c0.006-0.791,0.447-1.238,1.232-1.24c2.418-0.002,4.836-0.002,7.254-0.002c0.137,0,0.271,0,0.452,0
	c0-0.176,0-0.32,0-0.467c0.001-4.748-0.001-9.497,0.005-14.245c0.001-1.141,0.732-2.095,1.809-2.398
	c1.087-0.307,2.277,0.128,2.809,1.128c0.23,0.434,0.363,0.973,0.366,1.465c0.027,4.648,0.016,9.296,0.016,13.944
	C15.211,21.518,15.211,21.691,15.211,21.917z"/>
<path fill="#FFFFFF" d="M20.861,35.275c-0.279-3.012-0.558-6.008-0.841-9.053c0.755,0,1.453-0.006,2.151,0.002
	c0.347,0.004,0.79-0.098,1.015,0.076c0.192,0.151,0.146,0.62,0.19,0.951c0.343,2.564,0.683,5.131,1.021,7.698
	c0.014,0.096,0.002,0.196,0.002,0.325C23.238,35.275,22.081,35.275,20.861,35.275z"/>
<path fill="#FFFFFF" d="M4.159,35.286c-1.077,0-2.112,0-3.186,0c0.104-0.849,0.202-1.675,0.308-2.499
	c0.266-2.084,0.532-4.168,0.811-6.25c0.015-0.112,0.137-0.301,0.214-0.303c0.86-0.021,1.723-0.012,2.658-0.012
	C4.693,29.255,4.428,32.249,4.159,35.286z"/>
<path fill="#FFFFFF" d="M12.955,26.239c0.973,0,1.906,0,2.87,0c0,3.017,0,6.014,0,9.038c-0.951,0-1.896,0-2.87,0
	C12.955,32.275,12.955,29.277,12.955,26.239z"/>
<path fill="#FFFFFF" d="M9.183,26.225c0.912,0,1.787-0.008,2.661,0.014c0.072,0.002,0.2,0.193,0.202,0.3
	c0.016,1.052,0.01,2.104,0.01,3.155c0,1.729,0,3.455-0.002,5.185c0,0.122-0.013,0.244-0.021,0.381c-0.963,0-1.895,0-2.851,0
	C9.183,32.25,9.183,29.266,9.183,26.225z"/>
<path fill="#FFFFFF" d="M19.976,35.291c-1.097,0-2.133,0-3.197,0c0-3.007,0-6.004,0-9.036c0.769,0,1.546,0,2.353,0
	C19.412,29.26,19.691,32.255,19.976,35.291z"/>
<path fill="#FFFFFF" d="M8.241,35.289c-1.063,0-2.099,0-3.192,0c0.268-3.012,0.533-6.007,0.802-9.035c0.797,0,1.577,0,2.391,0
	C8.241,29.252,8.241,32.25,8.241,35.289z"/>
</svg>
