<?xml version="1.0" encoding="utf-8"?>
<!-- Generator: Adobe Illustrator 16.0.0, SVG Export Plug-In . SVG Version: 6.00 Build 0)  -->
<!DOCTYPE svg PUBLIC "-//W3C//DTD SVG 1.1//EN" "http://www.w3.org/Graphics/SVG/1.1/DTD/svg11.dtd">
<svg version="1.1" id="Layer_1" xmlns="http://www.w3.org/2000/svg" xmlns:xlink="http://www.w3.org/1999/xlink" x="0px" y="0px"
	 width="40px" height="40px" viewBox="0 0 40 40" enable-background="new 0 0 40 40" xml:space="preserve">
<g id="Notepad">
</g>
<path fill="#F5FAA0" d="M14.649,22.275c-2.95-0.002-5.901,0.002-8.851-0.004C5.03,22.27,4.379,22.529,3.861,23.09
	c-0.314,0.342-0.687,0.493-1.144,0.475c-0.254-0.01-0.51,0-0.765-0.004c-1.08-0.013-1.672-0.955-1.193-1.929
	c0.829-1.682,1.673-3.354,2.512-5.031c0.718-1.437,1.448-2.869,2.152-4.313c0.531-1.091,1.377-1.614,2.594-1.609
	c3.701,0.013,7.403,0.001,11.104,0.009c0.538,0.001,1.026-0.126,1.506-0.356c0.637-0.308,1.23-0.714,1.934-0.874
	c0.129-0.029,0.265-0.059,0.396-0.059c1.543-0.004,3.084-0.007,4.627-0.001c0.416,0.003,0.685,0.263,0.69,0.629
	c0.006,0.365-0.262,0.627-0.668,0.658c-1.576,0.115-2.547,1.159-2.547,2.737c0,2.453,0.002,4.907,0.002,7.361
	c0,0.984-0.496,1.488-1.479,1.49C20.604,22.275,17.627,22.275,14.649,22.275z M15.589,13.26c-0.86,0-1.65,0.012-2.439-0.007
	c-0.255-0.006-0.378,0.085-0.486,0.305c-0.588,1.201-1.188,2.396-1.786,3.593c-0.415,0.832-0.832,1.664-1.273,2.549
	c0.86,0,1.659-0.01,2.458,0.005c0.235,0.004,0.35-0.076,0.453-0.286c0.551-1.129,1.119-2.25,1.682-3.374
	C14.651,15.138,15.104,14.231,15.589,13.26z M10.245,13.26c-0.828,0-1.6,0.013-2.372-0.007c-0.269-0.008-0.401,0.082-0.518,0.319
	c-0.901,1.825-1.818,3.641-2.721,5.466c-0.103,0.205-0.29,0.379-0.299,0.661c0.807,0,1.597-0.012,2.387,0.006
	c0.239,0.005,0.357-0.081,0.459-0.288c0.662-1.345,1.337-2.684,2.006-4.025C9.532,14.7,9.875,14.007,10.245,13.26z M20.703,13.26
	c-0.828,0-1.592,0.021-2.353-0.012c-0.314-0.013-0.463,0.131-0.58,0.366c-0.956,1.929-1.908,3.857-2.86,5.786
	c-0.042,0.088-0.141,0.167-0.067,0.299c0.8,0,1.603-0.007,2.406,0.004c0.196,0.003,0.28-0.084,0.358-0.243
	c0.315-0.649,0.643-1.294,0.966-1.939C19.272,16.123,19.971,14.726,20.703,13.26z M22.482,14.706
	c-0.025-0.005-0.051-0.008-0.075-0.012c-0.824,1.649-1.647,3.299-2.499,5.004c0.833,0,1.605-0.004,2.376,0.002
	c0.167,0.001,0.198-0.077,0.198-0.221C22.48,17.888,22.482,16.297,22.482,14.706z"/>
<path fill="#C1DA74" d="M27.786,28.699c-2.681,0-5.347,0-8.023,0c0.42-1.975-0.089-3.66-1.52-5.084
	c0.111-0.105,0.25-0.049,0.37-0.051c2.44-0.004,4.881-0.01,7.321,0.004c0.322,0.004,0.422-0.057,0.42-0.403
	c-0.015-3.231-0.01-6.463-0.008-9.695c0-1.002,0.498-1.498,1.508-1.498c1.932-0.001,3.862,0.005,5.793-0.001
	c1.011-0.005,1.813,0.399,2.313,1.264c1.038,1.793,2.033,3.61,3.039,5.421c0.171,0.309,0.224,0.654,0.224,1.008
	c0,2.48-0.004,4.962,0.008,7.443c0.002,0.269-0.076,0.344-0.334,0.324c-0.293-0.022-0.643,0.086-0.869-0.037
	c-0.229-0.123-0.108-0.509-0.151-0.774c-0.381-2.367-2.401-4.228-4.745-4.341c-2.548-0.121-4.742,1.484-5.344,3.902
	C27.579,27.018,27.588,27.85,27.786,28.699z M36.596,19.699c-0.007-0.062-0.003-0.09-0.014-0.11
	c-0.904-1.624-1.813-3.244-2.709-4.87c-0.092-0.166-0.208-0.175-0.359-0.175c-1.437,0.004-2.871,0.009-4.306-0.001
	c-0.226-0.001-0.293,0.057-0.291,0.286c0.01,1.529,0.009,3.059,0,4.588c-0.003,0.228,0.063,0.287,0.289,0.286
	C31.66,19.695,34.113,19.699,36.596,19.699z"/>
<path fill="#C1DA74" d="M10.884,27.923c-0.522,2.578-2.614,3.537-4.253,3.347c-1.966-0.229-3.437-1.84-3.464-3.75
	c-0.03-2.02,1.391-3.664,3.437-3.934c1.522-0.2,3.712,0.633,4.298,3.391c0.227-1.246,0.789-2.162,1.764-2.789
	s2.031-0.785,3.15-0.472c1.76,0.496,2.939,2.188,2.796,4.015c-0.146,1.855-1.629,3.358-3.507,3.547
	C13.133,31.479,11.575,30.262,10.884,27.923z M7.02,26.139c-0.702,0.004-1.275,0.577-1.278,1.277
	c-0.003,0.723,0.576,1.301,1.298,1.296c0.701-0.003,1.273-0.573,1.277-1.276C8.321,26.714,7.74,26.133,7.02,26.139z M14.743,28.712
	c0.705,0.006,1.286-0.554,1.3-1.253c0.015-0.723-0.556-1.314-1.273-1.32c-0.706-0.006-1.287,0.555-1.301,1.252
	C13.454,28.114,14.024,28.706,14.743,28.712z"/>
<path fill="#C1DA74" d="M36.648,27.459c-0.012,2.113-1.762,3.837-3.887,3.83c-2.133-0.008-3.857-1.768-3.841-3.917
	c0.017-2.108,1.777-3.824,3.906-3.812C34.939,23.576,36.659,25.33,36.648,27.459z M32.786,26.139c-0.704,0-1.28,0.564-1.288,1.266
	c-0.01,0.724,0.566,1.309,1.286,1.309c0.704,0.001,1.278-0.564,1.286-1.265C34.082,26.725,33.506,26.139,32.786,26.139z"/>
</svg>
