<?xml version="1.0" encoding="utf-8"?>
<!-- Generator: Adobe Illustrator 16.0.0, SVG Export Plug-In . SVG Version: 6.00 Build 0)  -->
<!DOCTYPE svg PUBLIC "-//W3C//DTD SVG 1.1//EN" "http://www.w3.org/Graphics/SVG/1.1/DTD/svg11.dtd">
<svg version="1.1" id="Layer_1" xmlns="http://www.w3.org/2000/svg" xmlns:xlink="http://www.w3.org/1999/xlink" x="0px" y="0px"
	 width="40px" height="40px" viewBox="0 0 40 40" enable-background="new 0 0 40 40" xml:space="preserve">
<path fill="#F5FAA0" d="M6.038,24.143c0.265-0.733,0.483-1.396,0.744-2.041c0.123-0.302,0.123-0.51-0.16-0.715
	c-0.204-0.146-0.396-0.332-0.539-0.537c-0.229-0.326-0.477-0.334-0.818-0.188c-0.567,0.235-1.159,0.418-1.731,0.644
	c-0.258,0.102-0.42,0.065-0.561-0.188c-0.332-0.598-0.676-1.189-1.029-1.773c-0.156-0.258-0.111-0.435,0.116-0.62
	c0.521-0.422,1.024-0.864,1.546-1.285c0.178-0.144,0.252-0.267,0.166-0.504c-0.127-0.353-0.188-0.727-0.312-1.079
	c-0.042-0.116-0.181-0.256-0.297-0.28c-0.694-0.148-1.394-0.273-2.094-0.387c-0.291-0.047-0.365-0.202-0.36-0.473
	c0.013-0.67,0.016-1.342-0.004-2.011c-0.008-0.312,0.129-0.434,0.409-0.479c0.661-0.107,1.318-0.23,1.979-0.337
	c0.217-0.035,0.351-0.106,0.394-0.359c0.061-0.355,0.167-0.704,0.284-1.045c0.074-0.213,0.03-0.339-0.143-0.478
	c-0.53-0.43-1.044-0.883-1.574-1.313C1.822,8.508,1.79,8.331,1.947,8.076c0.344-0.561,0.68-1.125,0.988-1.704
	C3.1,6.064,3.295,6.031,3.593,6.146C4.204,6.383,4.826,6.59,5.438,6.829c0.219,0.087,0.359,0.067,0.519-0.117
	C6.193,6.438,6.45,6.18,6.724,5.944C6.899,5.792,6.908,5.658,6.83,5.457C6.596,4.845,6.39,4.222,6.15,3.611
	C6.024,3.295,6.068,3.094,6.388,2.923c0.569-0.301,1.124-0.626,1.671-0.966C8.332,1.788,8.511,1.83,8.708,2.071
	c0.42,0.523,0.867,1.024,1.287,1.547c0.146,0.183,0.279,0.233,0.509,0.15c0.326-0.119,0.665-0.217,1.007-0.275
	c0.266-0.045,0.344-0.186,0.381-0.42c0.102-0.648,0.228-1.292,0.328-1.94c0.049-0.304,0.182-0.437,0.507-0.428
	c0.656,0.022,1.314,0.022,1.97,0.003c0.322-0.009,0.455,0.116,0.503,0.426c0.106,0.675,0.226,1.348,0.371,2.014
	c0.028,0.127,0.181,0.268,0.308,0.318c0.259,0.105,0.559,0.113,0.809,0.23c0.422,0.2,0.67,0.064,0.926-0.288
	c0.346-0.478,0.755-0.907,1.126-1.366c0.175-0.215,0.348-0.249,0.59-0.103c0.585,0.352,1.177,0.694,1.773,1.026
	c0.24,0.135,0.311,0.286,0.205,0.556c-0.248,0.636-0.463,1.284-0.705,1.923c-0.082,0.214-0.078,0.365,0.117,0.52
	c0.213,0.164,0.428,0.343,0.574,0.56c0.264,0.393,0.551,0.394,0.947,0.219c0.525-0.232,1.078-0.401,1.615-0.608
	c0.283-0.109,0.471-0.07,0.625,0.221c0.309,0.579,0.643,1.146,0.981,1.707c0.161,0.266,0.14,0.456-0.11,0.654
	C24.828,9.135,24.326,9.58,23.805,10c-0.171,0.137-0.226,0.26-0.15,0.478c0.115,0.341,0.219,0.691,0.277,1.046
	c0.043,0.253,0.178,0.331,0.396,0.367c0.635,0.105,1.265,0.238,1.901,0.321c0.369,0.05,0.494,0.208,0.479,0.579
	c-0.024,0.655-0.015,1.313-0.004,1.97c0.003,0.263-0.099,0.385-0.362,0.428c-0.688,0.11-1.369,0.254-2.058,0.363
	c-0.226,0.034-0.312,0.128-0.353,0.349c-0.063,0.342-0.146,0.683-0.268,1.009c-0.092,0.252-0.018,0.393,0.172,0.545
	c0.512,0.413,1.008,0.845,1.516,1.261c0.221,0.18,0.287,0.355,0.127,0.62c-0.354,0.586-0.692,1.178-1.022,1.775
	c-0.138,0.25-0.297,0.297-0.562,0.193c-0.609-0.238-1.235-0.438-1.847-0.681c-0.259-0.103-0.444-0.108-0.616,0.142
	c-0.105,0.152-0.236,0.309-0.392,0.402c-0.552,0.337-0.529,0.757-0.281,1.28c0.224,0.471,0.355,0.981,0.548,1.467
	c0.098,0.246,0.055,0.399-0.181,0.528c-0.606,0.341-1.213,0.686-1.811,1.045c-0.248,0.148-0.419,0.088-0.589-0.117
	c-0.417-0.508-0.85-1.003-1.262-1.516c-0.163-0.205-0.312-0.285-0.577-0.179c-0.285,0.113-0.589,0.208-0.891,0.235
	c-0.349,0.029-0.436,0.218-0.481,0.513c-0.1,0.649-0.23,1.293-0.334,1.94c-0.039,0.246-0.164,0.341-0.405,0.339
	c-0.697-0.009-1.396-0.017-2.093,0.004c-0.316,0.008-0.421-0.144-0.465-0.421c-0.102-0.648-0.224-1.294-0.328-1.939
	c-0.038-0.238-0.119-0.398-0.395-0.414c-0.158-0.011-0.326-0.045-0.465-0.119c-0.648-0.338-1.075-0.109-1.444,0.468
	c-0.251,0.391-0.598,0.722-0.89,1.087c-0.171,0.212-0.34,0.271-0.588,0.123c-0.599-0.355-1.21-0.692-1.805-1.053
	C6.188,24.369,6.113,24.229,6.038,24.143z M17.991,13.979c-0.129-0.121-0.226-0.21-0.318-0.303c-1.528-1.526-3.053-3.053-4.58-4.579
	c-0.352-0.349-0.415-0.352-0.749-0.02c-1.092,1.089-2.175,2.187-3.275,3.267c-0.273,0.271-0.275,0.461,0,0.73
	c0.911,0.887,1.805,1.798,2.707,2.695c0.729,0.726,1.46,1.447,2.221,2.202c-0.478,0.464-0.925,0.887-1.354,1.331
	c-0.099,0.102-0.219,0.326-0.174,0.395c0.074,0.115,0.271,0.209,0.419,0.21c2.197,0.015,4.396,0.01,6.597,0.014
	c0.304,0.001,0.437-0.143,0.437-0.443c-0.005-2.198-0.001-4.397-0.014-6.597c0-0.141-0.091-0.38-0.173-0.396
	c-0.133-0.025-0.33,0.062-0.438,0.164C18.854,13.075,18.432,13.525,17.991,13.979z"/>
<path fill="#C2DB75" d="M21.768,32.954c-0.416,0.034-0.83,0.062-1.242,0.106c-0.265,0.03-0.386-0.063-0.445-0.326
	c-0.101-0.457-0.234-0.906-0.364-1.355c-0.078-0.266-0.007-0.423,0.259-0.531c0.42-0.173,0.822-0.394,1.241-0.568
	c0.229-0.096,0.361-0.217,0.293-0.479c-0.007-0.024-0.012-0.054-0.006-0.077c0.181-0.764-0.26-1.049-0.886-1.322
	c-1.191-0.521-1.041-0.219-0.715-1.481c0.264-1.017,0.275-1.015,1.321-0.942c0.014,0,0.027-0.002,0.039,0.002
	c0.758,0.242,1.213-0.063,1.504-0.771c0.09-0.22,0.096-0.351-0.039-0.532c-0.283-0.374-0.537-0.77-0.815-1.146
	c-0.155-0.211-0.147-0.37,0.05-0.555c0.354-0.33,0.691-0.674,1.023-1.022c0.173-0.185,0.328-0.194,0.524-0.052
	c0.392,0.283,0.796,0.547,1.179,0.84c0.191,0.146,0.324,0.095,0.533,0.017c0.742-0.276,0.885-0.76,0.775-1.513
	c-0.153-1.056-0.096-1.077,0.939-1.344c1.215-0.313,0.922-0.438,1.455,0.663c0.019,0.037,0.035,0.074,0.053,0.109
	c0.416,0.896,0.565,0.984,1.541,0.839c0.101-0.015,0.209-0.146,0.263-0.25c0.216-0.431,0.428-0.864,0.612-1.309
	c0.106-0.256,0.263-0.306,0.504-0.237c0.465,0.131,0.926,0.27,1.396,0.376c0.252,0.058,0.322,0.187,0.301,0.425
	c-0.047,0.494-0.098,0.988-0.107,1.483c-0.002,0.134,0.109,0.301,0.218,0.397c0.569,0.518,1.084,0.455,1.69-0.041
	c0.845-0.69,0.884-0.645,1.668,0.146c0.73,0.731,0.73,0.731,0.131,1.588c-0.008,0.013-0.014,0.022-0.02,0.034
	c-0.621,0.885-0.627,0.888-0.011,1.775c0.063,0.09,0.241,0.146,0.36,0.141c0.48-0.027,0.962-0.078,1.439-0.131
	c0.254-0.029,0.398,0.042,0.459,0.313c0.108,0.481,0.231,0.963,0.381,1.436c0.073,0.238-0.012,0.348-0.209,0.438
	c-0.451,0.206-0.906,0.402-1.343,0.639c-0.118,0.064-0.237,0.248-0.245,0.383c-0.046,1.016-0.035,1.017,0.903,1.451
	c0.963,0.444,0.963,0.444,0.702,1.461c-0.023,0.092-0.051,0.183-0.075,0.271c-0.222,0.817-0.222,0.817-1.075,0.727
	c-0.055-0.006-0.105-0.014-0.158-0.021c-1.067-0.138-1.141-0.104-1.6,0.869c-0.046,0.101-0.006,0.282,0.059,0.384
	c0.262,0.405,0.541,0.801,0.83,1.188c0.152,0.205,0.168,0.361-0.035,0.551c-0.364,0.338-0.711,0.693-1.055,1.051
	c-0.16,0.167-0.298,0.182-0.486,0.042c-0.396-0.295-0.815-0.563-1.211-0.858c-0.181-0.135-0.33-0.153-0.498-0.008
	c-0.041,0.034-0.088,0.071-0.137,0.086c-0.755,0.205-0.746,0.748-0.656,1.375c0.16,1.116,0.143,1.119-0.943,1.398
	c-1.023,0.264-1.023,0.264-1.471-0.688c-0.012-0.024-0.021-0.051-0.034-0.074c-0.438-0.94-0.439-0.947-1.491-0.844
	c-0.111,0.012-0.255,0.129-0.311,0.237c-0.228,0.438-0.433,0.892-0.635,1.343c-0.101,0.223-0.226,0.289-0.474,0.211
	c-0.472-0.148-0.953-0.267-1.435-0.383c-0.224-0.054-0.313-0.168-0.285-0.396c0.051-0.479,0.08-0.961,0.138-1.44
	c0.026-0.223-0.036-0.333-0.226-0.483c-0.623-0.486-1.123-0.428-1.734,0.082c-0.811,0.67-0.854,0.617-1.604-0.133
	c-0.768-0.763-0.768-0.763-0.146-1.65c0.008-0.012,0.016-0.021,0.021-0.033c0.614-0.881,0.627-0.908-0.018-1.745
	c-0.098-0.129-0.361-0.129-0.549-0.188C21.777,32.912,21.771,32.934,21.768,32.954z M26.207,29.259
	c1.299,1.3,2.523,2.517,3.736,3.745c0.229,0.232,0.391,0.246,0.625,0.005c0.793-0.815,1.597-1.626,2.418-2.413
	c0.277-0.27,0.236-0.439-0.018-0.686c-0.73-0.708-1.441-1.438-2.166-2.153c-0.501-0.495-1.011-0.981-1.548-1.502
	c0.384-0.374,0.716-0.685,1.027-1.013c0.083-0.085,0.11-0.223,0.161-0.338c-0.111-0.051-0.226-0.146-0.338-0.147
	c-1.674-0.01-3.35-0.005-5.023-0.009c-0.238,0-0.336,0.105-0.336,0.342c0.004,1.674-0.002,3.35,0.01,5.023
	c0,0.111,0.075,0.258,0.164,0.318c0.049,0.033,0.225-0.051,0.297-0.125C25.547,29.977,25.861,29.629,26.207,29.259z"/>
</svg>
