<?xml version="1.0" encoding="utf-8"?>
<!-- Generator: Adobe Illustrator 16.0.0, SVG Export Plug-In . SVG Version: 6.00 Build 0)  -->
<!DOCTYPE svg PUBLIC "-//W3C//DTD SVG 1.1//EN" "http://www.w3.org/Graphics/SVG/1.1/DTD/svg11.dtd">
<svg version="1.1" id="Layer_1" xmlns="http://www.w3.org/2000/svg" xmlns:xlink="http://www.w3.org/1999/xlink" x="0px" y="0px"
	 width="40px" height="40px" viewBox="0 0 40 40" enable-background="new 0 0 40 40" xml:space="preserve">
<g id="Search">
</g>
<path fill-rule="evenodd" clip-rule="evenodd" fill="#F5FAA0" d="M29.105,13.012c0,0.344,0,0.688,0,1.032
	c0,7.725,0.003,15.45-0.001,23.176c-0.001,1.644-1.348,2.537-2.712,1.806c-0.772-0.414-0.962-1.118-0.962-1.932
	c0.007-4.26,0.004-8.519,0.003-12.777c0-0.207,0.033-0.42-0.013-0.615c-0.038-0.166-0.165-0.312-0.255-0.467
	c-0.124,0.151-0.352,0.301-0.356,0.457c-0.034,1.056-0.021,2.114-0.021,3.172c-0.001,3.437,0.01,6.872-0.006,10.31
	c-0.008,1.526-1.066,2.387-2.381,1.985c-0.871-0.266-1.227-0.831-1.229-1.979c-0.011-7.048-0.021-14.098-0.029-21.147
	c-0.002-0.867,0-1.735-0.176-2.665c-0.584,0.826-1.192,1.634-1.741,2.481c-0.445,0.688-1.029,0.979-1.84,0.967
	c-1.733-0.026-3.467-0.001-5.199-0.011c-1.107-0.007-1.725-0.528-1.737-1.431c-0.012-0.917,0.595-1.439,1.708-1.445
	c1.293-0.007,2.586-0.033,3.877,0.011c0.622,0.022,1.019-0.148,1.364-0.698c0.748-1.193,1.582-2.331,2.378-3.494
	c0.788-1.151,1.844-1.74,3.271-1.708c1.851,0.042,3.7,0.004,5.553,0.012c2.231,0.011,3.922,1.511,3.977,3.739
	c0.082,3.317,0.036,6.638,0.015,9.957c-0.006,0.943-0.631,1.527-1.479,1.507c-0.81-0.021-1.372-0.585-1.379-1.509
	c-0.024-2.673-0.003-5.345-0.024-8.019c-0.003-0.271-0.175-0.542-0.269-0.812C29.329,12.948,29.218,12.979,29.105,13.012z"/>
<path fill-rule="evenodd" clip-rule="evenodd" fill="#C1DA74" d="M7.218,39.204C6.227,33.838,5.242,28.51,4.246,23.122
	c0.763,0,1.481,0,2.328,0c0.858,4.553,1.724,9.146,2.599,13.785c1.295,0,2.543,0,3.898,0c0.88-4.575,1.764-9.171,2.655-13.801
	c0.746,0,1.471,0,2.327,0c-1.011,5.384-2.015,10.722-3.025,16.098C12.424,39.204,9.882,39.204,7.218,39.204z"/>
<path fill-rule="evenodd" clip-rule="evenodd" fill="#F5FAA0" d="M25.246,7.169c-1.809-0.008-3.214-1.451-3.191-3.275
	c0.022-1.753,1.481-3.19,3.226-3.178c1.774,0.013,3.244,1.527,3.205,3.3C28.444,5.787,27.016,7.179,25.246,7.169z"/>
<path fill-rule="evenodd" clip-rule="evenodd" fill="#F5FAA0" d="M12.979,22.873c-0.513,0.52-1.045,1.055-1.637,1.65
	c-0.522-0.606-1.028-1.195-1.578-1.837c0.467-0.424,1.039-0.944,1.567-1.425C11.829,21.749,12.383,22.291,12.979,22.873z"/>
<path fill-rule="evenodd" clip-rule="evenodd" fill="#F5FAA0" d="M9.502,27.938c0-0.72,0-1.441,0-2.24c0.746,0,1.488,0,2.279,0
	c0,0.731,0,1.453,0,2.24C11.047,27.938,10.302,27.938,9.502,27.938z"/>
<path fill-rule="evenodd" clip-rule="evenodd" fill="#F5FAA0" d="M8.093,19.584c0.574-0.52,1.133-1.026,1.664-1.507
	c0.459,0.467,1.003,1.019,1.509,1.533c-0.461,0.451-1.017,0.996-1.611,1.577C9.205,20.725,8.659,20.165,8.093,19.584z"/>
</svg>
