<?xml version="1.0" encoding="utf-8"?>
<!-- Generator: Adobe Illustrator 16.0.0, SVG Export Plug-In . SVG Version: 6.00 Build 0)  -->
<!DOCTYPE svg PUBLIC "-//W3C//DTD SVG 1.1//EN" "http://www.w3.org/Graphics/SVG/1.1/DTD/svg11.dtd">
<svg version="1.1" id="Layer_1" xmlns="http://www.w3.org/2000/svg" xmlns:xlink="http://www.w3.org/1999/xlink" x="0px" y="0px"
	 width="40px" height="40px" viewBox="0 0 40 40" enable-background="new 0 0 40 40" xml:space="preserve">
<g id="Search">
</g>
<g>
	<path fill-rule="evenodd" clip-rule="evenodd" fill="#C1DA74" d="M1.693,14.971c0.23-0.39,0.568-0.471,1.003-0.415
		c3.862,0.494,7.732,0.472,11.606,0.159c3.079-0.249,6.155-0.54,9.238-0.72c2.922-0.17,5.842-0.023,8.749,0.338
		c0.612,0.076,0.789,0.26,0.789,0.874c0,5.096,0,10.19,0,15.286c0,0.679-0.248,0.906-0.933,0.819
		c-4.583-0.586-9.164-0.421-13.746,0.027c-3.324,0.326-6.651,0.673-9.996,0.587c-1.977-0.052-3.949-0.255-5.923-0.379
		c-0.353-0.022-0.607-0.171-0.789-0.464C1.693,25.713,1.693,20.342,1.693,14.971z M3.009,30.27c0.106,0.018,0.197,0.038,0.289,0.048
		c2.767,0.312,5.545,0.425,8.322,0.243c3.368-0.221,6.728-0.542,10.094-0.789c3.182-0.234,6.364-0.205,9.54,0.14
		c0.16,0.018,0.321,0.017,0.496,0.024c0-4.799,0-9.556,0-14.321c-0.096-0.02-0.176-0.044-0.258-0.053
		c-2.589-0.291-5.189-0.42-7.787-0.267c-3.035,0.18-6.064,0.462-9.095,0.707c-3.322,0.268-6.645,0.366-9.97,0.07
		c-0.541-0.048-1.081-0.09-1.632-0.136C3.009,20.741,3.009,25.498,3.009,30.27z"/>
	<path fill-rule="evenodd" clip-rule="evenodd" fill="#C1DA74" d="M37.005,10.629c-1.484-0.088-2.924-0.199-4.364-0.255
		c-3.382-0.13-6.746,0.153-10.108,0.481c-3.909,0.38-7.824,0.652-11.754,0.38c-1.059-0.073-2.115-0.191-3.17-0.302
		c-0.456-0.048-0.719-0.345-0.679-0.72C6.971,9.811,7.29,9.583,7.762,9.64c2.825,0.343,5.661,0.502,8.5,0.348
		c2.512-0.136,5.021-0.345,7.527-0.575c4.598-0.422,9.191-0.581,13.785,0.02c0.581,0.076,0.73,0.257,0.73,0.845
		c0.001,5.108,0.001,10.217,0,15.325c0,0.532-0.218,0.818-0.624,0.829c-0.423,0.011-0.676-0.296-0.676-0.826
		c-0.001-4.822-0.001-9.644-0.001-14.466C37.005,10.999,37.005,10.857,37.005,10.629z"/>
	<path fill-rule="evenodd" clip-rule="evenodd" fill="#C1DA74" d="M34.387,13.275c-2.38-0.29-4.719-0.439-7.054-0.312
		c-3.547,0.194-7.09,0.5-10.633,0.766c-3.9,0.293-7.794,0.294-11.68-0.199c-0.486-0.062-0.731-0.324-0.694-0.735
		c0.036-0.404,0.338-0.599,0.833-0.566c2.117,0.136,4.233,0.327,6.353,0.383c2.794,0.074,5.573-0.252,8.356-0.464
		c2.853-0.217,5.71-0.463,8.568-0.501c2.198-0.029,4.402,0.241,6.602,0.391c0.445,0.03,0.649,0.282,0.67,0.732
		c0.003,0.071,0.001,0.143,0.001,0.215c0,5.024,0,10.049-0.002,15.072c0,0.177-0.003,0.364-0.056,0.529
		c-0.098,0.31-0.337,0.456-0.661,0.431c-0.31-0.023-0.506-0.206-0.571-0.504c-0.035-0.161-0.031-0.332-0.031-0.499
		c-0.002-4.749-0.001-9.499-0.001-14.249C34.387,13.611,34.387,13.458,34.387,13.275z"/>
	<path fill-rule="evenodd" clip-rule="evenodd" fill="#F5FAA0" d="M17.396,19.086c0.862,0.261,1.419,0.766,1.514,1.68
		c0.044,0.434-0.161,0.752-0.521,0.81c-0.414,0.065-0.714-0.164-0.772-0.638c-0.042-0.343-0.23-0.51-0.54-0.575
		c-0.445-0.093-0.892,0.035-1.044,0.291c-0.163,0.272-0.104,0.573,0.182,0.738c0.371,0.215,0.761,0.396,1.142,0.594
		c0.222,0.116,0.444,0.231,0.661,0.356c0.68,0.391,0.99,0.983,0.917,1.76c-0.072,0.764-0.49,1.294-1.202,1.544
		c-0.305,0.106-0.386,0.26-0.349,0.541c0.008,0.058,0.003,0.119,0,0.178c-0.026,0.37-0.294,0.637-0.641,0.64
		s-0.682-0.265-0.644-0.623c0.051-0.486-0.151-0.695-0.565-0.897c-0.59-0.287-0.867-0.832-0.883-1.492
		c-0.01-0.4,0.24-0.685,0.601-0.71c0.349-0.025,0.641,0.203,0.686,0.584c0.037,0.308,0.155,0.537,0.463,0.602
		c0.377,0.078,0.77,0.12,1.084-0.173c0.249-0.232,0.21-0.618-0.09-0.795c-0.4-0.235-0.822-0.433-1.233-0.65
		c-0.232-0.122-0.469-0.238-0.688-0.382c-1.193-0.781-1.103-2.543,0.186-3.161c0.354-0.17,0.458-0.348,0.427-0.719
		c-0.034-0.407,0.269-0.71,0.633-0.717c0.387-0.007,0.655,0.284,0.664,0.724c0.002,0.083,0,0.167,0.001,0.25
		C17.386,18.915,17.391,18.986,17.396,19.086z"/>
	<path fill-rule="evenodd" clip-rule="evenodd" fill="#F5FAA0" d="M27.12,16.551c1.036,0.06,1.821,0.099,2.606,0.151
		c0.494,0.033,0.78,0.329,0.736,0.736c-0.041,0.388-0.371,0.597-0.842,0.573c-1.119-0.059-2.238-0.102-3.358-0.151
		c-0.154-0.007-0.311,0.002-0.465-0.012c-0.392-0.035-0.629-0.281-0.629-0.643c0-0.367,0.263-0.64,0.662-0.651
		C26.344,16.541,26.856,16.551,27.12,16.551z"/>
	<path fill-rule="evenodd" clip-rule="evenodd" fill="#F5FAA0" d="M7.275,29.314c-0.956-0.062-1.621-0.1-2.286-0.149
		c-0.428-0.031-0.681-0.3-0.666-0.683c0.015-0.381,0.296-0.629,0.727-0.614c1.297,0.045,2.594,0.094,3.89,0.148
		c0.408,0.018,0.69,0.318,0.672,0.686c-0.019,0.365-0.288,0.607-0.697,0.611C8.271,29.319,7.628,29.314,7.275,29.314z"/>
</g>
</svg>
