<?xml version="1.0" encoding="utf-8"?>
<!-- Generator: Adobe Illustrator 16.0.0, SVG Export Plug-In . SVG Version: 6.00 Build 0)  -->
<!DOCTYPE svg PUBLIC "-//W3C//DTD SVG 1.1//EN" "http://www.w3.org/Graphics/SVG/1.1/DTD/svg11.dtd">
<svg version="1.1" id="Layer_1" xmlns="http://www.w3.org/2000/svg" xmlns:xlink="http://www.w3.org/1999/xlink" x="0px" y="0px"
	 width="40px" height="40px" viewBox="0 0 40 40" enable-background="new 0 0 40 40" xml:space="preserve">
<path fill="#F5FAA0" d="M26.752,35.744c0,1.148,0,2.225,0,3.414c-2.279-2.719-4.488-5.352-6.709-8.004
	c2.221-2.65,4.423-5.277,6.691-7.986c0,1.166,0,2.248,0,3.395c0.199,0,0.35,0,0.498,0c2.819,0,5.641-0.008,8.461,0.004
	c1.392,0.009,2.574-0.459,3.554-1.446c0.044-0.043,0.093-0.082,0.187-0.095c-0.056,0.109-0.105,0.224-0.166,0.328
	c-1.668,2.894-3.336,5.785-5.004,8.676c-0.656,1.14-1.633,1.722-2.953,1.718c-1.332-0.006-2.664-0.002-3.994-0.002
	C27.148,35.744,26.982,35.744,26.752,35.744z"/>
<path fill="#F5FAA0" d="M6.459,33.65c-0.652-1.129-1.305-2.254-1.957-3.381c-1.075-1.861-2.145-3.729-3.226-5.59
	c-0.678-1.166-0.672-2.32,0.006-3.482c0.683-1.172,1.357-2.348,2.035-3.523c0.063-0.11,0.119-0.225,0.195-0.368
	c-0.963-0.556-1.905-1.1-2.946-1.699c0.822-0.087,1.538-0.167,2.255-0.24c2.517-0.257,5.035-0.503,7.55-0.777
	c0.375-0.041,0.543,0.044,0.683,0.404c1.066,2.745,2.155,5.479,3.235,8.218c0.042,0.104,0.078,0.211,0.148,0.402
	c-1.022-0.591-1.964-1.134-2.947-1.701c-0.078,0.121-0.154,0.237-0.223,0.354c-1.415,2.449-2.824,4.902-4.246,7.351
	c-0.712,1.223-0.924,2.502-0.516,3.871c0.014,0.047,0.012,0.102,0.018,0.147C6.503,33.643,6.481,33.646,6.459,33.65z"/>
<path fill="#C1DA74" d="M18.062,26.686c0,3.054,0,6.086,0,9.15c-0.162,0.008-0.302,0.021-0.441,0.021
	c-1.853,0-3.706,0.004-5.56-0.002c-3.03-0.015-4.742-2.988-3.23-5.605c0.639-1.105,1.271-2.215,1.923-3.314
	c0.076-0.127,0.267-0.266,0.405-0.268c2.244-0.016,4.489-0.008,6.734-0.008C17.932,26.66,17.971,26.672,18.062,26.686z"/>
<path fill="#F5FAA0" d="M15.759,0.868c1.304-0.007,2.604-0.016,3.906-0.023c2.149-0.011,4.302-0.014,6.454-0.03
	c1.349-0.01,2.348,0.567,3.021,1.731c0.68,1.174,1.365,2.343,2.051,3.515c0.063,0.108,0.136,0.215,0.223,0.352
	c0.96-0.561,1.898-1.11,2.938-1.716c-0.332,0.757-0.617,1.418-0.91,2.077c-1.024,2.313-2.061,4.622-3.068,6.942
	c-0.15,0.346-0.309,0.45-0.689,0.393c-2.912-0.436-5.826-0.846-8.742-1.265c-0.111-0.017-0.221-0.037-0.422-0.071
	c1.02-0.595,1.957-1.145,2.938-1.716c-0.067-0.127-0.131-0.252-0.199-0.37c-1.426-2.443-2.857-4.883-4.277-7.332
	c-0.708-1.224-1.714-2.043-3.106-2.367c-0.047-0.012-0.094-0.04-0.138-0.059C15.744,0.91,15.751,0.889,15.759,0.868z"/>
<path fill="#C1DA74" d="M16.055,14.397c-2.651-1.514-5.285-3.018-7.946-4.537c0.073-0.145,0.131-0.273,0.2-0.394
	c0.919-1.609,1.834-3.221,2.758-4.827c1.514-2.625,4.946-2.637,6.469-0.026c0.643,1.103,1.293,2.201,1.925,3.313
	c0.073,0.129,0.099,0.363,0.032,0.484c-1.099,1.957-2.219,3.902-3.332,5.852C16.142,14.296,16.112,14.324,16.055,14.397z"/>
<path fill="#C1DA74" d="M27.084,18.598c2.63-1.519,5.257-3.036,7.916-4.571c0.07,0.112,0.143,0.215,0.205,0.319
	c0.932,1.524,1.859,3.05,2.793,4.573c0.744,1.212,0.82,2.47,0.148,3.715c-0.672,1.25-1.771,1.884-3.192,1.902
	c-1.33,0.019-2.66,0.012-3.991-0.007c-0.15,0-0.365-0.094-0.439-0.213c-1.133-1.842-2.248-3.694-3.367-5.545
	C27.128,18.727,27.116,18.675,27.084,18.598z"/>
</svg>
