<?xml version="1.0" encoding="utf-8"?>
<!-- Generator: Adobe Illustrator 16.0.0, SVG Export Plug-In . SVG Version: 6.00 Build 0)  -->
<!DOCTYPE svg PUBLIC "-//W3C//DTD SVG 1.1//EN" "http://www.w3.org/Graphics/SVG/1.1/DTD/svg11.dtd">
<svg version="1.1" id="Layer_1" xmlns="http://www.w3.org/2000/svg" xmlns:xlink="http://www.w3.org/1999/xlink" x="0px" y="0px"
	 width="40px" height="40px" viewBox="0 0 40 40" enable-background="new 0 0 40 40" xml:space="preserve">
<g id="Notepad">
</g>
<path fill="#F5FAA0" d="M13.971,34.042c-0.56,0.081-1.011,0.165-1.466,0.209c-2.366,0.231-4.692,0.015-6.966-0.688
	c-0.738-0.227-1.45-0.529-2.122-0.918c-0.286-0.164-0.433-0.392-0.455-0.756c-0.031-0.505-0.006-1.003,0.021-1.502
	c0.037-0.693,0.525-1.119,1.013-1.512c0.812-0.652,1.824-0.822,2.793-1.09c0.418-0.116,0.847-0.193,1.246-0.372
	c0.678-0.304,0.804-0.756,0.414-1.384c-0.363-0.584-0.616-1.219-0.772-1.889c-0.048-0.205-0.138-0.351-0.299-0.492
	c-0.403-0.356-0.554-0.847-0.599-1.369c-0.008-0.1,0.022-0.239,0.119-0.258C7.184,21.969,7.1,21.8,7.07,21.616
	C6.956,20.908,6.922,20.2,7.14,19.5c0.387-1.246,1.398-1.822,2.69-1.964c0.586-0.063,1.165,0.023,1.723,0.226
	c0.194,0.07,0.316,0.109,0.192,0.402c-0.63,1.469-0.901,3.018-0.771,4.605c0.156,1.92,0.788,3.683,1.977,5.22
	c0.179,0.231,0.21,0.409-0.01,0.62c-0.625,0.606-0.839,1.377-0.847,2.219c-0.004,0.413-0.001,0.828,0.021,1.24
	c0.047,0.836,0.557,1.328,1.271,1.664C13.552,33.811,13.709,33.902,13.971,34.042z"/>
<path fill="#FFFFFF" d="M20.813,13.31c4.631-0.17,9.006,3.91,8.775,9.122c-0.197,4.459-3.872,8.373-8.756,8.396
	c-4.642,0.021-9.11-3.857-8.752-9.467C12.345,17.236,16.02,13.188,20.813,13.31z M20.82,14.439c-4.192-0.02-7.595,3.4-7.6,7.581
	c-0.006,4.256,3.399,7.608,7.531,7.635c4.325,0.027,7.722-3.381,7.679-7.702C28.391,17.818,25.089,14.441,20.82,14.439z"/>
<path fill="#F5FAA0" d="M34.613,21.057c-0.045,0.235,0.05,0.492-0.062,0.734c-0.013,0.027-0.006,0.1,0.011,0.105
	c0.377,0.168,0.225,0.489,0.183,0.738c-0.068,0.404-0.181,0.813-0.556,1.063c-0.112,0.075-0.156,0.155-0.182,0.294
	c-0.146,0.811-0.335,1.604-0.876,2.269c-0.226,0.278-0.089,0.745,0.265,0.966c0.58,0.363,1.25,0.475,1.901,0.631
	c0.907,0.217,1.806,0.457,2.558,1.058c0.582,0.463,0.901,1.051,0.91,1.8c0.002,0.338-0.002,0.676-0.004,1.014
	c-0.003,0.399-0.13,0.733-0.506,0.935c-0.055,0.028-0.104,0.067-0.154,0.103c-0.836,0.543-0.937,0.532-1.635-0.166
	c-1.589-1.589-3.18-3.178-4.768-4.77c-0.539-0.54-1.151-0.918-1.938-0.96c-0.316-0.017-0.203-0.229-0.131-0.378
	c0.285-0.574,0.53-1.164,0.689-1.783c0.348-1.332,0.457-2.674,0.255-4.052c-0.142-0.95-0.4-1.855-0.796-2.721
	c-0.131-0.289-0.018-0.357,0.209-0.379c0.461-0.044,0.924-0.067,1.381,0.05c0.773,0.197,1.516,0.504,2.195,0.899
	c0.765,0.444,0.992,1.244,1.045,2.09C34.622,20.745,34.613,20.896,34.613,21.057z"/>
<path fill="#FFFFFF" d="M37.792,36.241c0.034,0.354-0.155,0.704-0.437,1.001c-0.377,0.4-0.752,0.808-1.185,1.152
	c-0.591,0.472-1.448,0.44-1.983-0.093c-2.246-2.239-4.49-4.485-6.731-6.733c-0.334-0.334-0.465-0.754-0.388-1.221
	c0.021-0.13-0.035-0.171-0.11-0.24c-0.24-0.225-0.25-0.471-0.022-0.701c0.492-0.502,0.989-0.998,1.489-1.492
	c0.232-0.229,0.478-0.292,0.722-0.005c0.201,0.237,0.457,0.005,0.696,0.075c0.329,0.096,0.632,0.205,0.872,0.445
	c2.221,2.215,4.438,4.436,6.654,6.652C37.667,35.381,37.807,35.742,37.792,36.241z"/>
<path fill="#F5FAA0" d="M29.492,10.604c-0.065,0.272,0.066,0.541-0.063,0.795c-0.025,0.054-0.005,0.141,0.068,0.15
	c0.193,0.027,0.15,0.17,0.148,0.286c-0.014,0.593-0.109,1.154-0.653,1.515c-0.106,0.071-0.084,0.163-0.104,0.256
	c-0.125,0.583-0.229,1.172-0.516,1.709c-0.102,0.189-0.143,0.213-0.301,0.037c-0.918-1.018-2.018-1.783-3.266-2.347
	c-0.813-0.366-1.67-0.573-2.537-0.746c-0.104-0.021-0.252,0.03-0.229-0.155c0.021-0.165-0.104-0.409,0.091-0.48
	c0.279-0.104,0.209-0.263,0.171-0.456c-0.188-0.982-0.15-1.936,0.416-2.803c0.446-0.684,1.121-1.015,1.896-1.153
	c1.004-0.178,1.959-0.06,2.855,0.471c0.305,0.182,0.691,0.185,0.99,0.412C29.307,8.738,29.514,9.629,29.492,10.604z"/>
<path fill="#F5FAA0" d="M13.479,15.428c-0.349-0.55-0.541-1.143-0.695-1.747c-0.039-0.155-0.095-0.273-0.215-0.376
	c-0.445-0.38-0.651-0.866-0.628-1.45c0.003-0.063-0.001-0.167,0.027-0.179c0.52-0.212,0.203-0.625,0.174-0.906
	C11.9,8.53,13.05,7.246,15.173,7.134c0.753-0.041,1.461,0.115,2.113,0.509c0.267,0.161,0.596,0.167,0.87,0.325
	c0.867,0.503,1.193,1.304,1.232,2.25c0.015,0.384,0.044,0.775-0.051,1.157c-0.02,0.075-0.013,0.14,0.076,0.184
	c0.281,0.14,0.126,0.397,0.12,0.591c-0.006,0.174-0.233,0.152-0.361,0.172c-1.564,0.242-2.962,0.868-4.239,1.793
	C14.405,14.498,13.951,14.957,13.479,15.428z"/>
<path fill="#C2DB75" d="M20.748,34.325c-2.215-0.073-4.367-0.429-6.407-1.353c-0.707-0.32-1.243-0.679-1.152-1.593
	c0.068-0.694-0.005-1.399,0.51-1.978c0.162-0.182,0.255-0.248,0.472-0.051c1.282,1.166,2.768,1.965,4.463,2.336
	c2.286,0.498,4.494,0.25,6.603-0.789c0.156-0.078,0.312-0.162,0.466-0.244c0.146-0.078,0.237-0.049,0.25,0.129
	c0.057,0.834,0.521,1.438,1.103,1.979c0.327,0.307,0.319,0.314-0.1,0.479c-1.561,0.606-3.176,0.961-4.854,1.021
	C21.65,34.277,21.202,34.354,20.748,34.325z"/>
<path fill="#C2DB75" d="M24.091,27.609c-1.612,1.203-4.857,1.223-6.453,0.056c0.251-0.091,0.499-0.162,0.73-0.271
	c0.612-0.287,0.734-0.775,0.374-1.338c-0.359-0.562-0.618-1.171-0.767-1.822c-0.055-0.238-0.146-0.433-0.339-0.602
	c-0.344-0.3-0.512-0.709-0.563-1.154c-0.022-0.193-0.082-0.41,0.214-0.526c0.184-0.072,0.076-0.313,0.05-0.474
	c-0.095-0.586-0.097-1.164,0.024-1.746c0.279-1.365,1.296-1.925,2.42-2.132c0.953-0.175,1.835,0.013,2.672,0.476
	c0.076,0.043,0.154,0.085,0.238,0.109c1.265,0.384,1.942,1.436,1.783,2.748c-0.035,0.284,0.002,0.578-0.031,0.863
	c-0.021,0.203,0.246,0.153,0.234,0.34c-0.035,0.545-0.078,1.094-0.521,1.477c-0.179,0.154-0.271,0.318-0.306,0.531
	c-0.125,0.76-0.334,1.481-0.83,2.102c-0.254,0.316-0.066,0.829,0.375,1.068C23.604,27.426,23.83,27.5,24.091,27.609z"/>
</svg>
