<?xml version="1.0" encoding="utf-8"?>
<!-- Generator: Adobe Illustrator 16.0.0, SVG Export Plug-In . SVG Version: 6.00 Build 0)  -->
<!DOCTYPE svg PUBLIC "-//W3C//DTD SVG 1.1//EN" "http://www.w3.org/Graphics/SVG/1.1/DTD/svg11.dtd">
<svg version="1.1" id="Layer_1" xmlns="http://www.w3.org/2000/svg" xmlns:xlink="http://www.w3.org/1999/xlink" x="0px" y="0px"
	 width="40px" height="40px" viewBox="0 0 40 40" enable-background="new 0 0 40 40" xml:space="preserve">
<path fill="#F5FAA0" d="M16.222,9.167V8.141h2.892v1.026c0,0.543,0.444,0.99,0.99,0.99h0.248c0.543,0,0.99-0.446,0.99-0.99V8.141
	h2.892v1.026c0,0.543,0.444,0.99,0.989,0.99h0.248c0.543,0,0.989-0.446,0.989-0.99V8.141h0.59l1.883,1.849v2.959h1.979V9.158
	l-3.053-2.997h-1.398V5.159c0-0.543-0.446-0.989-0.989-0.989h-0.248c-0.545,0-0.989,0.446-0.989,0.989v1.003h-2.892V5.159
	c0-0.543-0.444-0.989-0.99-0.989h-0.248c-0.544,0-0.99,0.446-0.99,0.989v1.003h-2.892V5.159c0-0.543-0.445-0.989-0.99-0.989h-0.248
	c-0.544,0-0.99,0.446-0.99,0.989v1.003h-2.891V5.159c0-0.543-0.445-0.989-0.99-0.989H9.868c-0.544,0-0.99,0.446-0.99,0.989v1.003
	H4.196V35.83h8.74l0.495-1.979H6.175V8.14h2.704v1.026c0,0.543,0.445,0.99,0.99,0.99h0.248c0.544,0,0.989-0.446,0.989-0.99V8.14
	h2.892v1.026c0,0.543,0.445,0.99,0.99,0.99h0.248C15.778,10.156,16.222,9.71,16.222,9.167z"/>
<path fill="#C1DA74" d="M35.218,19.211l-3.168-3.167c-0.768-0.771-2.016-0.784-2.769-0.033c0,0.001-0.001,0.002-0.003,0.003v0
	L17.732,27.561l-0.233,0.23L15.5,35.771l7.972-1.999l0.744-0.757l0,0l11.032-11.037l0,0c0,0,0,0,0-0.001
	C36.002,21.226,35.987,19.98,35.218,19.211z M18.317,28.596l4.358,4.357l-4.092,1.025l-1.278-1.345L18.317,28.596z M23.477,30.257
	l-2.473-2.471l8.276-8.275l2.469,2.472L23.477,30.257z"/>
<g id="Search">
</g>
</svg>
