<?xml version="1.0" encoding="utf-8"?>
<!-- Generator: Adobe Illustrator 16.0.0, SVG Export Plug-In . SVG Version: 6.00 Build 0)  -->
<!DOCTYPE svg PUBLIC "-//W3C//DTD SVG 1.1//EN" "http://www.w3.org/Graphics/SVG/1.1/DTD/svg11.dtd">
<svg version="1.1" id="Layer_1" xmlns="http://www.w3.org/2000/svg" xmlns:xlink="http://www.w3.org/1999/xlink" x="0px" y="0px"
	 width="40px" height="40px" viewBox="0 0 40 40" enable-background="new 0 0 40 40" xml:space="preserve">
<g id="Search">
</g>
<path fill="#C1DA74" d="M20.063,38.188c0-3.557,0-7.033,0-10.582c2.593,2.146,6.687-1.354,4.589-4.387
	c3.19-1.281,1.785-6.563-1.734-5.969c-0.793-3.906-6.012-3.875-6.947-0.219c-3.721-0.344-4.837,5.209-1.471,6.25
	c-1.992,2.584,1.471,6.287,4.324,4.313c0,3.553,0,7.029,0,10.656c-0.328,0-0.636,0-0.943,0c-4.939,0-9.878-0.016-14.817,0.018
	c-0.711,0.006-1.022-0.219-1.207-0.891c-1.945-7.066-0.635-13.393,4.484-18.713c5.004-5.198,11.18-6.895,18.146-5.214
	c10.543,2.545,16.656,13.647,13.363,23.983c-0.152,0.483-0.267,0.838-0.94,0.836c-5.455-0.035-10.91-0.021-16.367-0.021
	C20.417,38.248,20.292,38.217,20.063,38.188z M27.255,32.457c-1.997-0.398-3.784-0.191-5.338,1.076
	c-1.011,0.826-1.153,2.02-0.456,3.008c0.699,0.99,1.864,1.242,2.987,0.574C26.184,36.086,26.927,34.447,27.255,32.457z
	 M13.45,29.674c0.209,1.572,0.905,2.736,1.912,3.299c0.815,0.455,1.638,0.299,2.132-0.402c0.502-0.711,0.388-1.526-0.35-2.133
	C16.074,29.557,14.835,29.438,13.45,29.674z"/>
<path fill="#C1DA74" d="M10.875,3.654c0.707,0.131,1.189,0.137,1.598,0.313c0.913,0.395,1.627,0.154,2.26-0.529
	c0.218-0.236,0.417-0.491,0.632-0.73c1.077-1.2,1.793-1.275,3.074-0.329c1.177,0.868,1.676,0.869,2.85,0.003
	c1.288-0.95,2.005-0.876,3.074,0.32c0.234,0.265,0.461,0.539,0.703,0.796c0.619,0.656,1.322,0.837,2.188,0.472
	c0.415-0.176,0.897-0.193,1.613-0.333c-1.091,2.956-2.086,5.655-3.112,8.441c-3.893-1.087-7.767-1.139-11.759,0.017
	C12.985,9.364,11.978,6.64,10.875,3.654z"/>
<path fill="#F5FAA0" d="M22.918,21.402c0.025,1.902-1.484,3.469-3.379,3.51c-1.948,0.043-3.539-1.484-3.567-3.424
	c-0.028-1.833,1.646-3.494,3.533-3.505C21.225,17.97,22.895,19.644,22.918,21.402z"/>
</svg>
